<mxfile host="app.diagrams.net" agent="Mozilla/5.0 (Macintosh; Intel Mac OS X 10_15_7) AppleWebKit/537.36 (KHTML, like Gecko) Chrome/136.0.0.0 Safari/537.36" version="27.0.3">
  <diagram name="Page-1" id="pOxJYNTl8tobyqdr-6q7">
    <mxGraphModel dx="2066" dy="1272" grid="1" gridSize="10" guides="1" tooltips="1" connect="1" arrows="1" fold="1" page="1" pageScale="1" pageWidth="850" pageHeight="1100" math="0" shadow="0">
      <root>
        <mxCell id="0" />
        <mxCell id="1" parent="0" />
        <mxCell id="bbrWeT0IVexDpQA-mVMb-3" value="" style="outlineConnect=0;dashed=0;verticalLabelPosition=bottom;verticalAlign=top;align=center;html=1;shape=mxgraph.aws3.bucket;fillColor=#E05243;gradientColor=none;" parent="1" vertex="1">
          <mxGeometry x="694" y="360" width="95" height="80" as="geometry" />
        </mxCell>
        <mxCell id="bbrWeT0IVexDpQA-mVMb-2" value="&lt;font style=&quot;color: light-dark(rgb(0, 0, 0), rgb(255, 255, 255)); font-size: 15px;&quot;&gt;Spotify Dataset&lt;/font&gt;" style="text;html=1;align=center;verticalAlign=middle;resizable=0;points=[];autosize=1;strokeColor=none;fillColor=none;" parent="1" vertex="1">
          <mxGeometry x="674" y="330" width="130" height="30" as="geometry" />
        </mxCell>
        <mxCell id="bbrWeT0IVexDpQA-mVMb-4" value="Amazon S3" style="text;html=1;align=center;verticalAlign=middle;resizable=0;points=[];autosize=1;strokeColor=none;fillColor=none;" parent="1" vertex="1">
          <mxGeometry x="696.5" y="400" width="90" height="30" as="geometry" />
        </mxCell>
        <mxCell id="bbrWeT0IVexDpQA-mVMb-5" value="" style="verticalLabelPosition=bottom;aspect=fixed;html=1;shape=mxgraph.salesforce.web;" parent="1" vertex="1">
          <mxGeometry x="69" y="590" width="237.22" height="187.4" as="geometry" />
        </mxCell>
        <mxCell id="bbrWeT0IVexDpQA-mVMb-6" value="&lt;font style=&quot;font-size: 19px;&quot;&gt;User inputs song URL in the app&lt;/font&gt;" style="text;html=1;align=center;verticalAlign=middle;resizable=0;points=[];autosize=1;strokeColor=none;fillColor=none;" parent="1" vertex="1">
          <mxGeometry x="24" y="783" width="300" height="40" as="geometry" />
        </mxCell>
        <mxCell id="bbrWeT0IVexDpQA-mVMb-8" value="&lt;font&gt;AWS EC2 with Cloudwatch and AutoScaling Groups&lt;/font&gt;" style="text;html=1;align=center;verticalAlign=middle;resizable=1;points=[];autosize=1;strokeColor=none;fillColor=none;" parent="1" vertex="1">
          <mxGeometry x="350" y="436.5" width="276" height="30" as="geometry" />
        </mxCell>
        <mxCell id="bbrWeT0IVexDpQA-mVMb-9" value="&lt;font style=&quot;font-size: 14px;&quot;&gt;Running the flask server which serves the KNN recommender&lt;/font&gt;" style="text;html=1;align=center;verticalAlign=middle;resizable=1;points=[];autosize=1;strokeColor=none;fillColor=none;" parent="1" vertex="1">
          <mxGeometry x="69" y="316.14" width="410" height="30" as="geometry" />
        </mxCell>
        <mxCell id="bbrWeT0IVexDpQA-mVMb-11" value="POST request" style="text;html=1;align=center;verticalAlign=middle;resizable=0;points=[];autosize=1;strokeColor=none;fillColor=none;rotation=-40;" parent="1" vertex="1">
          <mxGeometry x="290" y="540" width="100" height="30" as="geometry" />
        </mxCell>
        <mxCell id="bbrWeT0IVexDpQA-mVMb-18" value="Grabs the data from the S3 bucket" style="text;html=1;align=center;verticalAlign=middle;resizable=0;points=[];autosize=1;strokeColor=none;fillColor=none;" parent="1" vertex="1">
          <mxGeometry x="461.5" y="400" width="210" height="30" as="geometry" />
        </mxCell>
        <mxCell id="bbrWeT0IVexDpQA-mVMb-19" value="" style="shape=image;verticalLabelPosition=bottom;labelBackgroundColor=default;verticalAlign=top;aspect=fixed;imageAspect=0;image=data:image/png,iVBORw0KGgoAAAANSUhEUgAAAfkAAAG7CAYAAADAJuyDAAAACXBIWXMAAAsTAAALEwEAmpwYAAAgAElEQVR4nOzdd3xV9eH/8dcZd2ZvRtgQQMImyAYVUXFbbd1FqlXr/mnddY+2Wmn7tSJqv1px4GK0+nULsjcIBBJmBgnZyc2665zz+f0RckskJAECJOHzfDxQHuSecz733JP7Pp95FCGEQJIkSZKkDkc91QWQJEmSJOnEkCEvSZIkSR2UDHlJkiRJ6qBkyEuSJElSByVDXpIkSZI6KBnykiRJktRByZCXJEmSpA5KhrwkSZIkdVAy5CVJkiSpg5IhL0mSJEkdlAx5SZIkSeqgZMhLkiRJUgclQ16SJEmSOigZ8pIkSZLUQcmQlyRJkqQOSoa8JEmSJHVQMuQlSZIkqYOSIS9JkiRJHZQMeUmSJEnqoGTIS5IkSVIHJUNekiRJkjooGfKSJEmS1EHJkJckSZKkDko/1QWQJElqiyzLoqKigqKiIux2O/Hx8URGRh73fjMyMgAIDw8nOTn5uPcnSU1RhBDiVBdCkiSppYLBIAcOHMDr9dKjRw+cTucJOY7X6+W7777jX//6F126dOHqq69m3Lhxx7VP0zT51a9+haZpjBw5kgcffLCVSitJjZM1+TZg7969bNiwgfLycoYPH05qaioul6vJbQKBAIsWLaK8vByHw8GwYcMYOnRoi49ZWFjIypUrKS4uRlEUpk6dSvfu3dE0rUXbl5WVsWTJEkpLS0lJSWHy5MktPrbUtgSDQZYtW8bu3bsBSE1NZdiwYbjd7hZt7/V62bBhA9u3bycpKYkpU6YQFRV1QspqWRY7duzgpZdewjAMrrrqKq644ooTcqxgMMju3bv57LPP6N+/PxMnTjzufQoh+Oyzz7DZbBiG0QqllKSmyZBvAzIyMpgzZw47d+7krrvuonfv3k2GvBCCd999l1mzZuHz+ZgwYcJR1zDy8vL43//9X3766ScURWHnzp08/PDDxMXFtWj7oqIi3n77bbZt28aVV14pQ74d8/v9LFiwgEWLFgEwZMgQXnjhBVJTU1HV5oft1NbW8vXXX/Ovf/2LkSNHMnjw4BMW8n6/ny1btjBv3jxUVSUsLIzLLrusReWUpNOR/M1oA7xeLwUFBeTm5uLxeLAsq8nXf/TRR/zxj38kMzOThIQEZs6cSZ8+fY7qmIFAgMLCQnJzc8nJyWHu3Ll8//33+P3+Fm0fDAYpKioiNzeX8vLyozq2dPyWL1/O008/zc6dOzneHjfLsigtLSU3N5fc3Fy+//57PvjgA8rKylq8fUVFBbm5uRQVFZ3QGqqmaUREROB0OnE4HERHR6Moygk7niS1dzLk25nPP/+cp556in379jFw4ECef/55JkyYcNw1mcLCQv72t7+Rm5t73KEhnXiffvopr732Gjk5Oa3+efl8PubOncvy5ctbfNN3sthsNs4880xmzZrFc889x4wZM2TIS1ITZMi3Iz/++COPPvoomZmZ9OzZkz//+c9MmjSpxf3oRzJw4EDCwsJYv349c+bMoba2tpVKLJ0IVVVVLF26lJKSklavNffr14+oqCjy8/P5n//5H/Ly8trUTZ+iKCQlJXHttdcyY8YMzjjjjFNdJElq02TItxMbNmzgoYceYtu2bSQmJjJr1izOOeccbDbbce/7+uuvp3///pimyTvvvMPixYsxTbMVSi2dCOvXr6egoKDZbp1jMXHiRCZOnEh4eDgrV67k7bffpqqqqtWPczwURcHtdhMZGdmu++Lbc9ml9kMOvGsHMjIy+P3vf8+GDRuIjIzk1Vdf5bzzzsNut7fK/pOTk7nlllt48sknKSoq4rnnniMtLY2kpKRW2T/UDRZMT0/nxx9/JCMjg9LSUhwOB8nJyYwdO5Zp06ah681fjsFgkKysLNatW0dmZiaFhYUEAgFcLhfdu3dn3LhxjBgxgrCwsCPu47PPPqOoqIjhw4czZswYhBCUlpby1VdfsWbNGioqKoiNjeW8885j+vTph20fCATYvHkzS5cuZc+ePXg8HtxuN71792by5MmceeaZzb4Xr9fL1q1bWbZsGXv27AmNa4iKiiI5OZnU1FTS0tLo3LlzKAxqampYvHgxs2fPDr3+888/D42KB9B1ncGDBzN+/Phmz2VjnE4nv/3tbykoKGDjxo28+eabTJ48mSlTprTo82mpvLw8li9fzoYNGygoKEAIQXx8PMOHD2f69OnEx8cfcdv8/Hzmz5+P0+lk8ODBnHnmmY2+TgjBzp07WbZsGdu2baO4uBjLsoiNjaVXr16HTb1TFIW4uDiuvvrqIx5bCEFhYSHLly9n8+bNFBUVIYQgISGBM844gylTptClS5cWBXh9C5zX62X9+vWsXLmS3Nxc/H4/MTExDBgwgEmTJtGnT58Wd0kYhsHy5ctZtWoVWVlZoWuzU6dOjB49mokTJzY7uHbbtm2sW7eO2NhYxo4dS2JiIqZpsmrVKr7//nv27NmDpmn07t2bhx56qMH3UCAQYPXq1axcuZJ9+/ZRWVkJQHR0ND169CA1NZWRI0fSuXPnFr0f6fjJkG/jsrOzeeCBB1i5ciV2u52//vWvXHzxxTgcjlY7hs/n47LLLmPVqlV8/PHHbNy4kVdeeYUXX3yxVWobxcXFvPXWW3z88cfk5eXh9XoxDANFUXA4HLzzzjuMGjWKP/3pT6SkpDS6j0AgwPr163njjTdYs2YNHo8Hr9dLMBjEsiw0TcNutxMREcG0adN4+OGH6dWrV6NfjnPnzmXdunXMmDGDUaNGsXnzZh577DG2bNlCdXU1hmHQpUuXRsuyZ88e5syZwxdffEFhYSE+nw/TNFFVFafTyZtvvsm0adN47rnnSEhIOGx7IQRZWVm8/PLLfPXVV3g8ntA+hBDouo7dbsftdpOYmMjDDz/MJZdcQnl5OY8++ig//PADRUVFob7y9957r8GXrNPp5Oabbz7mkK+pqWHgwIHMnDmT/fv3U1hYyPPPP8/QoUMbfT9HKxAIsHDhQl5//XUyMjKoqakhEAgAdf3tYWFhzJ49m0ceeYRLLrnksO2FEGRnZ/PMM88QExPDzTff3GjIV1RUMHfuXObOnUtOTg61tbUEg8HQOXY6nYdd24qikJqa2mjIq6qK3+9n0aJFvPbaa6Snp1NTU0MwGAyV3eVy0bNnT+655x4uuugiwsPDmzwXuq6zd+9eXnzxRb799luqqqoIBAJYloWu67hcLnr16sWvf/1rfvnLXxIbG9vk/jZu3MhLL73E6tWrqaysxO/3YxgGqqpit9uZO3cuAwYM4Pbbb29yRsLGjRv561//Srdu3UhOTkbTNF555RXmz59PQUFB6NqbMmVKqDWp/rp+/PHHWbFiBVVVVaHj179Xh8OB2+2mZ8+e3H333Vx11VVNvh+pdciQb8OKiop48MEHWbx4MUIIXnrpJa666qpWX/zD5/MRFhbGI488wtq1a8nMzGT27NlceOGFTJo06bj2XVRUxPPPP8+8efMoKSmhc+fOTJ48ma5du1JdXc2qVavYsWNHaKT+hx9+SL9+/Q7bj6IoZGdns3DhQqqqqkhKSmLMmDH06tULm81GdnY2q1atIjs7m/fffx+n08mjjz5Kp06dDtuXx+OhqKiIffv2kZGRwW9/+1vS09NxuVykpqYSHh5OeHj4YbWNjIwMXnjhBRYtWkR1dTV9+vRh1KhRJCYmUlpayvLly8nNzeW9994jNzeXTz755LAWhQMHDvCHP/yBBQsWEAgE6NGjB2lpaSQkJGBZFnl5eWzdupWcnBzsdjthYWE4HA6EECQmJjJq1Cj27NnDjh07CAQCDBkypEH42u12evbsecyfVyAQQFVVrrvuOpYuXcrChQtZuXJlKHiPp3soEAjw9ttv87e//Y1du3bhcrlIS0tjwIABKIpCenp6aO2GW2+9lWAwyC9+8YvD9hMMBkO18sbGj/h8Pt56663QmIJhw4Zx+eWXc8YZZ6AoCpmZmXz44Yds27YN0zQZOHAg55xzDl27dmXAgAGNlt2yLJYsWcKKFSvIy8ujZ8+eTJo0iejoaKqqqti0aRO7d++muLiYhx9+mIiICM4999wmW9vKy8u58847WbZsGREREYwfP55OnTphGAYZGRls2bKFdevWsX//fiorK7nllluIiYlpdF+LFy/mgQceYPv27fh8Prp37865555LfHw8lZWVbN26la1bt4Zm1BQUFHDbbbc1GvQ+n4/S0lKg7np97733eO+996ioqKBv374kJyfj8/kYOHBgaPvKykpmzJjB2rVrMQyDPn36MHr0aGJiYjAMg9zcXLZt20Z2djaJiYlNtrRJrUxIp9ynn34qBg0aJADx2GOPiaKiIlFRUSFmzpwpIiIihKqq4o9//KPweDytdsxVq1aJtLQ0AYi//OUvwuPxCNM0xZtvvikiIiIEIEaOHCmqq6sb3X7Lli1i9OjRQtM08Zvf/KbR1xiGIV588UXRqVMnoSiKuOaaa8SmTZtEeXm5qKqqEh6PRxQWForHHntMAELXdXHxxReLYDDY6P42btwofv/734u3335b7NmzR5SVlYnKykpRVVUlysvLxXfffSdGjx4tFEURsbGxYvny5cI0zcP2M2XKFKFpmhg5cqS47LLLRGRkpJg5c6bYunWrKCkpEWVlZaK8vFx4vd7QNuXl5eLBBx8UERERwu12i3vvvVds375dVFRUhN7Lvn37xHXXXSfsdruw2Wzi97//fYPj+v1+sWDBAuFwOER0dLS46667RE5OjqioqBCVlZWisrJSlJeXi/z8fPHNN9+Ijz76SOTm5gohhDBNM/TzZ599VkRFRQlAfPrpp6HylpeXi4qKClFbW9uia6Cex+MR11xzjQDEVVddJXbt2iWEEGLz5s2iX79+QlEUER0dLdauXSssyzps+6KiInHnnXcKQIwbN05kZmY2epzPP/9cpKWlCVVVxahRo8TChQtFUVFR6L2XlpaKTz75RCQlJQlFUURycrLYt29fg31YliV+/PFHAYi4uDjx1FNPHXacH374QYwfP16oqiqmT58uVq1aJWpqakQgEBCBQEDU1NSIrKwsMXbsWKGqqujUqZPIz88XNTU1wu/3Nzgvr7zySujadLvdYtCgQeLNN98UeXl5oc+toqJC5OTkiN///vciPj5eKIoifvGLX4Q+u0MFg0EBCEVRQtfBb37zG5GZmSnKy8tFZWWl8Hg8oqCgQHzwwQdi2LBhQlEUkZKSIj799NNGz/++ffvEhAkThK7rQtd18cQTT4j8/PxQ+Twej8jPzxf/+te/RM+ePYWqqmLw4MFi0aJFjX5Oc+bMEV27dhXdunUTF110kejevbtIS0sTn376qcjLyxNlZWWitLRUVFZWhsoze/Zsoeu6CA8PF0888YQoLCwUHo+nwXWdm5srPv/8c/HJJ5+I4uLiRo8ttT4Z8m3Az0M+Oztb3HPPPSImJkYA4pFHHhFlZWWtesxDQ/5Pf/qTqKioEELUBdHll18uNE0TqqqKRx99tNHtWxLyy5YtExMmTBCKoogLL7xQbN26tdHQ9fl84oorrhCAiI6OFv/5z38a3Z9hGMLr9YpAINDol51hGOKll14SnTt3FoqiiFdffVVUVVUd9ropU6YIQGiaJqKiosS9994rqqurG91nvc8++0ykpqYKQNx2221i7969h73esixRUlIihg8fLhRFEWFhYSInJyf0c4/HI55++mkBiCFDhog1a9Yc8ZiGYYhgMNjoz1966SURHR0tAPHll182ek6PxqEhf/nll4dC2jRNMWvWrNANxcSJExuEYL2WhHxBQYGYOXOm0DRN9OnTR/z73/8WgUDgsNcFg0Hx6quvCl3XhaIo4oEHHmjw85aE/F/+8hcRExMjIiMjxdy5cxs9jmVZYu7cucLpdApFUcTcuXMbPS/1IQ+I3r17izfeeOOI+ysoKBDTp08XqqqK2NhY8dNPPzX6/ur3Z7PZxIUXXtggLA8VCATEu+++GwrmmTNnir179x72uocffjj0GT355JOisrLysNcIIURtba1YtGiRiI6OFrqui0svvVSUlJQc9rr6kFdVVei6LiZOnChWrVrV6Puud+ONNwpAdO3atcnKSFPXtXRiyOGdbUwwGOTFF1/k/fffDw2uSk5OPmHrcwOh/mCoa+596aWXiI+Px7IsZs2axerVq49pv0uXLmX79u24XC5+/etf079//0abBx0OB/feey9Qt3rawoULG92fpmk4nU5sNlujfe2apjFs2DDi4uIQQpCXlxfq7z2S1NRUnnnmGcLCwo44uKmqqirUrZCSksIll1xCz549D3t9/cCtG264AZvNRk1NDfPnz2/wmvo+TNM08fl8Rzympmnoun7S54Afei2oqsrtt9/O+PHj0XWd5cuX88orrxzTftetW8fGjRsxTZMrrriC0aNHN9r0r+s6N910E/Hx8QghmDdv3lFNE/T5fOzfv5/y8nJ69uxJt27dGj2OoiiMHTsWXdcRQjR7jSuKwtChQ7n88suPuL+kpCTS0tKIiYmhrKyMnJycUJ99Y8LDw5k5cyYRERGNfs42m41JkyYxefJkLMtizZo17Ny5s8Fr9u/fz9dff01lZSUpKSnceuutRERENHo8l8vF6NGjue666zAMgx07dvD9998fsXyWZRETE8P999/PqFGjmuyqqf+M6q/rIzlV1/XpTIZ8G1M/WKisrCz0i/CHP/yBLVu2nJApU43p06cPTzzxBJqm4fP5uO+++/B6vUe1j5KSErZt20ZZWRnDhg2jd+/eTX5JjBkzBpfLRTAYZO3atcdc9piYmNCgxJqamibPmdvt5oYbbjjil2K9ffv2kZmZiWmaDBs2rNGAP9SZZ54ZuplZtWpV6N8dDkeoX3jv3r3Mnj2bnJyck/a5HguHw8ELL7wQCt1nn32W7du3H/V+MjMz2bt3L1FRUaFxDEfidrsZOXIkAKWlpUd1vEAgEBoY5nK5mrzmDg3X6urqJvcbHR3N4MGDmxz1D5CYmBi6Ifd4PE1ORXW5XEyZMqXJ/XXv3p3BgwfjdrvZs2fPYesWbNiwgbKyMoQQXHTRRc1ey/Hx8Zx33nmoqkphYSGbN29u8vVTp05l0KBBzc6sGDVqFIqiUFFRwcMPP0xFRUWbvq5PJzLk25iCggI0TeP555/npptuIioqirKyMu666y6Ki4tPWjluvfVWzjnnHIQQbNq0iT//+c9H9Uubk5NDUVERAAkJCfh8Pg4cOHDEPyUlJURHRyOEoKys7Ihzs4UQGIaBz+ejtraW6upqKisrKS4uJicnh7y8vNCXvGhmERe73d6ih44cOHCA/Px8oO7Lvv4paEf6c6i8vLzQ3x0OB2PHjmX69OkEg0E++eQTzj//fP7617+yZ8+e0Cj7tmbo0KHce++9OJ1OamtrueOOO45qJbyqqipyc3OprKwkKSkJIQQFBQVNnsP6R7oKIULnviXCw8OJjo5G13XKy8uprq4+4nWQm5sbuqYbG6B5qMjISLp27drs8e12e+gGLxAIHPHYqqrSuXPnZkfMK4pCYmJi6HeofhBevczMzNDgw8GDBzc7MFLXdbp06UJycjKVlZXs3r27yRv4nw/sPJIbb7yRwYMHEwwGmTt3LpMmTWLOnDnk5+e32ev6dCFH17cxiYmJPPXUU1x77bUYhkFRURHffPMN69at4+mnn+bll19u8dPBjoemafz9739n/PjxlJaWMnv2bKZNm8bYsWNbtL3H46GmpgaARYsWhR5+0hJCCKqrqxvUSoQQ+P1+8vLyWLFiBcuWLWP79u3k5uZSUlLSoOm7uXA/9D225Iu7qqoqdNPxxhtv8MYbb7T4vRz6hQzQtWtXXn75ZZxOJ99++y27du3i/vvv5+WXX+aCCy7gl7/8JSNHjiQyMrLV1kFoDffeey9ffvklS5cuZfny5fzjH//gnnvuadFqi1VVVaHzsHPnzibnof+cEOKoFuNRVZV+/fqRnJzMnj172LBhAyNGjCAuLq5B64vP52P+/PkEg0FsNhtTp05tcr82m63ZKXFHQ1XVFk9JrJ/tAXXn0ufzhR4AVF5eHuoS6Ny5c4s+D6fTSVJSEjk5OXi9XjwezxEfiBUfH9+i75vY2FjmzZvHHXfcwfr169m+fTt33nknzz//PJdddhlXXnklw4YNIywsrFUW8JJaToZ8G3PDDTdw2WWXhWoyzzzzDNnZ2aSnpzNnzhzGjBnDddddd9xL2bZE//79efzxx3nooYcoLS3l6aef5sMPPwxN42mqyToQCIS+fNxuN+Hh4S0uc2JiYoN9W5ZFQUEBH3/8Ma+99hp79+7F5XLhdrux2+0kJiZit9sJDw/HMAz27dvXbPNrfflbMtYhGAyG+vYjIiKa7L//uZ8vPKKqKgMGDOCtt97i//7v/3j33XfZvHkzHo+Hd955hw8//JDx48dz6623ctZZZxETE9MmVkZzOBy89NJLnH/++ZSVlfHSSy9x9tlnM2zYsGa3DQQCofNXv5ZBS29g7Hb7Ud/sTJgwgbFjx5Kfn8+rr76KYRhcccUVoaAPBAL8+9//Zvbs2QghOO+88zj77LOb3Kemaa0eTi0dZ2Oz2ULN5YFAoMEYBa/XG6olu1yuFl2XqqqGurSCwWCTfeh2u71Fv7eKojBw4EAWLVrEvHnzeO+998jIyKCsrIzXXnuNd999l8mTJ3PLLbcwefJkIiMjZb/8SSJDvo1xOBwNfqmGDx/OQw89xIMPPsiBAwd48MEHGTx4MMOHDz8p5bntttv4+uuv+frrr1m9ejVz5szh//2//4eqqk3202maFnofF1xwATNnzmy2SbSezWZrEI4lJSW8/vrrvPzyywAMGzaM888/n4kTJ9KvXz+SkpJwuVyoqsqKFSu48847m+1rPBqHvperr76a66+/vsW1uiN9kUdHR3PttddyySWXsG7dOubPn8+PP/5Ibm4uP/zwAxs2bOCWW27hd7/7Hd27d28TX4hpaWncd999PPvss5SUlPDEE0/w3nvvoapqkwF46PlLSUnhvvvua9HNAdSFx9HO++/bty+33HIL5eXlLF26lCeeeILXX3+dHj164HA4yMrK4sCBA4SHh3POOefw+uuvn5IbqaN54uOhi+4c+ntns9lCZfd6vS1qxbIsK3Ts+sWXWktERAS33HIL1157LUuXLmXBggUsXbqUAwcO8MUXX7B+/frQdd3S7wPp+MiQbweuvfZatm7dyj/+8Q8KCwu56667+OSTT07K0pAOh4Onn36aLVu2cODAAd5++20mTpxIbGxsk6vuRUREhJr5VFWlb9++R1zNrimmabJlyxbefPNNgsEgkydP5rnnnmPMmDGNvt4wjFYf8ON2u0OLd7hcLvr169dq5z48PJyzzjqLSZMmsWvXLj744AM+++wzdu/ezezZs0lOTuamm25q1abi43Hffffx3Xff8eOPP7JkyRLeeecdrr766iavhbCwsFDrRzAYJDk5mREjRpzQck6aNAm/309xcTG7d+/G5XJRWlqKoiiEh4czefJkpk+fzowZM0JN3yeTZVmUl5cjhGj2Bq6mpibU7x4eHt7gXMfFxYVusIqKijBNs9lBcoFAgPLy8tAzAE7EtRUWFsYFF1zA1KlTyczM5N1332XBggXs27ePf/7znyQmJnLrrbfKpvuT4NS3A0rNUhSFhx9+mLPPPhtN01i5ciV/+tOfTsqDQ+qnDt199904nU5ycnKYNWsWpaWlTTY3du7cOdQ8unv37tAI4KNVXV3N5s2bKSgoIC4ujvPPP/+IAQ91fZSt/XjUhISE0Gjwffv2nZABkJqmMWDAAB5//HH+8Ic/0K9fP6qqqliyZAm5ublH3O5YzunxCAsL49lnnyUhIYGamhpmz57N1q1bm+y3jYyMpFOnTjidTvLy8sjPz29yallryMrKYsGCBRQUFHDllVfy5ptv8v777/P+++/zn//8hy+++IJ77rnnlAQ8EFrdsKKiosnXGYZBQUFB6FkPnTp1ahDKffr0CZ37bdu2NXteDcOgsLCQ/fv343a76dq1a6hr8ESw2Wykpqby5JNP8vjjj9OtWzfy8/NZs2bNUQ2olI6dDPl2Ijo6mueff54zzjgDIQRvvfUW8+fPb/VHjTbG4XAwY8YMpkyZgs/nY9myZXz44YdNNnF27tyZvn374na7yczMZMuWLcf0CNtAIBBaYjMyMrLJGrRhGGzdupWysrKjPk5TevToQb9+/dB1nS1btrB9+/Zm598fK7vdztSpU0lLSwPqamc/H1+gaVqo9ne0Uxtbw7hx47j99tux2WxkZWUxa9asJsuh6zr9+/ene/fuoaWMD5110NpM0+Szzz5j/vz5pKSk8Lvf/Y6zzjqLUaNGMXLkSHr27NmqD9s5VjU1NQ2mWDYmPz+f7du3U1VVRY8ePejWrVuDso8YMYLExERUVeWHH35o9ma6oqKCJUuW4PP5SEhIYPDgwa32fpoSFhbGuHHjmDBhAlB3M16/Doh0YsmQb0dSU1N56qmnSEpKora2lhdeeOG45pQfjbi4OO6//366d+9OSUkJn376KVlZWUd8ff1CHv3798fr9fLBBx+wdu3aZmvZfr+/wUAgTdNCNZWamppQk+TP1Tfr13/Rtab6dfK7detGdnY2CxYsYOvWrc3Wmqqrqxt0HViW1eChJkdiWVZou/Dw8MP6TKOjo0M3WOnp6Se9Nq9pGrfffjvjxo3D5/Px448/8t133zW5zYgRIxgxYgQ2m42vvvqKb7/9Fo/H0+Q2lmW1aADlzwUCAfbs2UNJSUmoltoWp3DV1tby0UcfUVJS0ujPfT4fK1asYM2aNaiqyqhRo+jbt2+D1/Tu3ZtzzjmHiIgINm/ezMKFC0OzWn4uEAiwYcMGFi5ciK7rDBgwIBS6x8vj8TTbTWZZVuhzcDqdRxzRL7WuU387Kx2Vyy+/nG3btvHnP/+Zffv28cILL/Dqq68e10NJWkLXddLS0rjlllt48QapBrYAACAASURBVMUXKSoqoqioqMmRt2PHjuX8888nJyeHZcuWMWvWLEpKShgyZAjx8fE4HA5M06S2tpby8nIKCgrIzs5m9OjRDBo0CKjrD+/Xrx9hYWGUlpby448/MnbsWAYOHBgaTV+/YMo///nP0INdWrOGqygKEydO5LzzzuP999/niy++wOFw8Mtf/pKBAwcSExOD3W7HMAyqq6spLy/nwIEDbNmypcEKZH6/n9WrV1NQUEBKSgqdOnUiJiYm9GVXW1tLYWEh33zzDRs3bsRmszFo0KDDploNGDAAt9tNaWkpCxcu5Pzzz2fQoEG4XC58Ph/BYPCENsFCXRfGgw8+SGZmJvn5+axbt67J1/fu3ZuLLrqIn376iR07dvDqq6/i9XqZOHEinTt3Do158Pl8oQcI5eTkEBERwYUXXnhUZdN1nU6dOhEZGcm6det4++23GTlyJG63u0HrU/2MjE6dOtGnT59WfbJjc+qfwPjll1/Sv39/LrroIpKTkwkPD8eyLEpLS1m3bh3vvvsumZmZdOvWjalTp9KjR4/D9nPTTTexdu1ali9fHppiO3HiRLp27YrT6Qw90GfTpk289tpr7Ny5kx49enDppZcedtNwrL744gvsdju9evUKXddOpzM0HbagoIAvv/yStWvX4na76du3rxx4d5LIkG9nFEXhnnvuITMzk3nz5rFkyRJee+01HnvssRPevxgREcE111zDypUr+fLLL5t9fUxMDDfccANlZWV8+umnfP7556SnpzN69Gh69+5NREQEgUCAiooKcnNzycjIID8/n3feeScU8k6nk6FDhzJ58mS+/vprFi9ejNfrZfz48cTHx+P3+8nKymL58uWUl5dzxRVX8MMPP/DTTz+16nuvf+RnWVkZX3/9Ne+//z6bNm1i1KhRdOvWDZfLhd/vp7S0lJycHHbs2MGuXbsarKgXCARYunQpr776KkOGDOGMM84gOTk5tAhQeXk5mZmZLF++nP379zNixAjOO++8w1aHGzx4MCNHjgw98/3xxx9n6tSpREZGUltbS5cuXfjVr37Vqu//5zRNY8KECcyYMYO//OUvzbbQaJrG+eefT0FBAa+//jrp6ek888wzpKWlMWjQoNC0zMrKSgoKCti1axfp6en85je/OeqQt9lsnHPOOaxcuTJ0vjVNw+FwhEK+/tHACQkJDBgwgGnTpnHxxReftOec2+12LrzwQvbu3cvLL7/M6tWrGTZsGPHx8RiGQXZ2NkuXLmXr1q3ExcXxq1/9inPOOafRcTD9+/fn7rvvJhgMsnr1ah566CHOO+88UlNTiYqKwuv1smfPHpYuXUpGRgZdunTh+uuv58orr2y1WQVffPEF33zzDcOHD2fAgAEkJycTGRkZumHZsWMHK1asoLCwkPHjxzNt2rRTNh7idCNDvh2KiorikUceYe/evaxZs4YPPviAgQMHcsMNN5zQvkZFUUhOTua2225j+/btZGdnN7vNgAEDuPfee+nUqRNff/01O3bs4OOPPz6saa9+BbC0tDS6dOnS4Gc9e/bkzjvvxLIs1q5dyzfffMM333wT+rnb7SYlJYWZM2fy61//mtra2sPW+G4No0eP5oEHHiA5OZnFixeHgujnzeU2m42uXbsybdq0Bk2SNpuN3r17k5SUxNq1a1myZMlhx6ivhU6fPp0bb7yRM88887DPNDw8nLvvvpva2lpWrFjR4HzY7XauvfbaEx7yUHfeZ8yYwapVq1i8eHGzr4+NjeXGG28kKiqKhQsXsmnTJr777ju++uqrw14bExNDv379GDJkyFGVSQjBvn372L17N5ZlERUVRVhYGBEREQ1anepbkLKyskhPT+e7774jJyeHxx577KQ0IzscDm699Va8Xi9z5sxhzZo1fPHFFw1+L+offXzxxRdzww030L179yPu79JLL8XtdvPPf/6T1atXM2/evAbXpaIoxMTEMHHiRC6++GKuvfbaZpfoPRpDhgxh7dq1LF26lG+//fawn9tsNrp06cJll13Gdddd1+JFtaTjJ0O+Dejfvz8333wzRUVFTJo0qUUrTA0cOJCnn36aJUuWoGkadrv9qPpmu3TpwowZM5g6dSpjx45t8cIcDoeDCRMm8OSTT7Jr1y4URQmtM34k/fv357777mPixIls3LiRPXv24PF48Pv9oT73hIQE+vXrx+DBg0O1+Houl4uzzjqLxMREfvjhB3bu3Bnqzw0PD6dbt26kpaUxduxY4uLi+MUvfkGXLl0YOnRoo1/Y1157LWPHjj2qBXqg7kYkLS2NHj16cPbZZ7N582ays7OprKwkGAyi63qo+bdfv34MHTq0wUhop9PJueeei9vtJiMjI7REaf0z3F0uF4mJiaSkpDBu3DhSUlKOOIf5rLPOwul08t1337F7925qamrQdZ3Y2NhmV2/7OYfDwaWXXkrPnj0ZOHDgYQv4NHU+unfvzuOPPx6a8dC9e/cml2qNj4/nhhtuYOTIkaxdu5aMjAyKi4tD3StOp5OYmBh69erFwIEDGT16dIPtFUWhW7duPPLII7hcLsaNG9fg5zt27OCNN95g4cKFJCQkcPPNN9O/f3+io6MbfNb1XStZWVnMmzeP9PR03njjDS644ALGjx8fOi9paWk88sgjxMfHH/FZ84caOnQod9xxBx6PhyFDhhx2g6aqKo888ghOp5Phw4fjcrno2bMnP/zwAzt27KCkpATDMAgLCyM5OZnRo0czZsyYZlfHUxSFadOm0atXL5YtW8aWLVsoKirC7/fjcDiIiooiJSWFUaNGkZaW1uTv+7Bhw7jzzjuprKwkNTW1RWs0XHPNNSQnJ5OZmUlBQUHod0JVVdxuN0lJSQwcOJAxY8aQkpJyUhbzkuoo4mSP2pFOa/Vr01dWVoZCPiwsjLi4uBb1iQaDQSoqKqioqAjNeT70oTQnk2EYlJeXU1lZiWEYaJpGREQEsbGxzc7/NQwDj8eDx+MhGAyG5izHxMTgdrtbvPhN/RSr+pCPioo6bAnXtqyqqoqKigpqa2tD/dSxsbHNPmilMRUVFbz66qvMmjWLLl26cP/993P55Zc32SxsmiZvvfUWt912Gw6HgyeeeIJHH330eN7SMakfZFhaWhoK+UPHaxyt+vEdh4Z8c+vkt4b634mqqqrQzWv9ezkZy3FLh5M1eemkqn8ca0triz9ns9lISEho8brfJ5Ku68dcFl3Xj+s8HLqf5OTk49rHqRQREXFMgd6Y7Oxs1q5dS1lZGVdccQVnnXVWs/2+mqYxffp04L83oKeCqqpERka22oBJt9tNr169WmVfR+N4fiekE0NOoZMkqUPweDyhudfx8fEtvnkoLCwE/nsDKkkdiQx5SZI6hEOXaM3JyTni/PNDlZaW8ve//x2o64NvyaOHJak9kc31kiR1CD179iQ1NZUlS5awePFiOnfuzHXXXcfAgQMbDDQzTZP8/HzWr1/PggULWLRoEaqqcuWVV560Bz9J0skiB95JktQhWJbFmjVreOGFF/j222+JjIykd+/eJCcnEx8fj81mIxAIUFJSQllZGQUFBWRlZSGE4Prrr+eRRx6hT58+p/ptSFKrkiEvSVKH4fP52LFjB/Pnz+c///kPmZmZGIaB3W5HVVVM0yQQCGBZFr169eLMM8/ksssuY8yYMU3OQ5ek9kqGvCRJHYppmpSXl1NUVEReXh65ublUVFRgmiYOh4PIyEi6detGfHw8MTExJCUlnZIpmJJ0MsiQlySpwzIMg0AggGmaoWe367qO3W6XC7JIpwUZ8pIkSZLUQckpdJIkSZLUQcmQlyRJkqQOSoa8JEmSJHVQMuQlSZIkqYOSIS9JkiRJHZQMeUmSJEnqoGTIS5IkSVIHJUNekiRJkjooGfKSJEmS1EHJkJckSZKkDkqGvCRJkiR1UDLkJUmSJKmDkiEvSZIkSR2UDHlJkiRJ6qBkyEuSJElSByVDXpIkSZI6KBnykiRJktRByZCXJEmSpA5KhrwkSZIkdVAy5CVJkiSpg5IhL0mSJEkdlAx5SZIkSeqgZMhLkiRJUgclQ16SJEmSOigZ8pIkSZLUQcmQlyRJkqQOSj/VBTgWQggURSE3NxfDMOjcuTNOp/NUF0uSJEmS2pR2WZMXQmBZFp9//jlvv/02Bw4cwLKsU10sSZIkSWpT2l3I19fiy8vL2bRpE6tWrSI/P1+GvCRJkiT9TLsLeagL+i1btvDTTz+xfft2du3ahd/vP9XFkiRJkqQ2pV2GfCAQID09nYKCAgoLC/npp5+orq4+1cWSJEmSpDal3YW8EIIDBw6wfv16ysrKME2TVatWUVZWJpvsJUmSJOkQ7Srk6wfcZWdnk52dTTAYRFEUtm/fTkZGBsFg8FQXUZIkSZLajHYV8gA+n4/09HRyc3MJBoMIIaiuruaLL76goqICIcSpLqIkSZIktQntLuSrqqrYu3cvlZWVoUAXQvDNN9+Qn5+PaZqnuISSJEmS1Da0q5BXFIXs7GzS09OprKxs8LOioiJWrFiB1+s9RaWTJEmSpLalXYW8aZrs2rWLrKysBv3viqLg9/tZs2YNHo9HDsCTJEmSJNpZyHs8HjZt2kRJSQlhYWHoet2qvA6HA13XSU9PJysrC8MwTnFJJUmSJOnUa1chv3v3bnbs2EFycjITJkwgLi4ORVEYNmwYgwYNori4mPT0dPx+vxyAJ0mSJJ322s0DaoLBIGvXrsXv93PDDTfgcDjIysqiqKiIs88+m759+/LRRx+Rnp5ObW0tLpcrVNOXJEmSpNNRu6nJV1dXEwgEuOCCC7jyyitJSkpCURQAXC4XF1xwAXfccQeKolBcXCxr8pIkSdJpr91UdU3T5KyzziIpKYmkpCTWr18f+pkQAofDwdSpU3G73QBomhZ6mI0kSZIknY7aTchHRUURGRmJrutHrKW7XC7Gjx+P3++X4S5JUjsiaK7tUUF+p0lHr92EvM1mA+pq7U01xTudTpxO58kqliRJpz3BoV9J9XGtoFBX1ziecD64Y6HU7VeRYS8dnXYT8pIkSW2RYRkYVhBBXQXEFCYgUACf4cUSFhYWYbYIIuzRCESDoBZCUB30UFi9H9MyQAFLWARMH0ErgKbqRDviiHYm4LKFYVcdqEq7GU4lnWIy5CVJko7DrrIt7CrbiikMAqaP6qAHS9Qtr+0L1iIQ+E0fIztNZkqPSzGF2SDkDStIVkUmX+/9kJpgJQoKlrAIWgEMK4Cq6kTaY4h1JXJGfBpDE8cR6Yg5VW9XamdkyEuSJB0FgYUpTEzLRAiLzLLN/JA1H59RgymC+E3fwdq6CkKgKCo+o5YoRwyju5yN16xBPWRik2EFKajNYVf5FmoCHlRFPdhIf7Dhv/4/ioKCQu/ogTh1J5qqo6KHmvD9po/M0s24dDedwrrhtkeiKmrohkIORD49yZCXJEk6gv82v4OqqPjMWrzBKoJmoK55HkHA9COwEFjoqh1dtePU3UTaY1EVDZtqQ9cddArvSXXAg9/yodYHLyCERYwjgVFdzkYREG6LPKRfHwKmn6LaPPZX7cVtC8dvein1FqIoCrqio2t2bKqTotpcPst4naDlJ8wWSe/oMxiYMJIekQOIcsQevHkQB+8XZNifLmTIS5Ik/YxAYFpBDlTnsKlwOZqiM6LTBAQCwwoghEX9gLq+MYOIccahKToOzYmiKGiKjk2zAwqqoqAqOg7dhd/ygai7JThUrCuBCcnno6KiKXqoFKBgCRO/6aUqUEn4wdp5wPQBggAKiqGiKTZ2lGwiv3oftcFqLGGyryKddQU/kOjuxsC4EfSNSaVLZG8ibNFoaDLoTxMy5CVJkg5RF+QGuZW7+XrvPLYVr8GlhyGwGBSfhqooHDpiPtaZQIwzHkVR6/40sse6TFeOODNIUzTC9IjQ8Q+lAE7dRaQj9mdbKaGWACECxDoTGJd8ASW1Byj25lPpK6O4Jp+i6v1kezKId3Wid0wqozqfQ//Ywdg0hxypfxqQIS9JknRQXcAH2Vn6E4t2/pO9nnQCpp9oRzwuWxiNVX4bBLtoar570zPhj7RlS9buFAgS3J2JdJyDYQUIWAGKqnPJq85iT3k6OZW7qfKXUVybj67a6RszCFtdQ4HUwcmQlyRJOsi0DDJLN/NpxmvsLU9HU230iU5lSvdL6BbVt03XfHXVhqbqobVEYh0JpMQNZVjiBLIqM/ipcCWGFWRA3HBsqu1UF1c6SWTIS5IkAZYw2VGynoU7/8me8m2oikbfmFQmdb+E5Ije7WJuet0CPEqohq6hkxjWhTh3Er2izsBrVJPk7kqlv5RIRxy6IsO+o5MhL0nSaU8gWFfwI59t/wcHanJQFZ0z4kczuftFJIZ1bRcB3xRV0Yh3JyFEIgILr1GDrjqIsEfLAXgdnAx5SZJOa0JYbCxczv9uepaaoAdV0RneaRIX9bsRvYOMQlcO/rf+vZhWEJ9RhcvmxqY4TmXRpBOsfd+eSpIkHTeFaEcc8e4u2DQHwzpN5JyeV2BT9A47MM1CELACdVPxhGjB43Gk9krW5CVJOo0JQJAU1pXL+t9EevEGhiWNJ9IeBXTch8Eo1K2EFzD9aIoXXbWhy8F4HZIMeUmSTkv1tdfqYCUV/mISXF2Y0qPrwZ+e/HA/mtr08dx8CATeYBW7y7axv2ofSeHJjO4yla4RvTrsTc3pTIa8JEmnJSEEtcEqKvxFWJaFoqhYwjrpffBCWAQtP9Yhq+g1R1N1dNV2TKGsoBC0guyu2MbK/V8xMG4k/WOH0zWi11HvS2r7ZMhLknTaMC0Dn+nFrjrwGbVU+EsOhmudUzGKvjJQwZbC1VT6yw6uptc0BZWe0QPoFT0Ah+46pmPqqk64PQqn7iJo+fEa1ce0H6ntkyEvSdJpwRQGeyq2sSbvO4YmjSPKEUfL1pM7cYQQVAU8bCxaRkFVFpqqNV0iAaqqgQLJkb2x4zy22ryi4dTcaIqNoBUgaPoRwkJRtGN+L1LbJENekqQO7r9r0c/PeJOtxWvILN3MZf1/Q5wrEfVUBpsCQuHg8+wshFCb75sXdWvgH8/tiYqKrtrRFA3DMvAaXgzLwK7JkO9o5BQ6SZI6rNDDZqr28Pnud9lZtgmbquPU3QfD9PQcaKYqCnbNgabZsISJIYJYWHIqXQckQ16SpA5JILCEyYGaHBZnLWBb0RoMy6BX9EAmdb+IOFdSu1/J7tgpqKqGgophBfEFazCt4KkulHQCnK5XuCRJHZwQFkU1+Xy79yPW5H2Dz6yhV/RAzup+WbtZi/5E0RQNl+bGptbV5E1hYh3hMbhS+yb75CVJ6nAEFmW+Ylbs/5INBYvxmbUkR/ZhUveL6RbVD/U0r98oiortYJ+83zIIWH4sYZ7qYkkngAx5SZI6nKAZZHvxOtblf0+lv5zO4T0Z3Xkq3SL7oqCerl3xDdg0O+H2KDTFhkN1ylPSQcmQlySpw/EZteyt2EFRbR7h9hhGdT6b/nFDcWjyYSxQtx5ArCuJMV3PRVNspMQOxam7ZdB3QDLkJUmqW8H9YJds/Xos7fkLX1N1ukb0pF/MEOLcSZwRPwK3Ht7GR4+39IwrrfLhRNijGJo0DqceRrQjHrvmPP6dSm2ODHlJkggYFlV+C00Fh65i1xS0g2nfHp+06tLdjOg0icSwrliWSZgtos0GvCIOZrZy8E+TxWydgK8nhMCwghhWEJvmkGvXd0Ay5CXpNCSEaLCgSl5lgCV7qrEExIXp9IpxkBLvwGVTEaL9Bb2qqLhtESSFJRMwfYg2PHJcURQ01Y5NddQtzNNMWTVVQ1X0VotjS5gYVkCueNdByZCXpNOMZVkYhoFhGFhCYFmwt9jHiqxqyrwmTptKUpjOyK5hjO0RRnKUHYeutKugF9StU29YRtsOeOqazUd3OovqoAe1megW1I2MT47ojb2Vat5CWBhWEEtYp3b1P+mEkCEvSacRIQSGEcTn82OadVOmgqbA7w8SZYfaAFT5TEpqDHI8QTJKfJzZLYyhnV10jbKhq+0j6YUQmMKAQx4+0zYphNuiGN5p3FHdjKiqjtZKgSyEwBAmFm39XEnHQoa8dNprzeZocXBnbSkKhYCagEleZRANi3iHgWUYoZ+rCvSL1Ymwuyj1WuR6DDYXBdlfZbJhfy25ngCb8mo5q08Ew7u6iHC0/dqeEBamZbTZfvhDqYqKpjrqFrFvsdZ7ZwKBz6ihqMaPyxZOlD0GXbW10t6lU02GvHRaq688BU2BKQQ2VUFrpLZqCkFJjUFRtQECol0aLpuKTVXQNQVdBV1VUNW2FfAAloD9niAfbymnrCbI2GQbE7vbcGkqgrqQj3OrxDpVgkIwNMnG6K4OluUEWJvv50BlkLIag6wKPzmeSK4aEoNDa2vv8ucEQlin+iFzLVZ3HZ78wgqg1FvI5sIV5FXtYXDCWKb0uJRoZ7wchNdByJCXTktCCCwU/EGLzBIfm/Jqsakq5/aLIClCDzWd1t8E+A2LNTk1fL2zkmq/FQr2SIdGlLPuT6RDIynSRucIG/3jHThtja+qVv9VfrK+Qn2GRWaxj58KvPiCFj2iVCzLDodUyBVAUcGBgkNTiHKqJIVrnJGgsyTLx84yg9IaA4cqUNvwg10EgryqPeRW7kVgEe2Iw2ULO+1XuDsSBTCtIEU1uWwvWYdDczKy0ySinfGnumhSK5EhL512hADDgoLqAKuza/hxbzX5lUGSo3SGJ2lE6TqmBXW1wbpt/IbAU+2juDpIaa2JcXDak64erMVrKroKDk2lb7yD+8YnHBys1kgYikP/Jxp/TSu+19Iag835Xip9Jt2jdFITdVw2pcl6owJEORRGdrbRNUJj44EA5X6L4QkqZjCArjpOaLmPVdD0s7VoLd9nfUqYPYqJ3S6iZ1QKiqrImmmjFGyaA7ctHE3R8Ro11Bo1CHFir0vp5JEhL50WvIYIhWvQEGw6UMt3uyvJLPZT5TMRQLgusIwggYAIPayjPgiFKegbrXJ+HyelXgufIQiY4A1a1AQFlX6Bx29SUmvSJVxFBL34/DY0VUPTNFRVRVEUgqagsCoIikJihI5NPRi2J2iammEJssr9/FRQi0NTGBCr0y/GhqrUNeM3d0i7ppAcoRHrchI0BVEOgc/nw7IsXC5XmwsCn+GlwldMua8IC4FpGc1vdFoT2FU7blsEds2JN1hDha/k4Lx5u7wx6gBkyEsdWv2gunmbythb5kcoYJh1wefx1/XZRjgUJnZzMLmHg6RwFdM6fJSxpkJKnEbfWI36FUuCFvgMgTcoqA4IqgIWhV5BnEMFy8BbaxycA62haAqaplPug4+3VrKvPEC3aBupSS7OSHKRGKZj01U05b8Lo7TG12ul32RroZcKn0nnMJ2+sTrRTgWzBQFfT1UhzKYgbErdzYFl4ff7Adpc0AdMPz6jFkuY2FW7DKoW0DU7YbYI7JoDn1FLVaAiFPJS+ydDXurQhBCYpkFBpZ/VudWYQgktLObUFXrH6pzb08GwTnbC7CpNDX5SFKWuG1sBgYJTBadNIdpZ94910S8wLagflyaEwDANhAlCGORVmOworGVPRZCMYh+rsmuJdWl0i7bTP8FJ71g7XSJtxLl1XDb1uGr3phAUVAXZcsCHXVXoHK7SI0qnBcuqNfLeG94UCCHw+/0oioLT6axrFVBAPaWBL/CbtdQa1ZjCxKG5cGhOVEWVQd8Em2onzB6FQ3cdrMkXY1gBIOxUF01qBTLkpXavseZugcAwDPy+AJYZpHeUQm60LVSDTQjTGJJkY0iSjViniqaG9tS0n6/rLv77F+vgv2uNjPGqvwGIsAuGJNlQFNhfaVIdsKj0m+R6AqzPqyXCoZIUrtMvzsnkPhH0i7dj1w5fIqUlTfx+Q7Cn1E9BdRC3TaFntE5CmIohRKsMQxNC4PP5OVBl8lORwaAkJ/3inads0RwBeI0aqgIVmJaBU3fh0Byt+tx4BQVFaW7Jmoas+pH+bZSqqLj1cJxaGNX+CnxGLYbs5ugwZMhL7VpopPqhAS/q+o39fj/Wwab3s3s5mNLDEXq9qtTVtlszkJrblapAUpjGNYPcXDlAcKDKYtX+AJsKAxTUmHiDFtUBk+Iag9qARWonJ31j7aAevvP6Jv36B8s01sTvDVjsKgngDQgS3ArdIlWcWt1a6a1RsRXA9iI/szeUUh2EaSmRdI2qbxE5+RTAMAP4jVoURSXMFolNbd2nzvlNH16jGusoQtupu3DqYW22NUFBwaWH4dLdmMKgOlCJ16ghRsS3v/WMpcPIkJfanUOnFActQYXPZEu+l2iXSv84G4rpJxAINthGU0BrI2u4qAo4dIVesRr94l380nCxtzzI9mKDPeUm2R6DeKdChBogGFDA0uvWK1dVVFXFPDjvvTZgEefWCLNrOGx1D5SpD3xDCAprgmSV+wFBvFune5SOrimNLo1eP09bOXinUN/yUDc478hL2tavgFcVNNmUX8u47m6Gdz01zbyGZVAdrMRnetEVHZce1qqLuhiWwU+FK/i/Pe9RHfA0G/QKCqYwObvXFVzQ+xp0te32cTs0Fw7ViSlMvEY1fsOLQKC04emSUsvIkJfaDUvUP1gFaoMWeZVBdhT52ZhXQ3qBj+Soulpyv1iNNr9WC3XBGjTrQj8lzkZKnI2agKCk1kJVIN4NQX8AIxBEUeqm46maRkCo/HtbFevyvUQ7NbpF2ekZY6d7jJ3EMJ1Yt45NU1BRiHdrVEZo9InRiXdpRwh4cXBRHIXq2gCV1T4My8LtsBEV4Tp4Y9D4lKpe0RqXpLh4d2sNB6oMfthbTUqC66TX5gUCwzKoDdYQMPxoqo7T5kZTW/fOTlN1nLortNZ7U+pD3qba23SNWEEh3B5BlOv/s/feUXZc953n51Z4OXTO6IBGBhqJRGSQCDCTEoMojYKtaO/Z4Nn9w5r1Oevx2bX3zB77rOU9s16NRjZnJNmUTVMiKY/E6m8tZgAAIABJREFUnJAIgkhEjt3oRqPROb7uF6vq3v2jupsAiNAAOoL14UEgut5799Wrd7/1y4WETTc2Pxc6BXpMDE/kPWY9ClfgbakYzjg09mbZ15bkk440XSMWjuNuSV0jigtDNtUxjZB5c5uq6/Z2J7ONuVWFYFoyxwWu4CsgaArmxfXxf+eSdQHYjkNPSnK6N01fyqYnadHY52a6GzpURH1UxUwq4z4WFPp4bnmU4ZRBUL/6OVHKtdY7uhPsOnCOjz9pprVjgJwtKYgFWVpfyhc2LmJDQzVKU5cl1gnA0AXrKn3sbMtxutfidE+Wk10Z7poXuuw9TAeOssnYKSyZxRAmQT2MISa7Pau67L+JHD3+4c5anVcEjCBrSu9jaeHd1MaXUBGp9YbV3CF4Iu8xq1G4LWc7hy0OdaTZ3TLCmd4MQxmJqQkCBoT8gnlRg/uq/awqNQkYE99NlVJkczaZrIVlOTiOm81mGBqmoRPwG/hMY1oMsYm+hN8QfGGejyK/RuOgTXa0Ja+joHUgy5neNJYDZVGDR+cHeWpRAFMXOFeY8QqwbMknx9v46Ysf8sH2EwwPpVC6NtYKjdc1jV+88jHffHo9P/jKBkqLo+ja5VZ6QBdsqvRzrt+me8QdarOmMoQ2zaF5TWjkBQqpiy9lINtD2BdDm2RL/k7E9eKYzIvV4zdCxPwF+PXgTC/LY5LwRN5jViOl2zzmxUMD7GgeJm25LWULAholYY3auMHyEpNFhQYFAW28ycuEn7tvmI8OtrBjbyOnmrro601gGDpVVYUsW1jGvevqWbO0ksK80KyoBxdA3CfYWufn3mo/iZzi4pBD85DDxWGLwbSiPyMZzil8miBkAsIt67ty+UopDh5r4z/+7AN27jlLxrIh4Pv0ZsMAUPR0DvGf/v49Gpu6+Pf/9hEW1pZcth5NuA1z8gMag1lJ94hFImuTFzCmzXoVCAJGiDWl91EbX8xgthdd6JM2qe3OR+EoieVkcaQFeoBZ7HrwuAk8kfeYUS41Lq8UISkljiPRlE1Ql/h03ASymMHyYoOFBQYlYY2g4Yr7mFt/IkipOHWui7//5928s/Mk3T3DOEqhKYkSgrPne/hwbyPv7jzJ04+s4rnH1lBTkY82S0atCiEIGhAyBSUhjVVlJlnHNy7yHcMOKUuxuNDAEJ9tYSsEdHQleOm3+9n18VkyljOa0PhZa18YGraCd3ecZF55Pn/6bx8h6P/UDa4Ldx15AY2+jMNg2iGRkaP9A6YPgUDXDPxGgJATxlHO9C5gjjPW6UEqZzQHY6ZX5DEZeCLvMe0o5YqxIxVZR5LMSRIZh8q4SdBwk7yklFiWhWVZ6LbN6hKdgAiyuMhkQaHhloKJTzXpZtKElFL0DaX48T/u5Ncvf4xj6O6UTwHykprqrGVz5mwnP+kcZCSV5b//5r2UFcVmzeY3Vj4HbvJe0NAIRaEiprOixESOFu5f7dxIqdh3tJXdnzSTylrXTQwbCylnLJtX3jzMN59Zx/IFpeOvLQQEdIj4BFJCMidJ23I0O3v6T5a7Xi9x7FaQo7PlvfN35+CJvMeUM1byJoGcI0nnFINpm56kTetgjrN9WVr6s/zhugKWFRlIx8ZxnNEad4WpC5YWGawoNtA0RofHfMbonNhaRjPJd+1r4v3tJ5C+q2ecjyE1QWI4w2vvHKW+pphnH1lFJDh7S6EuLS+83s2I7Sja2gfo7huZeOa3EHT3DvHhgWZWLirHsuVociKYumvNG7og6ygy1kw1f1HMmfmysxCFQkoHR9oITZvURkIeM4Mn8h5TTs5WDGcd+lKuqLcNWbQO5LiQyNGbtBnOSkwNGruS1IXdmPCnuiPG/1/xqcDfKlIqDEPnw/1NDAynURNp8aoLOroG2bP/HJtW17KgpmhWxOdvB8eROPbNz1tXCE40daFpGuAw9vmETI0lhSYIjYp4gFhAnxErXiqFVNKzRG8RW1r0p7vpTXVQGCyjIFjiZdnPcTyR95hSUpbkWGeaT9pTNPdnaRuyGMo42KNiHTYF8/PcOHtpaExwp3L0qutE7mjrR9oSNcEYu+VIWtsH6Oodpq6qEF2/doOYuYDfp1NYECEc9jM0nL6JU65Gs+svF9GQKdhU5WP9PINYJEQ0MD0VCVeuTSGRyPGSQ4+JotCEzkCmhyNdH3F+6Awbqx7mnqrHCJnRmV6cx23gibzHlKGUIpG22d6UYHtzkrQlCfs0Yj43SasgqFOXp7Ok0KQiqhP2Tf2Ak0+duTcnAgoYTmUZSeeQSqHP7sLnGyKEYEFdMQuqC+nqHsSZ4Onw+QwaFpUhr8hw1ASEfQKfTycSMmfkBijn5OhJXaR9pAVNaMT9BW4jmklmoleOmnOhA0HGTnFu8AQn+w5QECplZckmT+TnOJ7Ie9wyUkHWlmRtRcin4RttmaqUHI+p69KiwA9VUZ2gaVAe0amM6syLG5SHNWJ+gd9w434KdUtx9ptBEwKBorSiAN3Qxrvo3QihIGAa+KepZn6qEQKW1ZeyZfMizp3vpb1naDzB7qrH4+ZALFtQxr131eHIz3bAc8MqM+XhUCStBPvbt3GweyfV8YWsK/sief7CSXPdCyGI+vKpiS0mYyeR3LjjnZSSwmDppIV3ktbwaEtdN1QyEaK+PCK+2A2OEkglCRph8gJFBIwQ3ck2hrL9lIarJvxaHrMPT+Q9boi64i+WVAykbJoHcjT1ZZEKNlWHqM0zsG03aW5M5DWpWFOqUxUNEvdrFIQ0Yj4NU2d85KscTYabjm1E09yNd9Pd9bz+zhH6hjM3lAC3NEtRURqjpDCCoWtzPiavFEQjAZ7Y2kBXf5JX3/iE7t5h94fi0jwFMV4OUVoW57tf20RNZf41b4xm6qy4LYKzdCZbaR48QdAMY0nrxg+8CTShURGt4wFf3C0zu8Hxn04ezEPj9uPaQgguJJo42r2HtD0ykQeAgrvK7mdFyYYbTsJTSAJGiHigCJ8eoCd1kZ5kO3V5S6fEI+IxPXgi73Fd1Gg72ZzjZsR3DNu0DmY505PlXH+O9mGLuF8jrDsUGH7EaI3tGAKoyTOoybu6AFwiJdOCEAIlFZvX1nL/xkW89s5hcoC6pBzv8uMBpSgujLC2oZry0vicF/gxBFBXVcjvP7OegM/g7e0naLvYTyZjjbvvDQGBsJ95lYV85ck1fHlrA8ZsmfRzLabIHSQQhM0oYfNGVvHVuL01jZUjDmR6aBw4ynBu4IaPEaPjZerylo7//UYYmkmev5CgEWE4N0B36iIZO4Xp80R+ruKJvMdVUbiZ6G1DlpsRn8hxYTBH66BF17DFQNpB1yBsauT5BdK2yeS0q7aUnW2SqGmCsoIo3//6ZtLpLB8dbGYo6fZ/Z8zdPOrG14WgqCDMow808OC9S8iLTHOHlylGCFhYW8T3vrqR5YsrOHy0ldaLffQl0mhASX6EeVWFrFtTy+Y1tUSv8/41TUx5TsVEcVcxVbGfmYuzq8v+NpFzfZ0YzBUIBJrQifnzCZphBjM99Ke7yNgpor68W1qvx8zjifznHKWuXiatlCLrKF4/PcTRjjQDaYdE1iFrK6I+jfp8g4qITm2eQVVMpyKqY86SbnATQdc11iyv4n/5w60sfO8YO/c30dLWT2IwicrZYOjE8sMsmV/KA5sX8dgXl7OgpmjWdLybTDQhqCyN89gXlrJhdQ39A0mGRjJoQpAXC5IfD1FUEMbUtKvqhcItk0zkFD6/pFBzCPl0jBkssbYdC0d6He9uFk1oRMw4ETOGQtKf6SZlDSORaHg183MRT+Q/x1zLq6mUwnEkODYDIzka+7MoBRURgwUFBvV5OtVxg6Kg5mZUGwJduBnWcwYBPlNn1dJKqsrz2HrfEo6d7aSjfYBcKovhNymvLGDVkgoW1ZaQFw9i6Hf2Juf3GZQXxSgrjOKMtsvTtdFJfFdpjTuGI6F9xOHtpiy2yLKpRnFPbQRdm95KeTX+pyLrZLClxUxa3XOVoBkm6stHEwaDmV4S2QEcaaN5cfk5iSfyn0MUkMpJepM2tlSUx0wC+mgjEcfBth1sx0Y6klUlOkL5KYsaVEd1KmM6eQENnw4abhe7a3kDZjtCCAxdo6w4RllRjLUr5pHN2UhHITSB32cQ9Bto1xG4OwlxyW/jNzTixkKtFCSyiqPdOUZsKIn62FwTmd7xqgIMzcCn+xFoo/3XZ6rr3tzGzbAvxNRMhrK9DGR6sKWFqZnMvuCbx43wRP4O5sqkNlsqepM2zf1ZGvuzNPVlEQqeXhplfr6Okg5KSqT8tJlIQ4lJfb5B1CfwGwJNjGUNM15ANBcFfgwx1koPCAV8hC9pWavUp21wP0+IT9X+pnA7EipSliTnSILm9CXouQNVNEzdRBOQtVNYKnf5gAOPCeHT/ZSEKqmKLSBsRon58732tnMYT+TvYMZqm1OWpHUwx8GLKY51pekasRnOOozkJFLB4nyNEr8P/1X25IhPEPFdvuHfqVumUlNfp38nIgQETUHMr9GfsekctuhJ2qOtbacXqRSWtBnJDZFzMtP86ncOtXlLKAyVEfPnUxWtx9T8eFb83MQT+TuUnKPoHLY51Z3hk/Ykp3sy9KcdMrbCkQpDExQGtNHY+liBjfcl9rh5dAExn0ZJWOPcIPSnbPrTNvX4mK5rSiAwNR/l0VoWF64hYATcUjfvpu2WCJtRQmaEsBklYIQ9S34O44n8HOLS0aIw1mHs6scOph3eOjPE+03DJLIOOVvh0wXFIY3qmEF9vk5t3M2Mj/kFpu4JvMetIYQ7g6A84lZYpC1Fz4hFzlH4jWlKvhMQNCPcXfZF6mKLyTppAkbIG1RzGwgEtnJwpIWhmTMycMjj9vFEfhYyNg/7Stexpl1Sww1kHYlfF5c1Z5GjMXVpZ3Fsm0TGIWgIlhcZLCowWVRoUBrWCZkCny4wNM9+97h9TANKwjo+3W113J8au7GcnpwNgcAQBnn+Qvy6n8FsH5aTnfoXnmbctsEaQtx4yt9YuO52Tr8jLWxp4VMS4U2jm5N4Ij9LGe0kOv53WymGkw7dyRznByxaBrIMZyXfWVtIWczAsW0syxpvKSssybJCQWhZkHkxnbq4Sdgvxr/02jSL+1gi353SLc7jckxNkB/UMEfnyfenHXKOcj/3afzMhdDQNfOOdS8r5WDLHDkne8Pv71gQzu1zf2s40iEncwRv927BY8bwRH4WMbYftgxk2XshSXvCImsr+lIOwzmHtCXJWpKkJUlaioAhWF9uEhUmtjOWEe+KqanD0kKTpYUGxujgGGBav6hjgu44inTW7SMe9Jvoo+VZ3jjQO4exKXSGJkhakpGcxJJqRiovdGGg32FW55jVvqhgNfn+4tEeADd+FCjKotW3UU6osJwMUjlo3Nh74DH78ER+mrma1iqlkFLiOBJNQNtAhrfPDNOWsJBK4Sg3a1jD7U6mCfDrgrAhGErlcByBlJ81mFwtFcgZuAkXQjCYSLH3SCv7jlzgQnsfUkFRfpiGJZVs3bSIksKwl81+hyCAoCbI9wsGM24pnS3d63W6+yjowkATxni/9zsFpRSFwVIKA6XcVEah4JZzE5RSDGR6OdV3CEMzWFG80R24c4d6Su5EPJGfRpSCjC3pHrEJmBrFIQ3LsrAsC9u2kaNZ735pEdAUft11Pxoa6EIR92ssLTQpDuksLzEpCgn8+qiIX2cvm/YyJqk4fPoif/P8++z86AzpdA5nzF2PO3O8pDTOn/7Rozy9dQW6rs/pWnsPl7yA4JH5AYZyGgtLQxQEdbdmY5o/W4VCFwaGMEenxd05d5Li8t+m/NUSuX7ebfk1J3oPEjFjhI0Yy4rvxqffWTMc7mQ8kZ8mHAlDWYcPGhO8eTrBqnIfTy0MEDYu34AcpaiIaXx7ZRhDQNQvCJiC/KA7/MOR7iYm5bXv5V09/dRnMF2brFJu4t/HR87z//z9+3y4r4msPRoPFJ+ODMlYDq2tffyv/8ev6Oga4g++tgn/aGc5j6ljqq+LmF/jgbogps8kEAggtOm39hQKW+YYsYboSXcQ0IMEzRDC67t+CygivhiFgVIMoTGQ6eJ47z5q85Zgaj6EZ83PCTyRnwZsx53m9sbpBNubh+lPOQgkS/IFq0t9l/V8V8otR1pc5LobxzLpc/bYuElAXGNsq7zEZhk/QKHkWFbu1L1HAF0XtHUmePn1Q+w91ELOvk7CjyZIZCx+/PNtFOSH+c7T68jZjif0U8BY5z5gfDy8GKveEK53ZTJOu8LtqigchVRMwgT1W1mE4lj3Ht5p+TWD2X42VT7MksLVo+1uvWvrZjGEyZLCtZzsPUDSGuZ47z7WlN9PxJ+H4d04zQk8kZ9CFGA5kvMDOV45Nsi2cyMopSgL62ys9FEbN6461MXNiFWXbUniGsI+frwjyeRs2rsTNF/sZ2g4Qyzip7Yin6qyPAI+Y7QEb+o2OseRHD11kb0HzpFMZlE3mlgjBL19w/zXf9nNY/cvozAv6MXoJxmlwHYcBhJpzrT00No+QCKRJhYNsLC2hIW1RURDfjRNm6SbQDf5c6aSKoUQ5JRFT+oiPakOupIXqM9bhk/ze9nht4BCURyqYEXJRvoyXVxINLKn7W3mReu98bNzBE/kpwilwHIU5wcsfnV0kJ0tIwigNKLzWH2AL9T48RvimqJ2M/tRNmvR2NrLS699wrbdZ7jYPcRIOkc4YFJREue+9Qt4+uGVLF9YRijgm5JxqUIIkukcjRf66BpITigQq5RCaBrHTrXz3p6z/P6X15LKWJ41P0lIpUiMZNh7pJV/fPlj9h9pZaA/iZ3OYgR9lJbmce/6BXzt8TWsWV5JJOS/A0bpCkpD8ygMltE5coH+VCeWzKKJ2Ghsfq6/v+lFoTB0kxUl6zk3eJymgWNsP/8qq0o3s7JkE6Y3mW7W44n8FGE5iqa+LK8cG+TD864FXxU3eHR+gA2VPnz6tQX+ZhhJZXln12n+v599wLHTHTiWDZpACcFQJkeif4Smpi527z/HN55exzMPNVBaFL39F74CAdiOZCCRIZWxQExsQ9U0DWdghLaLfSB0UJa3D08CUil6+0d48bcHeP7F3XR0DKKkcksugia2kly82Mev/tsAR09e4DvPbeTLDzZQVBC57dM/06WRJaFyikMVIKAn3UnKTpJP8Yyuaa4iEEjpUBgoZU3ZffSlu+lJXuB3Z39BQaCEmvgitDusXPFOwwuqTAFjAv/S4QF2nR9BoZifZ/DUogCbqnyEzMlRMaXg4PGL/PgX21yBV8ptPeYOAXc73pg6llKcPNvB8/+8i9e2nSCRzE56fN59aZ3CvCDhoHmTPcPHFuP56ieLXM5hx75z/MOvP6ajc9ANnZg6Sox1VBRgaEjgdGMX/+WfP+SdXacYSd5+lzi3JFSNN3OabkJmlMpoPREzTiLbT2+qA0faeHePt4YQbkOd+rxlLMpfSdCIcG7gONtb/xvD2cE7qnrhTsQT+UlGKkhaku3Nw+y9mASgJqbz5MIAmyr9BIzJ2WgEYFkOb+84yZGTF3FGR6JeOUlNjSbuOUrR0trLP7y8h/1HW3EmeQdWKEIBk6XzS5hXEnOTuSbyOCXxR4OUlMaRM6UKdxhKQTZn88pbhzh/sR8pxPi1ceVxY9dG47lu/vFXH3P8TMdtfQ62VHQnbU50Z2gdzGHPwGcqhEZltI6iYClpa5i2RCMZJz3t67hzEO7324zSULKR4nAFEsnZ/sMMZvtm3HPjcX08kZ8CdAGlEYO6fIPauM4j9QHWlvsn1XoWQpBIZvhgz1mknNi9tBKC42c6+PiTFhLDmUm1a5QCXdNYUl/GXavriMcCbrLg9er3BQipWLp8HvfdNR/btr16+UlAoegfSnHiVDtK3rjTmQKkrnHgaCsHj14gnbFu6XMQwEBG8frZNH/7US+vHhugL2nPiJ1XEamlPDofhaI1cZbBTK9ncd4GYvS/qmgd6yq2UhGpZUXxRvICRV6r6lmOF5OfZLTRiVxfqPZTZAYZySlWlJj4JjtsJSCXs2nrHETdhFxLR9J8oY/+oRT58eCkeciFAEdKSgojPLFlORfaB9m9v5FkOjfuJf2085lr5QulqKwo4FvPrKOmPB/Hkd6GcZuo0VGFPf0jpNO5CT9OCJA5i+bWHoZGMoRDt55QNZxVXBiyESLLyZ4shWEDY5oT+sK+OFXR+cT8BfSlOulOtlEarsLQzGldx52GoZmsLN5AzJdPVXQ+ujC80sRZjmfJTwG2baMpi6VFJneVT14M/jIUCE3g9xs3F2pUkM5aWLZkKmKUhq6zZvk8vvPVjTx4zxKKCyIYCMRYa10FQkp0JamvKeJ7/2YzTz+00s209wR+khCEAgaark34Jk4pQNdIpHNkrVu3vuN+wdIig7yARvuwxYG2FH0pZ1ptaIXCp/soi1QT8xeQtEboSXWQczLTuIo7E/fcBqjPX07IjJBxkuM/8ZideJb8JONIh2w2i3QchHBd91MhXVJBMGCyrL6UXb0J1E0IZNBvYho6U/HFFAKiYT8Pbl5IdUUey7efYP/BZjp6h8nk3HMSC/moKo3x0JYGHvvCMiIhH0Lg1chPAmOXQXlxnHmV+fT0Dk/8sQrKCiKEg75bumYV7jS62rhOTVzncJfFmd4MjX0ZCoNhDH16buIEAk3oVEbqWF60jpJwFWWRGoTQ77h+9jOFNmofZu00jrLRhO6d1VmKJ/KTiJSKbCaLZbkToqb2oleEAz7uX1/PoaOtjKRzN5ZsBaGgj4W1xeTHp7bxjKFrLFtQRnVFPg/fv5S2zkGSKQtNg4K8MAtriigpiGAaOvKKZEGP20S4N4Bb713K2XPdJG6QMS8EICXFRVGWLaogFrn1vuRCQFFIY3GhSdOATX/K5kxPhmUlQfKD01dqJRCUhCt5sO6rSCWxZQ6F9AR+knC9bgpHWSRzCSK+PM8TN0vxRH4SGBMo27bIZW+/BGmiGIbGQ/cuZe+h82zffRpbghTqqga6EG6+wF0ra7h3XT3x29jIJ4LCbbMbDvpYvqCMpfNLx38ihEDTNLfUylP3SUcg8Jk6j96/hGMnL/LuzpNYtuP2T7jidAshEMqtjHh4ywruXlWN37y9bSFoatTl6RQGNS4MO1wYtOhP2+QFp9fa8+kByiLVSOkwkOkmaQ977qJJRaCUYjg3AAiGsv0Uh8oJGKGZXpjHJXgx+dtgbHp7Y1+W3edHaO1PYznTu4ksrCvmB/9mMxvXzifkN9Bx3a4a7i8x+mfQZ7ByWRXfemYdK5dUTEtns0tv7DVNjP7SEEJ4ZTdTjGHoLK4r4Xtf28QXNi0iHgm418ZomqY2eo3oQH4kwJZ7lvDNp+6mpqLgtiscDA3KIjrlUZ2cDT1Jm94Re0ZKJAWgazoBI4QhPJtmshFCYyg7wFvNL/Krkz/h3ODJ0SoG7/s9W/Cu+ttAjSaT7WweZldLkvl5Ot9cHiQ/ODnd7G6EEIKAz+Deu+fj9xu8te0EB4+20t4+QCbrhgwMU6cgP8LyJRU8+sVl3L9+AeGg14ry80DAb7JpTS3hkI93dpzk4NFWLnYOkhl13wdCPspK81i7Yh6PfHEZK5dWYhi3f98vcKcnVkZ0AoZgOOuQyDg4MzK0xnUr+40gPjuAI20kcvQnnnv59nDzG4ZzA+xo/S0DmR7CvijVsQVEfPGZXpzHKJ7I3wZCQConOdWT4Vx/lpxtYOiTV5Y2UYIBdzOvrSqk6XwPFy8O0DswgsJNgisrzaN2XiG1lflzUuA/Lb3zuFmCAZO7Vsyjujyfrfcuobs3QSbl5m8Egj6KC6PUVOSTH/OTTo2gEcLnu/1rxBCCsKmhC7c5VNqWo96bmfggBYYw8etBsk7abe87R7gVj9f0xcYFSkny/UWUhioZyHRztPsjDhWtY3PVo2jeKNpZgSfyt8jYd69z2KI9YaNpgvKITsgQM+KoMg2dqrI4pYURsg3V2JYDKHRdwzQNfKaGPuoqnyu4k/gEmjY2q15Ny8jcqeLyDXv63oeha5QVRynKD2M5DmP9cTRNYBoapqHT19fHb37zGwoKCtiyZQvx+K1bYm41nqAsorOhyk9eyEddvh99BoffCKERMiO0j7Rwuv8Q9XnLiPjis96a1zX9pr6zbsdLNW2NfySSgBFmbfn9tA6fJZEd4MO211latJbCYNm0rMHj+ngifxso3B71XSMWuoD5eTqGxoz17NaEwDR1TENHhMYclYzP3porAi+AdM5mYDBF/2CKoZEUwYCPgrww+bEg0bB/zrwXcM+7kopsziaVsRGA36cTDJhoV0mGm6o1GIaGrmtX/Lv7M9u2OXz4MMePH6e5uZkvfelL1NfXo2m3Zo0ZAhYXGtTkmUTCAfLDMyvyjrQ5O3CMd5r/hTN9h8lWP8masvsxNXPWCn3SGqZj5DzDuUH3GrrhIxQRM05NbCGm7p+W9yUQOMqmJr6YmvhSTvbso3XoDCd697G56nF0b3jNjOOJ/G2QcxTn+rNYjiLm16jJm/laUe2KwfOCuTWWQ6Foau3jtx8c5/ipdjo6B0lnLXymTmFBhMX1Zdy3rp61K+YRC/tnernXZSzM0NGTYP+RVk6f66KrbwRNCPJjQebXFLFySSXz5xViTkIs/EbcyAviOA6NjY387Gc/48SJE3zjG99g48aNhMPhm25WJASEfYKYrhMMup6kmUQIjZydoX24mYFMD4e7P6I6voiycBWz8RuiUAxl+9nfuZ3WoTNoQptAiayiMlZPcaiCuOabthiXEIKQEWFl8UbOD54kaSU41rPXbXvr99rezjSeyN8yiuGspLk/i6kJ4n5BaUjnxp3CPa6FUvDxkVb+7//0NifOtjOczJGznHFPhGFo7D3YzK6PzvDsk2t57rE1FOaFZmXMXgF+U2f/iTb+379/j+NnOugfTJFz3CvEp2vEogHqa4t56pHVPPXQCiIh/8xkoI+ePCkljuPQ2dkdm4zgAAAgAElEQVTJ22+/zblz53juuef4xje+QUFBAVLeWtvh2bDJa0Jjfv4ylhbeTVeyjYuJJg51fcjj9d+85fc11djSYjg7yEC6C03TbxifVwqi/nyk/PQ7Mx2I0dBTfd4SqqLzOdl3kObBU1wcbiYvUOR1s5xhPJG/RRTQl7JpHshh6oL8oE5RSPfKcG8RKRXn2vr4m//8Drv3N2FdZeiOYzlkrTSJkxfpHUjiOJLff2Yd0fDU1vzfCpoQ7D/exr/7D69w/NRFcrZ0J/9dMlW3P5HiYvcQjS09tHUM8L2vbqQ4PzztOR1KKUzTJBgMouuumCSTSY4fP053dzctLS38wR/8AQsWLLjpzdr1HsyODT7ii7Ol5lnO9B/hfOIkn3TupCa+iOWF65A4s9Bt7wbbrjZB8NrHz1TxmhidUreJxoFj9Kc7Od6zlyVFa9HHi3k9ZgIv/fEWUMr91ZmwsBz3S1gR0QiZ0xNfvdOQUqLrGm9sO8G+Q83YN0gbspTiQscAr7xxiF0Hmt1GL7MIIQRd/SP8h//4OoePXyBjOThKXb7PCZBA1nJobR/glTc+4Y0PjrsDfaYZpRShUIiCggJM89MBLrZt09XVxUsvvcQPf/hDXn31VRKJxMSec/SXpmu3HNefbASCilgdj9Z/i4JAGSO5Qd5v+Q3d6fbxNq0et4NgYUED5dFaMnaatkQjw9mB8e54HjODd2XfAgqFLRUXBnOjAxgV8/MMdG32uY3nAkqBZdvs+OgMyYzFBKajIgU0nevm431NDAylZpWdoFDsPtjMgaOt2FdvQHgZjlJc6Bjkgz1nOXehb1rWeCVjXQivtLqllKRSKQ4cOMBf/uVf8qtf/QrHufFNlYbrzRCzrKJDExqrS+9hfflWgkaYzpEWdl14zRteMwkIIQiaETZUPMj6yoe4t/pJgsaYZ2r2XAOfNzyRv0UcBX0ph6GsTTIH1XkGM5g8PGdRSmEYOt19I3R1DTHxpAZBJmvRdL6Hju4EjppF08IVHD3ZxmAyO+E650zW4vS5Ls629MyYZ+JaYixH77q2bNnCpk2bbvg8OanoTkqStkbQ55tVIi8QRHxR7q/5MmWRWgzN5HTvQXrSHTO9tDsCQxisLbuPZxb/gOXFG/DrwVkYBvl84cXkbwFNCIKG4PfvKuALNT5a+zNURb14/K3hjp+beNzxUyQwmMwxnM4hpXJLtGbJfmJl7Zt6PwoYGs7QOzCC48jRKYEzj6ZpNDQ08Bd/8ResW7eOSCSCbV/nvSnoS0r+9Uya8wnJPbU2Dy+KUxo1ZstHAwrKwvO4q+wLNA0cAaAt0UxlZP4sjc3PPZRyyDpJImbUm/w3w3gif4sIAXkBDX+BTk3E7RDmafzNIwTYjqS4IEpBfgRF98QfqyDo0/GbhusankX7iC9goglxUwN4lJq5HguXIoQgEAiQy7n5AbquU1NTM/5v17PMLaU4N2hztMeiOykpjWXZKtWs2uKFEJiaycLClUR9BVTG6oj6YuCJ0aQgRgfXWE4OW1kYwrzxgzymDM9dfxsoKbEse6aXcUfgN3XuXluH39QnlKglBJiaorwwSnFBeFoG7kwcwbKF5URN46Zc1eGgSV4kMO2JamMlTpqmEQwGueeee/jxj3/Ms88+SygU4tixY/zud7+74XsRQCKrONpt0zUiKY0YbKgKUxKZfbaEEBqL81fzfz3wIv/d6v+dJUVrp61L3K0xm67vieFIm6zt5TrMNLPv2zeHkBPJEPO4Ibqu4TiSZx9dxQc7TnCisRN1nUl1QoBwJGWVBaxfN5+youg0r/j6CAFbNi9k0eJyPjnWiiOuP+FUAIauU1NVwPyaIkxz+l314XCY1atXU1lZyaOPPkplZSVlZWUcOXKEpqYmfvKTn3D//ffT0NBwzeveVtA8aPNJdw6fLlhQ6Gd5WQBDn50CZeo+ioKlpK0kvamL44NrZhtjDa1u5A8ZmzA4W862LS2yToqQGQG8gUAzhWfJ3wbeuNTJQwhYVFvMH/8PD7O0rhS/IdA14VbYik/br2pCYGgaZcUxnnpkFQ9sWkwwMLuG7iilyI8G+dP/+XEW1Jbg1zW3E+EVCEATbp/3eeVxtmxexMLaYpSUSCk/7UM++muqGGtr+9BDD/F7v/d7FBUVkc1mWb16NY8++ijRaJSOjg5efPFFksnkNd4zdI447DifpT/lUBw2WFcVpjI2uz6bK1EodM1A02ajvSPQhHZTv4TQZo3KKyQZO8VILoHlWDO9nM8ts/HKnvUoAKVwHNtLtpsk3N7qOg/dt4S8aJD/8tJuDhw4x8BIBksqJKAjCPl06mtL+NKjq3jqwZWUF0dn5c2WVHDfujr+z3/3FH/7s/c5fOwCqZztivfoMRoCU9eoLM/juS+t5akHG7AyI5zv7SQej483p9E0t9b80s5hk52xPvbcl/7p9/vZunUrH3zwAclkkjfffJPHH3/8qhn2KUvxSafFsR6LoKmxqNhPQ1kQQ5vd9pt7o6Vjaj4smZtVaw2ZUebnLSNixEbb2t64411RuByfFpjxigapHLpSFznbf4SQGWVV8T3U5S9FY3aVVH4e8ET+FrAdRdZ2SGcdkKB7/pBJQQCmrnHv3fNZsaSCnXub2HngHOcu9JPOWBTkBWlYVM4j9y1h2YJSDF1ntqY7CkA6kq2bFlBTmc8/vPox7719hKHhNBauhyIcMFi0uJJvfmUDD9+7GNPQ2LlzFy+88ALDw8PU1tayYMECFixYwPz584lEIuOC794UGfgmsUTt0ucZE/rVq1ezefNmzp49S2trK7/61a9YvXo1wWBw/FhHQvuIw772HClLUR41uasyRGnMmDVW5bUR6JqOT/eTtoZnTaMLgaAoWMoXa566fqznao+dBSNepZKcHzrDy6f+jopIHREzj+r4QjTNZA5cFHcUnsjfAucGshzrSOFXNgvzNUoimmfRTxJiNCM9PxbkmYdX8tB9S8hkXQvYMDRCARO/z8Cx5axvsqFpGhJYWFvEn/6Pj/CdZzZwtrWHrr4RfIZObWU+C2uLKSqIuDcFUrFo0SKKiop46623ePfdd/H5fOPd6MrLy6mqqqKuro558+ZRVVXFXXfdNSnz36+GEIJoNMrXvvY1PvjgAxobG3n33Xf5+te/zsaNG3FGY/M5R3Gk26Z50MZnaCwrDbC6IkTA0Gbxp3M5hmbiKAclJYY+e0IMGtrNBVUVsyKBUNcMCgIlFAVKcVSO3lQ7OSeDOYvO7ecFT+RvgaMdaf7p0AA68INVYUojPuRNDElxj3NTacZa5M4SA2JWIITAkQopHQI+naB/9DJV7ox5y5ZzRjwE4DgKn6mzsLaIuupC5GhJma67df3qkj79paWlbN26lYMHD3Lw4EEymQyZTIb+/n4aGxvRNA3TNIlGo3zjG9+goaFhykQe3OTSFStW8Oyzz/K3f/u3dHR08Hd/93c0NDQQCLjWvCWhfdgdoTsvz+SL9VFKI+ac+IwUipyT5cJwE039xzCEwdLiu2Z6WeMoJtAycRYiEBQEiqmKL6Cx/yjtIy0MZnuJ+OJe3fw0M/N+nTmGVNAykCNtuRtzxCcmnJOrFFiWQzJtMZLKkUznyOZspJKzMq48k4zPcVGuhSulGq85n2vbw9gNnDMm7poYnyOv5JXHClatWsU999xDXl4ewGXJd47j4DgO8+fP55lnniESiUzpteN2JDT4wQ9+QENDA0op3nnnHd54443RskVF0BQ8vCDEQwujPLQgxtqK0JwJYUnpMJTp45VTf8crZ/6ejzveJSezM72sO4KYv4Da+BIkkq7kBTpGzqOU9AR+mvEs+Zsk50jaExaOVIRMjcKQhpTXt8QdRzGSynKxc5Cm87209yTI5GwMXaMwL0T9vELmVRZQEAthmvqct+ovFaOxRC7DMNB1/TPHWZblNicxZ3fDjLG1AhiGMWW17FJK8vPz2bx5Mx999BGJRALLssaFXNM0IpEITz75JEuXLp3yMZ5CCBzHoaysjGeffZaTJ08yNDTEL3/5SzZu3EhFRQUhn8naeX4aqnR0TWDO0pK5qyIEPt2PXw+StkYYyvYzkO6lNFw50yub85i6j4pILXn+IhLZfs4PnWFVyWZ8+uybGnkn44n8TTKQckhkJEpBnl8Q9rvx+Gv1YnEcSXt3gvd2n+aDXac4daaT3uE0OdtB1wTxsJ/qykI2rKlj6z2LaFhSQTg4u/p93wy5XI6enh7Onz9Pf38/juMQCAQoKyujpqaGWCw2njiWSCTYu3cvPp+PTZs2zVqhV0rR1dXF6dOnSaVSLFq0iJqaGgxj8r8+Y6NZly9fzoYNG2hqaqK3t/eyYzRNo6uri1OnTrF48WJM05xaodc0MpkMDz70MK+/+RY7Pnifw4cP8/rrr/O9732PaDSKYZr4p2wFU4eGRtCMUBapRghB0hqmL9NFabiKOeknn0UIBIXBUgpDZTQPnuBC4izDuUEKg2UzvbTPFZ7I3yT9KRvLkSAgP6ijX6f7hFKKoeE0r7z5Cf/06l4utA9i2RJ1yfHJZJaOnmHOnOvkdFMnf/DNe9m0uhafb3b0Lr8Z0uk0+/bt46233uLo0aP09vaOi3xVVRWbNm3iySefZN68eZimSUtLCz/60Y8wDIO//uu/ZtmyZROacDadCCFIJpO89dZb/Mu//AvDw8M8+uijfOc736GqqmpKXlMpRVFREZs2bWL79u309fWhlELXdXw+H8PDw7z88su0trby9a9/nfvvv/+ybPfJRhOQtqHPKGL5F55i3969JJNJ3nvvPZ588kkKCwvnrAN2rMVtWaQaU/OTddL0p7uQykG7SpZ6TubI2umxKe83fH4F+PUAfj3wuXNTCyBkRigJVdIyeJLeVCddyTZP5KcZT+RvAgUMZiT2aGw17tfcJi1XO1a5PdmPnengpd8dpLmtH4m4TODHnlOgGBhOs/2jM+TFQ8wrz6OuqmBOWfPpdJqPPvqIn/70p+zZswfTNCktLSUSiTA4OMjOnTs5cOAAiUSCb3/721RXV9Pf38+JEyfIZrOcPXuWlStXYtv2VWvBrxd3nuzjLkUpRVNTE2+88Qb79+8HIJlM0tDQQGlp6ZR4H8bCG2vWrOGuu+6iqamJVCrFkiVLWLNmzXgXutdee422tjZ6e3t58MEHKSkpmfRrJmsrulMORzottl/IYVdsYsnq9Xyy+wOOHz/O9u3bWbhw4bgHYi4iEJRFqgmZUUZyAwyke7CkhU+73KMmlaRzpJWTfQfJOpkJZbErJVmY38CSwjXoYu7duN8OEtA1naJQGT49QCLXz8XhZhZ/Ds/FTOKJ/E0ykLbJSYUQkB8c7ch2jWNzluTdXadpOd+LvE5pi1LuFyKds/lg1yk2rqmlvCRG0D873ddXIqWkubmZl19+mb1791JYWMiWLVvYuHEj8XictrY2Xn/9dfbt28crr7zCkiVLqKysvOzxV1rwqVSK/v7+8SEpkUiEvLw8/H7/uEArpUgmkyQSCWzbRtd14vE44XD4MzXfg4ODJBKJcYu4sLCQQODGscGxWeqnT58mEHCbjLS1tbF7927WrVtHeXn5ZJzCzyClpKioiCeeeIIjR47Q39/Pt7/9bR5++GH27t3Lv/7rv7Jr1y4OHz7Mj370I86dO8fjjz/OihUrxs/R7YiuUtCTkpzqszjYkeNot0XCUpSECnjm9/6QlpOH6Ovr4ze/+Q1btmxh0aJFk/jupxtBcbCCsBklke1jMNuD5WQxNfMy61sqSV+6g8Ndu0haCeSVWZOfeVaBoxyCeojFhauAz5uwKXShUxwspzxcjaGb6JqOUhI8kZ82PJG/CaSEwYyDIxWaGLPkrz39bDCR4tCxVrJZG0ztut49pQAh6O5JsPtAM/dtWMC88vxJdfC5rwG6GGt24pak3a4gZDIZjh49yoEDB5BSsmnTJr7zne+wePFiDMMgk8lQWlpKX18fjY2NNDU1fcaSHnt9KSWnT5/mzTff5OLFi6TTaQDy8/NpaGjggQceoKysDNu2OXnyJNu3b6elpQXLstB1nXnz5rFlyxaWLl2KaZpIKfnoo4/YsWMHXV1dKKUwTZMFCxbwyCOPUF9ff90ZBJ2dnRw6dIjBwcHx93Py5EkOHDhAU1MTxcXFUxabB1i/fj2PP/44UsrxnvJFRUXU1dVRV1fHK6+8woULF/jFL37BiRMn+OpXv8rDDz9MNHrznQAVrms+YytO9drsbc9xsteiK+lgSVhc6Oee2ghri7bS9PGX+cU//AOHDh3ihRde4E/+5E8+c3M1VxBCkB8ooiw8j/bhcwxkehjJDRH2fXYmglISR9k40r6hyIPb+U0qZ8xl97lCINCFQWl4HvfOe4KIP86C/JVonsBPK57ITxCFm1mfyDjkHIVfF0R8V4+yudE6RTKVJTGS4dNv+I03XakULRf76BtMUVWah5ik6WoK0DSB7UiG01lsW6JpGuGgD5/pJg/eyj4khCCdTtPU1ERHRwcFBQXcfffdLFiwYLx+OxwO88UvfpHu7m727NnD8uXLP5OdPiZIZ8+e5a/+6q/Ys2cPgUCAeDxOOp1mYGCA9957j8HBQb7//e/T3NzMz3/+c9577z0MwxgPC+RyOY4dO8YPf/hDFi1axIEDB/ibv/kbjh8/Tn5+PqFQiJ6eHt566y2am5v5sz/7M2Kx2FWF3rZtmpubOXXqFJqmsWHDBuLx+Hhi4dGjR1mxYsV4qdtko5QiHA7zla98BV3XKSoqQghBKBRi7dq1VFZWMn/+fH72s59x+vRptm3bRkdHBxcvXuSrX/0qZWU3H/vsS0k+vphjd1uO1oRN1lbEAzp3V4XZUh9hcXGAkCn49re/za5du2hpaeE3v/kNDz/8MPfcc8+cFHkAU/OxIH8lB7t2kLJG6E13UBGtxZH2Z97TRN+hGB0XMzfPyOQghEbUl8eiglWEfFGKgmVXzXXwmDo8kb9J6gr83F0RQFeSwoB2TSteIIhEAuTFQqP1dRO0qoRbF64mcbC4lIqBRJpzrT2caeyi+WI/yYxFwNSZVxpnfl0Ji+aXUFoURdPETW1LQggsy2JoaIh0Ok1RUdH47PExxsTq6aef5r777qO4uPgz5XRj7N27l3fffZeamhqee+45VqxYQVtbGy+++CKHDx9m+/btbN26lUOHDvHBBx8gpeTxxx9n48aNNDY28tprr3Hy5EnOnz9PVVUV27Zt48CBA4TDYb71rW+xfPly9u7dy6uvvsr+/fsZHBwkPz//qiI/MjLCqVOnaG1tpaioiFWrVlFWVsbOnTtpb29n//79PPjgg+MVA5ONEAIp5XiC36WWuRCC8vJyvv71r1NUVMRLL73E7t27OXXqFM8//zwXLlzgmWeeoaGhgXA4PP6Ya6EUnB+02dGaY19Hjp60Q9DUaCgLsLE6zKaaCBUxE02462hoaOCJJ57g+eefp729nd/+9rcsW7aMgoK5lUsyjhDU56/Ap/sBQSI7gK7p2NL6nMv07SOEQBc6UjpYMoehzY0w5J2CJ/ITRAA+Q7B+XpjaKOSyWQpD2lVL58YkPRYO0LCsir2HWsg5N3btCQFIRXlRjPx48KqTy24WKRXNbX28/v5xdu45w/m2fgaHM1iOxNAEkZCPspI4q5dX8bWn7mbl4opbqtMfE8lgMEg0GkXX9cuEUylFPB4f/9mVjCVulZWV8dhjj3H33Xdz//33Y5ommUyGaDQ6XnbX29uLHJ3UZlkWfX19pFIpli5dSl5eHo7jUF9fPz5dDcBxHDo6OliwYAHr1q2jqKgI0zSJxWJXzegXQtDV1cWBAwcYHh7mnnvuYfXq1ZSWlrJy5UqOHj3KkSNHaGlpobq6Gr9/6grIruV2V0oRCAR46KGHqK6u5s033xzPun/11VdpaWnh6aef5pFHHqGkpOSypMbPvl8YzilO9Vn0pSWlYZMN1WE2VYdZUOQj5jcuuy4ikQiPPfYY77//PqdPn2bHjh08+OCDbN269Zo3cLMRpdT4xL+KcC0byx8lZISpCNeSs3Juo6rRG3SpHK999W3gKJuskyagB2dFf/3PC57I3wS6EBSEdHxSI5vVr5lZP4bfp7P1nkW8te0ETa29N/TzKamIRoLctbKa4oLIpMTwOnoS/POr+3j59U/oHUySsS6fnNc/nKajb4SzLT2cae3jf/ufHmb10qpr1v1fd/1KkclkSCaTn7GMhRDs37+f/fv3s3nzZlatWvWZxyql2LBhA+l0mmPHjvGTn/yEjo4O+vr6uHjxIo7jIKVECMGaNWvYtGkTb7zxBm+//TYHDhygoKBgPCZfWlpKKBRi69at7Nixg8OHD/PrX/+a7du3j3sbHnnkkWu66pVSnD9/nsOHD+M4Dv39/bz55puEw2Ha29sBaG9vZ8+ePaxbt25KRf5G+P1+li1bRllZGXV1dfz0pz/lyJEj7Nmzh/b2dpqbm/nmN79JXV3dtZ9ECBaXhbhrCKryJRurwywrDVIY0vHpl3usxrL/V61axWOPPcaxY8dobGzkjTfeYP369VMWvpgKxm4uhRDEA4U8tej77rWvO5iaeVmyrOVYmLpnhd4qSkksJ4utbAxheh6SacIT+ZtEACh1QxEUAnRdY/nCcr7+5bv42Usf0d49dM3WeAII+k223L+ULZsXEw7efj/yZCrHBx+d4V/fPcLF7iHkaLLdlViOw+BIml17zvDTvBD//o8epbIsPiFPwlgiW1FREZFIhL6+Pi5cuEAmkxl32WuaRmdnJy+88ALbtm0jnU6zYsWKzzyXlJLdu3fz05/+lM7OTiKRCJWVlaxatYpYLMa+ffsAd2Ouqanhu9/9LvX19XzyySc0NzfT2NjIyZMnOXnyJABf+tKXWLFiBX/8x3/MwYMH2bt3L62trRw5coQjR45w9uxZ4vE4995772dc4d3d3ezevZuOjg4sy+LgwYOcPn0aTdNIpVLjNzLbtm3j2WefnTKX/UTRdZ3i4mIef/xxSkpK+OUvf8m2bdtobGzkhRde4MKFC3zrW9/i7rvv/kxNvaZp+Px+4j4fTyzzYzlQHDEIGG7o5mqXgaZp5OXl8cQTT/C73/2OU6dOsWPHjvEQxmxn7PNubGzk+eefJ5lMAuBIB4XEZmzs7KeZKiWVxRSsNlCeEXpLKBS2tMjYSQQapubDb0xdfwcPF0/kb5Ixi3MiaEJQEA/x3ONr0HWNX7/2CWdaurEth8tj9IJoLMjWexbz/a9tYn514W3HNZWC9u4EHx04R3vXmMBfu4RPjb637bvPsGXTIp59ZBXCuHGL3bF4+8KFCykvL6etrY0PP/yQtWvXsnTpUjRNY3h4mNdee40PP/yQgYGBq1rOUkp6e3t5+eWXOXjwIMuWLeOP/uiPWLFiBZlMhl/84hccOHAAcF3vx44dY+fOnVRXV/Pggw+SSqXYt28fL7/8MmfPnuXtt99m3bp1nDlzht27d/PAAw/w5S9/edwF//Of/5xjx47x6quvsn79enw+3/j5cRyHU6dOsW3btvH489KlS8fd0JqmjVv5jY2NbNu2jbq6OkKh0K1/YLfJ2PUSCoXYvHkzFRUVLFy4kFdeeYVz587x9ttv09nZybPPPstjjz1GcXEx4N4c+P1+fD4fmqZRFtVHn2/0ea/zmoZhsGzZMr773e/y53/+55w9e5Z/+qd/Yvny5ZSVlc3q2PxYvkM0Gh2/lsbG635qvavx3+N5MZ78yqPMC8+H9Iwte86TtpK0DJ2mefAUtfElrC27l4AR4nNXejCNeCJ/C9xMaZKua1SV5fH7z67nroZq3v/oDDv3NfH/s/fe0XFd593uc/p0AIPeK0mQAMFexE6Kkkjb6rIiyZJsWYkdf4njtXLjxJ+drJV1k/U5+Zx7V258Y/tGkR1JjouKVSlbhSJFUuxi7wVE7x3TZ87Z94/BjABWgGKBqHm0CELEmYN96m+/735LS1sf0UgMh8NG9ZQ87lxezfIFlZQWeDH0T3dZ4p3tBL19wzQ198ar7I1nzBIMDAbYfqCBu2+vRVYklHGsnRmGQV1dHfPnz6elpYUtW7YQDodZuXIlbrebo0eP8t5779HW1kZZWRnz58+/QAASOe8dHR0IIXC5XEyZMoXc3Fy2bdvG/v37iUajhEIhBgYG6O7u5re//S1lZWX8yZ/8CQsXLsThcLBr1y5Onz6NaZqEQiG2bNmSXJ/+m7/5G+bNm0deXh5vvfUWvb29mKZ5wViGh4f5+OOPqa+vJysri/vvv58HHnggWT5WkiQOHDjAD3/4Qw4fPszmzZuT6Xg3W9gSfQAqKyt56qmnmDFjBs8++yzbtm1jz549tLS0cOzYMR5//HFmzZqF3W4fUxZ3Iss0sizj8Xj44he/yLvvvssHH3zAtm3bePfdd3nyySeve139a0F2djb33Xcf27dvT9ZROB/d0Kmpm8EDj9yLz9OB1HgTBnoLIISg3dfI1ua3ODtwhLK06bh0D9Mz5460oJ3c98pnlZTITwABmJY13jj5JLIct+gXzymlrjqfbz6yhGjMxEIgSzKGruJ06Nh0baSz17UZazQSIxyMjP8zAqLCoqGlj5hpoY9zMpNwnz/yyCN0dnayfft2Nm7cyPbt21EUhVAoRDgcxuPx8NBDD1FTU4OiKEiShCzLSWsyMzOTqqoqPv74Yw4fPsx3v/tdnE4nTU1N+P1+NE2jv7+ftrY2cnNzcTqd7N69m7a2Nqqrq+np6eHYsWOkpaWxYsUKiouLmTp1KpIksXnzZlpaWqiurub06dOcPXuWjIwM1q9fj67rY7wLg4ODnDlzhnA4TFlZWTJdbXRVt7q6Ourq6jh79ixnzpyhqamJ0tLSSVN/X5ZlsrKyWLt2LcXFxTzzzDNsePttmltaePnlV+jp6eFb3/oWS5YsQVXVqxZjRVEoKCjg/vvvT04iNmzYwKJFi5LnfjKSEHPLsli8eDHTpk1j9+7dY34G8UCQ3iYAACAASURBVOObWl3FV//kMaqmVHCouxPgivE4n/yiiWx8ayNJEm49DY/hxRKCcwPH2N+5lXxXKVmO/NQpuk4of//3f//3N3sQE0UIwYkTJ9i0aRM9PT2sWrWKhQsXXtf63QBRU+APm/hDkfi6vDyxZ1eWZQxdw+k08LjspLnseNw2nHYdTVWu+Quxq9/P9kONtLT3TyAqWKK4wMsDd81C09RxTzoURSEnJ4dp06aRmZmJqqpYloWqquTn57No0SK++c1vcs899+D1epNr2ydPnmTatGk8/vjjeL1eioqKEEIQiUQIhUJ4PB5WrVrFgw8+SFpaGoqisHz5cpYtW0ZJSUmytnxnZ/zlm9jXl770JdLT0ykuLiYvLw/TNBkaGqKzsxNVVZk9ezZPP/00d9555wXR4LFYjLa2Nnw+H7fffjtr1qzB5XKN2cYwDKLRKD09PUyZMoW1a9eSnZ19U9flL4aiqGRmZVI6tYYhyUNLSxvD/V00NDRw9OhRYrFYsvxwonHQRJAkCUVR0DSN06dPc+bMGSKRCEVFRcniQZNJ6BPLbZZl0d/fz549e/jtb3/L7t278fl8YyZ7iqpQWFLIY197mDu/cDuqrtAdaKVh8CSmMJFkBVlWL/lHkVUkSaY8bRrl6dNTRWAAXbFh1xz0BjvpCrQihEmhp5JsR8FI/vzkuVduFVKW/DhIrFmf7Q2z8fQQPcMhFhfqzM3XUK/C8paSX64PkhT/ku11UVHgZd/+c4SJp9Nd/nMSMoL8XA+KPPFa5LquU1dXR2VlJYODgwwPDycb1Hg8HtLT09F1PbkeWllZyT//8z8nJwKWZTFjxgy+973v0dvbSzQaxeVykZGRgWEYLF++HL/fT15eHi6Xi7Vr1zJ//vxkjr5hGMnt7XY7kiTh9Xr58pe/zJo1a5JtW202Gy6XC6/Xe9Go+PT0dB577DHWrVtHeno6mZmZF2yjaRpr166ltrYWm81GTk7OpEods8SIASlBVxAOR7KJ1d5LpZlL47aX6D21lwMHDtDR0cHJkyd56qmnqKmpwTCMCU9UVFWloqKC9evXs3PnTtrb2/nwww9ZtmzZpCl3OzqWJhwOs3XrVl5//XU+/PBD2tra8Pv98eUFWUJY8b+dTgfLV9/GunvuxO6wYwmLPFcZy4q/RNSKILhSWmx8jb/EU4nM5Jr83SxkSSbPWcI072w6fE10BdpoHa5nakYdiu5OSfx1ICXy40UIuv0x9rYFaR+KUuKRmZ0/OVyzF0MCcrPc1NUW885HJwj1DF/5Q0LgsOnxLniqijLBCUzCqnO5XNjtdnJycsb8+/mWoqZpFBUVJd32iW3T09OTZVkT7nxJksjOzk56CRKfz8zMJD09Pbn+O3r7xP50XScnJ4esrKzkdonxXAxFUcjIyMDj8aAoyiXF2+FwUFJSkvydkwUJ0BWJgZDJlsYIW5tDNA6axGQ3OQvXsXrlbXR98CxvvvJbWlpaeP755zl9+jTf//73WbJkyVW1rvV4PKxYsYK6ujq2bt3Krl272L59O1OnTr3pa/MJgZckiaNHj/Kzn/2Mt956i+7uboQQhMNh8vPzWbt2LS+88AICgYREUWkhX/n6I+QX5IJICFQRec4ipHF6xgTikhk1n1cMxUZxWhVeRw71/cdoHarHHx3GoblThvx1ICXyEyQR1PZZKIrhsGvctWI6Zxt6+O/f7WI4GL70xgKEZXHbwkrWLJmKol695SHL8riswYQAn8+lhPX8GvEJsb6SwCbyuifCePYry/JFx38zMUcq1+1ui7C7PUKHzyJqWmiKRIHHYP00D+umFBFY9gOmlZfy858/S1NTE5s3b+bcuXP8xV/8BQ8++CC5ubkTmrhIksTUqVP5xje+wcGDB2lubuYPf/gDt912G9XV1dfxiK9MMBjk9OnTvPLKK7z88sucPXsW0zSTk8z169fz9NNPU1hUwO5TH3JyVxNF5QX8+d/8KTNn1RKLRUdNUkbc/RP4/anituchSWTacilwltE8eJrmodP0BNtG1uVT5+lakxL5CZDoIJ1w3096BBTmePjTryzD6dR58c29tLcPYFpiVMvbuNViGBqrFk3h//jGWopy065ZAOBnBZH8chEmEDdliU+WY67VGRwzNomR0rIX2U5AMGqxsSHMH86GkCUxUsBJZXa+g9WVbury7Tg1mTRHAX/2Z/+D2toa/uM//oMtW7ZQX1/PP/zDP3DkyBG+9a1vUVNTM6E1dcMwWLx4MQ8++CD/9V//xfbt23nrrbcoLi6+Yc1rRnsNgsEghw4d4o033mDDhg2cPn2aYDCIoihMmzaNe+65hwcffHBkmcJGOBZg4QMzaG/pZuWXF3LXl25PVkz8hJHiOddp3Imxj15eOL9F8mSKcTif8WTxCCzsmpN8ZyluPYPmoTPsbvuALEcB2Y6ClNBfY1Ii/zmgJD+N73xtJYvmlPGrN/ey/1ATw74wpmVhNzSKCjN44K45PHBXHTle52fCS3GtkWGMKidfNBLEhCAcE6gyY2IwEnnVADELYpbApkrISFiIMZPB8eSdn09S3EfW1mUJTEsiGLPQFWlMupskSUiyhFvTmZor8WFThBynwtwCJysrXFR4dZyGnCxwJCHhdrtZt24dlZWV/PSnP+Wll16iu7ub559/niNHjvD973+flStXYrfbx23VFxQUcPfdd7Nr1y5OnjzJ+++/z/Lly1m4cOF1FaeEKAohkiWMX3zxRX71q19x8uRJwuFwMjj00Ucf5emnn6aysnJMsK6QLORyHzWP5FG9vBi3ko7PGrwhAXOyLBOJRAgGwwjLQtM1bHYDWZLHCLsQ8fbHqqqg6dqka/YiS3KyPXSCRHMsXdMQxDMaFFmhKK2SQncFJ/v2s7t9I2Xp1SwuuBNbqkDONSUl8lfJZ2muKQCnXeeO26ayfnk1nb0+jtd3MuQLU1GcSWVxJroqxy38z5nACxGv2T4UtjCteBfAsAnCgqglCMQsOgMWPX6LOXk6s/INDE1GVVRkWSYai2HFYuzvCHOgPUpxukyBSyHdppBulzBkQIoHczFiAV7KSXJxL5EgEBYMhAQ9QYuWYZP24RjrKu0UeVQ0VU4uG6iaBkjMK9KxayrV2XZKMvTL5r6rqkp1dTV/93d/R2FhIc8//zznzp1j586dPPXUU3zve9/j4YcfJicnB1VVL7sMk8jRr6mpSdawr6urw+VyTbjt7URICHswGKSzs5PNmzfzzDPPsH//foQQGIZBcXExy5Yt48///M+ZN2/eRVMdTWERVn1UrvCSluvAwuJ6P+mWaTE0NMzRg0fZvWMfJ46fJhKJkJObxaIlC1hw2zwKCvOQZQVZljh25Bgv//p1ysqLufehL5HhnRwlhIUQxKImOz/aze7tu7EskZwoCyEwbAZlFaVU106jtKwY3dDJsucxM3sxgaiPiowZTPPOxlBtV/hNKSZKSuQngvjkr9hnUAwtIQhHYmR47CybW46EhCUsLEsQM8UtGR80yst9ESQiluDtMyH2toWJWWAB4ZiFJSBqgS8an/g4VAmHTae22IbLpSctKM0SRKIxTvaH2NwcZuisRaYhkeVQSLfLZNolsh0KHl3GY8jku2RynAraRYzDqCkYCFkMhQV9QYu+oEVnwKR92KQ7YNHttwiZApchU5vvpCrPgU1TxgQaApSk6xSnx2MFxtNCWJIksrKy+M53vkNtbS3PPvssO3bsoLe3l3/6p3/izJkzPPnkk8yYMSOZancpZFmmsLCQr3/96zzyyCPU1dVhs9muuRU/ujphIBCgoaGBLVu2sGHDBvbs2cPQ0BAOh4PS0lKWLl3KunXrWLp0KRkZGZccSyQWjGckCBWb4hxH9Pynw4yZnDl1ll899xJvv/oHBgYGsdtsSLJEOBzhnTffZ+Ft83nkyYdYtHQB7jQX727YyMu//B01s6az8vbleDMzkv0cxHlrTlc65xdbDrjUNlfcDmhqauGf/v7/4tih4xiGjs1uQyCIRmOY0RiyrFBTN50nv/EVbl+3EqfTydTMWeS5Ski3ZWLXnJhWLNWl7hqTEvnxIkloioQMmEIwFBZYV9mD/WaSeFBNMx5hEE+z+iwdwcSwRowxZdQhJkRRURTMmKA7GKDNbyVd9hJx96IkgVuXUGXw2lXcNhUkBWkkHUoAiixhIuOyafFWrL4oYVPQNGxSPxBDkeLdCxVJwqbCjCyNr9Q68TpG9jHqJdrlt3inPsyhrgjBqCBqCsKmICZAlUBRJNJ1hUKPht3Q0XV9JNXx4sc+kkk5LiRJwjAM1q5dS2FhIb/5zW94+eWXaWlp4YUXXuDAgQN84xvf4O677yYjI+OyQm+z2aitrb1gnflakchzD4fDNDY2snXrVt566y327NlDf38/mqZRVlbGihUruPvuu1m0aFEyK+NSYxEIeoOdCCFQZBlNNuLjv6YjH0tfbz/PPfMr3nj5LYSAuQtms3jpAmx2G8ePnGTPjo/Z8sE2IuEwbo+LBbfNI+ALEA6HsUzrQrePEJgjef5CijfUutj5F4ntRmWkXOy8WJbAEvH9xdNrL/2ukAC/z4/f70dRFCqnVXLXF2/HMHT6+gaoP93Avt37OXzgCO+89R7VNVOZWl2FTXFgd8bLQfsjg8gouHRPqqbANSQl8uNAkuIPhl2Nv/AtAf6YQIjPrjjewroOxN99EVNwtt8kagqmZ2s4dA1NU9E07ZMXW1RQmR0BScZtU5ABh67gsSsokoRTk3AbCllOlQKPhtv4pJ5/4hQ6dYV7a9JZWOzkTF+Yht4ILYNhmgZjmCOeEkuAhYSiKnicNnRt7DqyBCiqTMCMMByJ/7+qSOiajK7IlKRrVHgNKjMNStN1ct0amnLpEKWrubyJbIeZM2cyZcoUpkyZwk9/+lPOnDnD3r17OXv2LG1tbTz22GPk5+dftvPe9RB3iK/n+v1+urq62LNnD7/+9a/Zvn07Pp8PwzAoKChg4cKFfPnLX2b58uXJCcl4Cv1EzHj2iSwr2HTHiMBdnwfFsgRHDh1jw6u/JxKJMmd+Hf/z//wr5i+agyTJNJxp5NmfPccbL2/g5PHTHDl4jFlzZ8Y/nBR2KbnGHQgEGe4dpqW1GcuyME2TrJxscnNzcae74q2fhSAYCNLf209newfhcASXw0l+YQGuNCeGLV4jIWaaBP0hOts76evtw7JMMrxeMrO8uD0udEO/4FyOnlAqqkLFlHKefPor5ORlgwXHjp7gX/7Xv/LuWxtpbW6ju7Ob6hlTMUe14I5aEYYjfaiyik39JFAzFYj36UiJ/ARQFQmbJmPXZBQpUVwmdQNONgQwELI41BnlnfoQ/ojgL27LYHaRA1X55GUvhMChSdw3Ix1LCNQRq1iRJbQxUW1j/roASYI0m4LHplCdYyMUswhGLXxhQZc/So8vRl/QpCcQpcijk+52oMrnuUKBXMWkJk8gkEmzKRSn6xR4NPJcKhkOFacuX1bYrwUJy87hcPDkk09SWFjIc889x5YtW+js7OSHP/whx48f59vf/jYLFiy4YV4gIQSBQCDZ3nfDhg3JipdOp5OKigpmz57NXXfdxZo1a8jPzx9Te+HKvwD6w90YigNDsaMrtusaRxCLxdiycRvDQz5y83O47+F7mL9oLuFwfKKRW5jDPQ99ke6uHlqbWnF7XCMqOsZ0j9eDb+vktRff5O1X/4Df78dmsxEIBpEliaWrl/CNb3+d0vIS+nr7+MOb7/HKr15jaGAIVVOJRqKUlBVzz0NfYNUdK0nPSKPpXDOvvfgmm9/bQjAYQpIkItEIM2qr+aMnHmTR0gXJDpOfMDYDIBwO09PbiyXFPQa+gB9VVdF0jfSMNJwu5wWeEgmJqBmlP9RNumERs2JYwiTNlpmy7D8FKZEfJ5IkkelQWVjkoNglU5o2uaJaU8QRQLff5MPGMB+1ROj0mxiqTOMQzDnPmkt879TPE4HzNWG8czkRd5MaioyhyKTboChdQ1gCU8Rz2BMWusSF4pNhl7hzioc1lW5smoyuxN38JN7t0sSGc7UkxqWqKrfffjtlZWX85je/4cUXX+Ts2bO89tprLFy4kAULFlzXlK6EyEYiEZqamti9ezfvvfceH374Ia2trciyTFlZGQsXLmT9+vUsW7aMwsLCZO2CCY1Lgkx7HkuL1hG2wmTacq7rmnwsFuPg/sNIkkRuXg5zF85GIMZ4HKprpvHH/+NrdHZ0UV0zFd2IB1YmsIRFNBrhvbc38qtf/BbLsli0bAHllWWcO9vApne38ObLGygtL+brf/pV9u85yC9++gK9PX3cvm4VJaVFHD18go937SMUClNYXEjtrBlsfn8Lr734Bpqus3z1EtweNzu37Wbb5h2oqsq06VPJzTcueX4ty6KtuY0Nr7+D0+kgGo1w+sRZ9uz4mNy8bG5btoiSsuL49T3/0ZMgZkVo9zdyvHcfvvAgiwvvosRTiZJaq78qUiI/TiQg16Vxf206AX8Ay4yiKyk7fjJhCejym7xzNsy2lhBDYUGGXWFNpZvFJc64YF6EK2rBuNe1x26fEGNJjq9nXukVpcgSHtslLJabcKMlouWnTZvGX/7lXzJ16lSeeeYZbDYb9957b3Kb64FlWUSjUbq6uti5cydvvvkmW7ZsoaOjA4D8/HzmzZvH+vXrWb16NUVFRRexLsePhMQU70xynYX0BNrRZA1LWNfv+EyThvomZFkmPSON7NwsTNMcs43dbjBnwaxkgOwFcRAiHrzX29OHYejc+/DdPPyVB3C6nfT39dNU38yhA0fYt/sAj371YVoaW+ns6MLjcTNv4RxWrlnGslVdvJ6fSzgUxma3EQqGaGtuZ6B/iOkzp7F4+ULqZtcye/4sXn3xDXLyrtyfwYyZnD1VT0fbfyNJMpZlEQqGiEQi1M2upXxKGQ7HpdLkBLKkcqb/KJsaXqUv1EXzcD0PTPsTytKmpYLyroKUyE8ARQa3oaBaGqFQ7Lq681JMDEtAy1CMDxrCbG+JEIhCvltjTaWb+2vTSbuUeF5HbpUJoCTFc+offvhhKioqkGWZkpKSa3L/X8wTYJomTU1NHD58mI0bN/L666/T0tKCzWajoKCA2tpa1qxZwxe+8AWmTJlyzYRYkzXsqhNDufbZABcioesaCZc7lnVBMaZoNEZvdx9+nx9vlpeMzIyxe5AldENn2crbEJbFgsXzaKxvorW1jcGBQfz+AAjo7uwBIcgtyCUvP5fO9k5+8/xLnDvTQFlVKfMWzSGvII/KKeVYlqCgKJ/MbC8nj57i+f/vv5mzaDbllWXc+YXbKasoIT0j7bJHJssyWdmZ1MyagWEYWEIwPDDEuTMNnDl1ltdefJPcvBxmzZ2JuKDqr4QQFpqs49Yz6A91c6jrI3TFYH3FY5SnT0dPtaWdECmRvwpUNbU+NJkwBTQPxnjvXJjdrWECMShN17ljiocV5S7cRup6fVoS2QiLFi0Cxld5LREFP7qz2/kk3NOj9+Xz+Xj22WfZsGEDJ06cQAhBWVkZM2fOZPny5axYsYLp06fjcDiuzcElxgtYwrzidtcCRVWonjGFrR09DA4M0dnZQ1ZONqZpJidPHW2dvPrim5w5eYb199zFmrtWnbeXeDGmRK+BX/zsBYSwCEci6IaOb9gX32rEIzN/0RwefuJBdn20h4azjbz+0lsomkphUT5LV92G15tGRVU5ty1fxODAEHt37aO1qZUzv6xHN3TKK0pZeccKcvNy4gF1lzm2aTOm8md/+U0yMuN9JYb7h3n37Y0898x/s3PrbuYunM2MmdUj5abPi/5HUJ4+DUuY7GzTqB84xoGOrUTNEKtLH6A6cw4O3Y008l+Ky5MS+asg8WJKWfI3H0tA+3Bc4He1RgjFYEaOjbumephf5CTdrly2GEyK8TP6nh+PpRsMBjl58iT19fWYpnlhRLYkkZaWRmVlJUVFRWialtz//v37OXz4MLm5uSxcuJA1a9awaNEiqqqqko2Droe1HRPnl7G9PmiayqJli9iycTutLe1s3bydqqkVySI94XCEwweO8u5b79PZ0U11TTWxaPQTY39kObu7s5eXf/Ua7254n3RvOg/80T2UVZZRXlnC//q7H9HZ3gVSXDhjsRhFxQVUfu1h/IMBTp06zf69Bzly8BhdHd3k5GRRWFyAJEnMmFlN7ewaBvr6qT9zjj0793Hg48O0trRTXlHKmrxVlzw2SZIw7DbyCvLIzsmMX6cS6OjowuF00NfbR09XD8FgCI/HfdF9KJJKeXo1dtWBTXVytGsXh7t30R/sZmnxF1lceAcZtuxbOv33WpES+asg0XXschZKihuDaQkaBkxO9kYJxARTMw3uq0lnXqEDuybf8qmCN5rxvlSFEAwODrJhwwZeeumlpMV5/jY2m42ZM2dy7733snz5chwOBx6Ph/vuuw9VVVm2bBl33nknFRUV2O32cTc/ulpMEb0hwqEoCkuWL6K8qpTmxlZef/FNsrOzmDV3JpqmUn+mgd+/8S4N55rIy88lJzcbTdeTdms8B0Ohu6Obk8dPMzQ4zG0rF/HAH91LVm4mjfWNdHf2IIQgFAwTCobZumk7L73wCqvvWsUfPfYQS1YupKZmOv/+//wH58420NneRXdnD+9ueJ+Pdx/ggUfuZc261ayOrqK8vJx/+5ef0NbSTmd712WfKzGSqtfc2IxveBhhCXp6etnywTYGBgbRNA2Xy4VxheZOmqxR4qnCpjpQkDnZu5+GoRMMne3HHxlkddn9qaY24yAl8ldBwnUZi0U/d2VgJxuyLFHoUZlfaKfNJ1hS6qIu354S+JtIIvc/ETjX2NjI1KlTmTFjxhihD4fDnDhxgldeeYVTp05ht9tZsmQJhmFw3333sWjRIsrLy5Nlca9X7v3ocZvWjXHXS5JEeWUZDz12P7989jecPnGWn/zf/0F1zTQMQ6fxXCOnjp/FZrOxfPUSZs+vQ9c1FEVONo8SwsLpduBJcyMrMk3nmnlnw3uomsb2LTvp7u5BlmV6u3vp6+3DNE0aG5r57Qsv4x/2UVFVTmtTOwFfALfLRU5uNoahEwyGOHroGH6fn5bGFvJy8jhzsp5wKEx2bjZ5hbkXLNeIkWOSJRkzZnL6+Bme+X9/gaFrmKZFV1cPp4+fIRKOMHN2DbWza7A5bFjm5YIb4z0gsh0FrC69lzTDy4HObfSFutjR+g4zsueT7ShItgZOcXFSIn8VxCxBh19wuitKnlOmNE1JpkeluLEoElRmGuRluBiKSOS6xxasSXHzSIiyzWZj+fLlPPHEEzidzuTPo9EoR48e5Uc/+hH79+9n48aN1NXVoWka2dnZZGVlfVIQ5TqLe4e/mSNdOxFYZNhzyXbkXXfhcLmdfOn+9ei6zub3t3D8yCk2vfshAIZNp2JKOStvX8q6u++ktLwYSZLIL8onOy8bb6YXWZPJzc7hji+spqurm8b6Jp7/z1/jTnNRUJjPo197mA2/ixfbiUZiLF62kHu+/CU2v7eFN17ZgN1hx4zFW+6uv/cu5i2eS2ZOFqvWLqe/d4BdH+3hty+8jK7rRCJRcvJzuOtLtzO9dtpFj8eb6aVu7sx41UBF5uypeiQkBAJLCAqLCyivKmf1Hcupm1MTX3K4wnVNXAOvPZfFhXeQ5chnX8cW3Ho6ds1BxAqjyZOr3fNkIyXyV0F9b4RfHRjgXG+YxUU6JWnXNgAoxfiRJAlD1/AYBvmSPKFSrimuP0LEc78zMzOpqKjA4/GM+VlpaSlbtmzh9OnTHD9+nMHBQdLS0sZVoe6ajRFBw8Bx3jzzHLqis6RoPdn2vOs+a5dlmaKSQh76yv0sXDqfhrONdHd0E41Gyc7LoaS0iNKKEjKzvMhyvBvd6jtW4PVm4M2KV6CzO+ysv+dOyipLOXX8DJZpkV+YR8WUcrKyM6meMYVY1KS4tBC7w85T33yCZSsX093RTX/fIGneNAoK8ymrKCG/IA9NU5k1r47s3Czu+MIaWpvbCPj85OTnkFeQS+XUSrKyvReJr4DsnCy++Rdfp6u968JrJ4FuGGRnZ5FXkIPD6ZhwTJNLT2NmzmJyHAWosoYuGwyGenBp6RiqfaTD4qhYKSlVLQ9SIn9VOHSJjmGT1mGTj9uirCyxyHfLn/QST3HDUFQFVbt8d7QUN5+LRdonyuja7fabHEAl6At10hfsQFdsFy1UdL2IBx96mDm7ltpZMwgHw5imhd1hQ1GUMUIohKC0vISi4sJ47YWRez4zy8vyVUuYt3AuILDZbSQKwq67+05kWUZVVYQQFJcUUFxSiBmLEQ5F0G06mhavCZCI6rPZDCqnVFA5tYJwKEI0EsXhtCcnGpdC01Rm1FYzo3b6RQ4U4tWixtdz/lIokkKhuxyIFwMKRn3ErBh2y4lNcSBJEkPhfkzLJN2Wha4YcaH/HAt+SuSvgjy3xuwCB61DUZqHTfa2R/iCy0ZKZm4MiWZbsiyhqdq4e52nuLkk1uoThEIhjh49yqFDhzBNk7KyMjweT1JMboTQCiEwhclguB9LmBiqHad2E9q3jjSbsdk/KeiT6C53Psp5KbzxNHsLmy3eSyDR1hg+CXZMnPdEpzpZUbA74wVpLpb5IIRAWAJd19B1LTlJG0/a5KVE/FpdzvMK+xIxg8SsCEHZRzAW4OOOzfQE2pninU1VRi15zmIMxY4YSUn4vIl9SuQniBCgyhKzChxsa/DR5Y+yuTHMnDyNIo+SCsS7AShxrxyyoqCpWrLta4rJSTgcZu/evTz33HPJqnRCCLq6uti3bx979+4lPT2dVatW4Xa7k6l6N0TksYiYYYbCvQDIQkGTdBRZIRqLJYPcbgQXSzG8ms9O9LxdsrPcVe7zZjhlTBEjEg1xpv8IO1vfYzDUy4neA+S7SpieOY/a7MUUeSrQZeNzJ/YpkZ8g8Y50MC3LYE6BnQ/qY7T7YmxqCPHwDAe68vm4cW4WoZigYSCGiUR1YhoRkwAAIABJREFUrg1nyoqf9ITDYbZu3cqhQ4fGLKuEw+F47nZREY8//jiLFy+Ou44ti87OTtLT0695wZvzEUA4FmQg1AeShK83xCv/uYEFc7tZcNs8nE5HqibGZwCJeJCnU/NQ5K4gHAvQH+qkP9jJuYHj7O/cSlXGTGZkzafYU4XHyBhZmrn139cpkb8KEl3Hlpe72d8WoNsfY3tzhIp0jWUlOlbqfXDdaB4yef10iN6AxapKhbum6WQ51c/Bo/rZRdM0ampqmDt3brJ5DMQDz3Jzc5k1axYzZ84kIyMDSZI4ceIEP/7xj/nOd75DdXX1GDfxNbfuhSAUC9AX6gQgOBzm47e2s+nNbSxdeRt33X0HNXXVOEcCxUZrvSRNrOKaIJ72luLTcSnPnSRpFLrLcBsPMCNrPmf7j3Ju8DjdgTZO9x2kafAUBzq3UuSZwrLiL1KbtQCbeusHTadE/iqRJZiRG6+s9sv9/fSFLX53MkC+W6YiQ0257a8D3QGLzQ1hDndFUSWJcIyxLWFTTEpsNhvLli3j6aefxu0eW+EsEXg3utrdwYMH2b59O1/72tcIh8P85Cc/4dSpU+Tn56MoCoZhkJGRgaZpyXQ7t9uNoih4vd5kD3lFUZJR+qN7yifqXAgEkiQTsQL4RB+aoWJT0+jvaaKrq4vWlnb27dnPyrXLufehL1FWUYokMRI8KIha0ZGe81cmvsynoil6yitwlcQb9ZiEzFDc5X6JreyqgxJPFVn2fKZ662gdbuBM/xHafPW0+xrpC3UxPXMuUStM93AHOY58DMU2Ukf/1nufpET+KpEkcGgyD9Rm0DZk8t7pQVqGTH72sZ+/vs1NlkO+5G2YYuL4o4IdLRG2tYQxLcGcQjtLy5x4UnXpJz2SJOF0OsnKyhqTQjeaRMDWgQMH+Id/+AdaW1v567/+a/793/+dd955h23bto3UOf+kGFVCsFVVTQq4qqrJn7lcLrxeL6qqkpaWhtfrRVEUbDYbFRUVOBwOYtEYSk6UztYBImaY9EGNSDSKaVoMDgxy8OMjnDp+lg/f38ajTz3MHevWkJWZSX3/CTY2vEKbr4ErzeglCUKxIEuK13HvlK8TiPpScSQTRiDLKl3D7bxw5F8Ixfzj+ER8Ejc3dzn3T/063cEODnR+hD86hENzc7RnL2+e+i+qM2dze9lD5LiKUW9BSbz1jugGIkvg0GUenZ1Opy/Cye4Q5elaynV8jYlaUN8fY3drmGDMojhNZ2mZi9IMHUlOpS3eCiQEOz8/nyVLlvCHP/yBtWvX4na7CYfDOJ3O5EQgHA4TjUbjkfGmOaZF6+j8+tEWc2L/iT+Jpi6SJCGrEiEzgCUsFNFAyBdOfjYWi+Eb9nFo3xHaWzvYuWUX9z98L54KjUDEjz86dEXLXJZkgjE/kVgYKZWDc5XEl0YsLALRYQIx3zg+I1AkFUtY2DU3U+05lKVNIxQLIBB81PI2nf4mWofP0uZr5I+m/xnFaVNRJJlb6a2SEvlrQIFH59FZXs72hVldZke3Qqm1t2uEJaA3YPJhY5jGIROPobKgyMn8Iid2LfXCnOxMtBRtbm4uK1asYMeOHaxbt46CggL+8R//kfb2dqLRaDIoLxAIYFkWPp+P4eFhhBD4/X58Ph+WZREMBvH5fJimSSQSYXBwkFgs3h56aGgo+X0kEgHiVl88hzt2QU8KIeLNXbo6uvn9G+9x4sgp5q6bgX2eDwzBBT1iz0MIAWLEwXzraMdN5sp+0vOvjCzJGKoNQ7UTsyIUuio4quwmGAtQ33+UtuFGijxVCG6tktgpkf+USMT7zM8usDO7wI4iQTQqEQgEUmtv1wALONIdY39HlGDMotxrsLrCTZYzdetOdhK51ZfLnT6fhJUN8SYumqaxYMGCMZ0fE+1YR/8BxhTbSYi7ZVmEQiH6+voIh+MWem9vb1Lke3t78fl8BE0fXd0dHPz4EFs2bR8zpkRGgBCC7NxMbl+3milLizmt7GQ4lnrGbzxXf84TgZKarJPlKECTDUCQ5SygMK0iGaV/K5F6U14DJOK584K4C1/X48E1wWDwk9acfJpb8/OJsOBUb5TfnwkxHLEocGusn+pharaRah87iUm8JO12OzU1NfT391NVVZVcU78co1vZJvaTeJ4u1qTm/AlE4vvRgXYAFRUVF2wzmqA1xHCsnzdf3cDWzTuS28mKjMvtorKqnLXrV3PHF29nenU1bYGztJzcD4OpJ/uzSMSMcLh7B4HYMJpiY1HBWrJs+cjSrRfjkxL5a4QkfeKJkyQJwzCQJIlgMEjMtAjHBIYqIcuk3gnjZCBssbUpQsNgjEy7wuoKN2uq3CgphZ/0SJJEZmYmTz31FE888QSapo1Jn7sSgUCAHTt2UFVVlSyQMxEL63whv9hEAOJuetOK0ufvIWqGOXe6IR7Ypyqkpacxf/Fc1qxbydLlt1FQmIeiKWBBMBK+YsBdimvJaOf7p3/+O/3NtAzV448MMyVzFjXZCzFU2y1nxUNK5K8bibrcQpI40e7nndN+ytMVlhQbOLRb70a6Htg1iZm5Gm1+QaZTZWWFG7smj6S63OzRfb4ZT0U6WZYxDAPDMMa1z8T+5s+fT15eHv/6r/+aDL4bbbGPR/Av9/OxPxOYAoRkxdulyjLFZYUsW7WUux9YT/WMqaRlpCXryJumiSrJSJKMuCqxubETg0SswUSY7EInPsXwhBAILJqHTtMX7AAkarMWk+MoQpFvTTm8NY9qkiCQ8MVkdrbH2NQYZnsLtA1b3FlpkO1QkKWUWF0OuyazusrD/AqN4ZBFSYaeEvhJQCwWIxgMous6uq5fM1FIrLlPmTKF5557jiNHjpCXl4cQguHhYQYGBkhLS8NmizdvSaTKfcrfSkSERyYtcNuKxay4fTm1s2ZgmWYypmBMMJ4EYF2lJX9jb14x8t94iY9OnoSV4EZqWcejIz/VbkKxEC2+c/iiQ+Q4C6jLWYRDdU7CY742pET+uiKIZ/dIeB0KfUGTDxpDdAVMVpQYTPGquA0ZJZUGdgGJnGfDMHAqCrnOlLhPBizLorm5mRdffJF58+axaNEiXC7XuMT2/JS2izFa6KuqqoB4I5vXXnuNV199lfnz51NXV8eUKVPIycnB4XCgadpVtaY1RZRwLEQg6sMSJrIsUze7Jh51Hw5fen8CQJ7UN2R8GcLkWM/HdPia4uf1MmIfLzQjcOkeqtJryHYWTNJc/quX4njevEQ0FsalpZHnKqE2ezE5zuJbci0+QUrkryOyJJHlVLhnRhrZTpUPzg7T0B9mX2eElmGT+Xkai4oMSjwKhjp5Xxg3g4SrV03Upk+dnklBf38/P/7xj3n22WeZM2cOP/jBD1i7du243PejLeLLWeHn//vw8DAbN27k3Xff5YMPPiA/P5/a2loWL17M3LlzqaqqIjs7O+lVGI87XyDoDXSyu30jDs1NupFFpj03Ob7J7rK+EkIILGFysm8/hzq3j1PkLXKcRaQZXjIdeZNU5K8eCQlEvC/96pJ7ua3wTrIdhbj1tM/89b4cKZG/ziiyRJ5b4wvVHioyDd48NsChjiA9QYv3zoU5N2iyusxGbbaGx5A+11HjlohnJ8iSjK7ryVQqSGn8ZMDn8/HSSy/x/PPPEwwG6erqYmhoaMxa+aUQQtDU1ERHRwdOp5PS0tJkQN2lGN2NLj8/n4qKCjo7O2ltbaWxsZH33nuPkpISVqxYwR133EFNTQ1erxeXy5W07i89Hov6gaM8d+h/k+csYWXpPWQ5crGEuApbcXwR9jf6HhaARbyVrox0xRFawsQSJpM/MvjTnUlFVsjQc0g3stBV45YvUJQS+RuALIFNlajLs+G1e9lc72NPS4DWwQhHu6M0D5msLTe4s8JGhu3zVw5XAmKWoN1n4bUrZLg0DJtxS8+uP2tEo1E2bdrEj3/8YwYGBsjKyuKxxx5jzZo1AJcVVIiv47/++uv8/Oc/Jycnh7/9279l2bJlKFfoIpiI0v/ud7/LXXfdxZYtW9i3bx/nzp2jq6uLU6dOcerUKd544w1mz57NihUrmDNnDmVlZWRlZeFyuS5I3RNCELOitA03YNcc+AM+bPJEGpUIVFnBraeRbssaR8U7iVDMgV11IqwbWyRLIBDCQiCPY21+Yuv3NxqBQJEUPIYXXTFG/u3yn1AkBbvqHOOVkCQJQ7WhyiqfB/MhJfI3CEmSUCQoSTe4v1alOtvGziY/B9qC9IdMLJQrvihvVSwBx3tivHcuxMw8G3dMc+O8xVyFn1USUe2HDx/m3/7t3zh16hS6rvPAAw/w1a9+lfT09HGvx3d3d3Pu3DnC4TCBQGDcY5BlGa/Xy8qVK1m8eDEtLS3s37+fvXv3cuDAAU6dOkVXVxe///3v2bZtG1VVVcyaNYu5c+cya9YsKioqyMrKQlXVkbEKQrEgzUP1qDaFvj1hgpkC8q5sxcdLqwrSDC9z81YwLTJrXMcQEzEKXGVErWhq8nqVWMLCqbtZXvxFYlbkitsLBLIkk+MoQpVHewUlVFlHlpVbNthuNCmRv8FIEngMhXlFDsoydKpzbLQORVlYaCPbI2NGo5iWeV6QUvzvWzUt93RfjF8dCVA/GOPcoKA6zyTDoV35gymuOwk3+49+9CM++ugjAFatWsVf/dVfUVRUNO79WJbF8PAwoVAIu92O3W5P7n88oje6wM6UKVMoLy9n7dq1NDU1sWfPHnbs2MGBAwc4d+4cBw4c4PDhw7z99ttUVVWxcOFClixZQl1dHfn5+RiGwXBkkE5/MyIKR99p5sUTb1D0P0spKi7EMs8ra3uevSiEiUtPY0bWvIuNdNTX0fuIY4ro50JYrgdCWNhVB3Pzlk/kU2OungAUSUWVtFveTZ8gJfI3CVWWyHVr3OHSCMcsVFlClSGmqkSiEcxE+o5l0R+0EAJchoQq3zqvCFPE+8O/cjzI8b4obl2mKE0j03HrRrqO5bziHmP6HUhX8CRe/7vAsiy6u7v5xS9+wVtvvUUsFqO2tpYf/OAHVFRUjFugIe6uT5SZtdlsEyqMk2D071JVFa/Xi9frpa6ujvvvv5+dO3eyadMmjhw5QkNDA93d3ezatYvt27fz6quvsnLlSpYuXcr06dPxO3oYDg7SeXSY9uN9NO/eQHZOFn/8ra+R4U0fVcrWwhxnH4rE6GRZ4fPgBr5ZXO2SghACU8SQVcctF1R4OVIif5ORJcY0WtF0DUVVME0z3gErGGFjQxB/xKIiXaUsXSXLIWNTJCQ5bt1fuzpQNw5Jgsb+GBtOhzjaE8WhStTmOnhsdgYFabeyFT+6OMnINxIQCcBwFwgTdBfoTlANSLyMLBPMaPwzmgGydl1TuIQQBAIB3n77bV5++WXC4TAlJSV8+9vfZt68eRMSeIgH7fn9foQQydaw14rEuv369etZvHgx9fX1HDx4kIMHD3L8+HEaGxvp6Ojgl7/8Je+//z7Tq6eTXmanL7OR5sO9BPqiYMGLz7+CoRl8+fH7KSjMxxIWA+Eeuv2tWFdyo0mAEKiyTr6rBNdNj9i+Rd1+V4lAMBDupcvfittIR8lQ8dpzUW7h1LkEKZGfhCTqbquKwpHOKJsbwwyHLfbZopSlKUzN1Ch0K2TaFTwGuA0ZTQbT+mw82hLQ6bP4/ZkQ+zojhE3B1EyDB2rSqc6xfaYmK+NGjBJ0IeKiPtAMCMiqgN4mxL7fwnA7eHKR0grA4QVVi38oEoDwcFzcK5ZDZhkkKnRdYzFJrMPv2LGD5557joaGBjRN4ytf+Qr33HNPsmTzRAgEAsleDg6H46os+UuRGIssy2RmZuL1epkxYwZr1qzh3LlzHD9+nL1793L48GHOnj3L5g83o+1S0NIkoiETYcYL4fT39vPiC6+g6SqPfvVhXBkOGgdPsav1PaIicvmHS5IQwsKlp7O69D6cuucmu+VvyafoqhBCYGHROlzPnvZNCGGxrvJR5ugrUNSJBFx+NkmJ/CRGkmWQVcoybJzpC9MTMOn0mxzrieExJHIcKnlumXyXQp5TpjJDxaldOVXmZmIJ6PKbvHU6xJ72CBFTUJqu8cisDGYX2NGUW/DlJARYsbhQB/qg8wSi7RB0HANXHtKcx6G/HU5vRbTvAs1AGG7QHJBw/VoRiIVAT0PGAcIOugPc7pGJwLXDsiyOHj3KT3/6U/bt24ckSdx///189atfxev1XpWFmugBnyj3fKWo+qshMS5JknA4HJSVlVFSUsKiRYu48847OXr0KDt27GDPx3s4dHw/Q50+rJEucvFusILOzi5e+fXruN1uvvjlOwnGfHQGmomOI9DLEhbpZpCwGYrP6W7BW/mzSsyK0hPsoNPfhCWskQDIz4fLPiXyk5yaPBseu5cjHSGOdwU51xehJxCjcdCkcdBE7wKbIlOeofDULBduQyZmXVhVW0p+GcXEy1pfEmn0N5fZ71BY8G59mI+aw4RMqPIaPFibzm1lLjTl1ok3SBLxw0AroucMtB+D7qPQfhTRVw/RIFJmDbhmgC0L3KVIwS6IDEM4CIGhkRM5UstX0SGqQEcjqKXgdIO9EhQVwj6wuT/1cIUQNDQ08Mwzz7Bp0yZM00wG2pWWll61m31oaIjh4WFkWcZms42rI92nQZbl5JKC0+lk6tSpVFRUsHTpMvYf28NPXv4XPvzdbnzdwTH3qmVaNJ1r5r9/8RskTZCzyAaMN+h1Ek6vRbyxy5XK20pII8G+kzmJ7uqQJZlg1E9/sJtgNEChu4JseyGafO28SZOZlMhPchy6zNRsG0VpOnMK7JzrD9M1HKMzEKNtMEqvP0qnL4aFjNNuoGkyxEyE+KS3dswSdPgshiKCDJtEhk3GUOKFdxRppGiGGKsnVyJhqMgjs4e4ixcipsASoI/sf+zarUTEgoZBk0BMUJVp8ODMdJaUutBvJQteAKFBaN6HaNwGPfWI7hPQ3wyBHhAxUN1IGdXgrQFTBdmOVLwaMmshMhifHJgjnc4Sp0axgaSCLR8iofiF6ukGh4Y4+GvIn4VUOh9snvMu4sjFHUdFuv7+fn73u9+xYcMG/H4/s2bN4o//+I+prq7+VOvo4XCYSCSCoijJUrTXe836/Mp3mqaRk5PN0vRlHG7Zy963jxKQwgjJSp4ayxLEzBj1Zxr45c9/w9y+KsSMKLLtStInffIATRIkBLKkIEvKiNV62fUGkEAmXolwsj6NY6YgyXfVZQoqIaHIKr7IIH3BLsJmkAJ3GRn2rM9NKmNK5D8DSIBTlynPNChM04iYgkBUMBg0GQ7H6PbHsGkyuel2DEVCs+IFMEzTwjJj+PxR9rTFy+nqMqTbZIrdCqXpKoVuBZcuYSgSNlXCAkzr0i+DxE/UkXdaMCoYilh0+Cxah2I0DsbIdyssLzHIsMdz/xVZjucoywoZqqA4I4KuKtxXk87sAseYwMPPFuf5ZBPdcySgpwHx7g8RPQfjgh0Jg6qDPQ8psw6y65DSKsCWAUYayDp4ysBdEnftCzNphSVJuBcVPf57ojHoaEN07UB8/G/gyoPSJUhVKyC3Gtx5cZe/oowS+Iu/2BLr8Js2beLFF1+ktbUVr9fLE088wfLlyz+1KAcCAUKhULInwc2qCSFJEprQCTdLhIdiWMl7fWRdX5GQZAlZluhs7eLj98KU6g6yaxwTcL+fd91uApIUF7earIXk2PNH0sWuVDpG4NA85DiKJpUrOynsIu6hkZCQpE+a6JgibtRc8DkhiIoIZixAh7+Z/nAXmmxQ7JmCW8/43KQypkT+M4QEGKqMoYLbgBynChiYQhCzBIYSt1wSy52WJbCERjgo0+oPcm4gRsQUyIBLl0mzyWQYMlkOmSy7TI5Lpsqrku9SLnr7CwFRKz7B6PZbtA7HlwzafCZ9QQtfxGIoYjEz12BekUaB3YYiy8iylGwgomiC+2vSiQkoyzA+Yxb8KHdHohvW6Ohcy4JYDCJhRCAGg60QCSPZCyC7BDKmQ0YlkqsY7BkgGyCJsWIuyXERj/8PY1/MEmBB8oUtIORDaj2ACAzAcBui5ySceR/c+ZBRBmlFkFaIlFkGmeWQlh+Pzh91hYUQRCIRdu7cyc9//nOOHj2KzWbj0Ucf5Z577iEjI+NTi3IoFCIUCqFpGl6vF5vNNuEe8dcKvz9AT1cfZRXlaIaC3W7D5XahqzqZuV4Mu4HdYceVZqdfbqfJuX+CAi9xsxfkJSQUSWFqxkwqM6aPezzxQjHq5EgxE5+UNrYwiZpR/MEhwlaIcCxIyAwgIVHkqcSleYCR+vQjhxqI+TjVe5D6geN0+lsYCveT6yyiyF2JTbHfxAO7saRE/jNM4v2oSvH8+Qt+LksoKKTZdeYWOXEYKh3D8TX94bBF27BJ40AMXQG7KmFTZe6rtpPjVFAYW49cEA+Y29MWpWk4RrffoidoMRS2CEYFigxOXSHLqZHrNrAZBrquI5+X168rEhWZtvNt4EnM6NaWIp7K5h+AvrNxyzx7Gkg6hILg94F/GMJhpGAYyr4EMX/cYnfmxtfdVfuIRR6vLH5x4ypxdizGnqXEv4/6kKxAwVIkxYDeIzDcAL1nEF0n4il4ujPuKfAUIk25HRY+Dt6SpNch3iM9xrFjx/jP//xPduzYgSRJ3HfffXz961+nsLDwmgTJRSIRYrEYsixjt9uv+5r85bDZbNx3373/P3tvHiXHced3fiKz7ur7RN8AGt24j4ZI8AB4gPetoaTRQY2k2bG1Y82u7Rnv+p/dt3/seN+z/Z7fjLX2eD32znpmpLFuUqQo8SZIgjdxE8R9N9D33eiq7qrKjP0jqrqjozOrGyQlAGR+3wOyKjMyrqzO7++KX7B9583YcUk8ESOZSBK2Q0QTUayQjW1buJbDwaG3GO0+sqTAO4Vr6VctCNthwuRXaCyKa8PVIKXKVJeVWaZmxhlM9zKQ6mE41cfEzCgZN50n+WkS4RIebP8mNfFlgMDSNPyMM0P/1EUO9r/FtJPCwqK1vJP6ZPNnetc5EwHJf4ZR+LOuStjsWF5CV2OCyxmHsWmHwcs5eiezXBrP0DORpWcyx+BEjkQsSjweQ8j8PtqOSsjjSMlQWvLmxRn6pxzSWUnWkVQnQqyri7CyKkpDWYTqZIhlJSGWlYYXELxX365pzJK7ACcDg2fgwnvI7veh5wjUrUVs/haEqyGdUubzXJ4MXBda7kDggJ1QwXHYKOIuaOPg/2LVNUJNyDDNrpYNFR2IZD003wET52DiLEx2w1QfpPph9CxyagQqViHGJoBhiMQgGoWQTX//AE8++SSvv/46qVSK7du3853vfIeOjo55mwR9EoyNjTE5OYlt28Tj8d9KdP1SEY/H2bZtG+Mzw6ScCSUM2yrFqe7znXHS2CHrY6xQvPrm+oW41vrjjUIq2rGZYY4M7eX06GEGUz1k3GlyToaZXJqczJF1ZnCkw7LkckIiQkWsLv/XMrdvt22F6KzagiUsHDdHLJRkU/2tVMXrPzf+eAhI/nOBkCUoi9mURi1cGZr1u2dyklTWZTSdY3DKoX8yy+amBIlYOE8tEumq7UFdKSmZyiBEmkgIOmsirK6Nsro2Rkt5hPK4RdS2sK18QN/1npnPdSA7DZP90L0Pzr2J7D2IHD4H0yPgZhGXh6CsC6pWK7O9BHBQZC4gXAq4muYOc+JNgQh0X7nXi9g013vUY4fBqoRoJSQbYNmNiGwapkchPYxMXUKkhhAlq2FwDMan1bK7SJQUghdffIlnfvlL+vv6WLliOd/+9rfY2tVFNBr9FCZSaWaFwLtwOEwsFps9fzVetirCP86MiJGZmZo1iekEr6eVvvJ00lffXH89QyLJuBmOj+zn/Ngxcm4O2woRsaO0V26mNFpOXaKJyngtVbF6VlVumN2wRkdZtIobG3eyqf4WpMxvVhNOErFjV2FUVw8ByX9OYAlAaNmaLUE8BOUxm/rSEKtccBxJNCSwddO/lQ/KAlqrbb62pYpExKaxNER5zCYetham2l0sI+u1DNeBy4PQ/QHywgdwcR9y8ChcHoJcWpWJVCIqViNqNkGk3IiqLoy8QO4Fgvcyv+vwInM/n7xJ9pogYYeAMITjEK+CihUId4vqux1Vt81MQyZN7jK8uWcfP/zBP3Dy5EnKwg5P3FjHvZvbKCtNfmoEnM1mmZ6exnVdbNu+qlp8ASq4zla5KJhP6lop+NyEZ107kEB9opn1tTepPe4TLawsX0tT2QqqYvVEQlHidpKQHVZ56K2Q51OyRYhkuIxEuHRWoPw8Ps2A5D9nEAs+gI3AskH4BMEVltRUxkPc2lZCyAJbiN9mVtXfLgqBbnpwUSEy3nVh+Bzynb9Bnn0DnLRKRGPHoWINorYLUbVGRcHHqhSZzgtS0gnYobhZ3k+LX2Sp0zwBoFB/wYJQiETOuwSEwLUjjE7nGOjtp7GujrKSJNJx2Hf0GP/lF0/y/uHDxESGb68XfL36CHVnn8FqXQkVLfApRMGnUikmJyfJ5XKUlJSQSCSumk9ebb0q6bl8jiODexhK97Kl/lZKI2VG6tr8s5ESR7o40lm8bumqzaWuE9P4tYaCqT4ZKScZLuPO1i+ytf52KmJVxEMlRKyo8qULZl0r+fRHRetV0fjX68vqkyMg+QDA0jRvS0AsdB3/sch8oJtl5a3lhYh2of45DqSnYSoL047ys5fWImpvQDTfCZWrIJRQvCosFKnCfO1aGP+KBc/pR1hI+l6+Xb1evc4CwVvzvksVFcC5oQH++sc/paOxie9++XFGp6b4wXMvsGvvfjI5yd3r6nhi6xRt0XGsgz+DtltgYx2IvBn0E0RbS6lcPlJKwuEw0Wh0drXF7xxSkfGB/jf59am/ZzDVw7JkC+XVm3BlltlnINS8h+0IZdEqck5m0T8SKV1Ko5WErDBCBES/VBS0bFvYlEYrKQlXYFshorEYVbHaecvldHwetfKPg4DkA3x2ITWilFJp6ekxGD6v0st4hyDQAAAgAElEQVSuvFWtT59Ow9QUTIzD5UlITyOa70FUbYTK1VDaqEzdQje96yRceNlYzCdfneD9llbpdZkoVlYne8s4P3cUCKTjMDwwwr5jJ3jq9d3sPXGC2opKnn3rbSbSabo6O/iDbzxBZ/0o9rmfw1QPcvf3EVYYmjdDaR1E4hQsA1eKgibvOM7ssrmrqVkJIaiI1GApXxR9qYu0V64DCn55NX8RO8am+lvpqNy0JO1cAkLYlERKr6l15tcqXOkynUthixCJcAml0QpKIhXYYm5PhoDGPzkCkg/w2YOUSmsvEElqAgaOIy/ugVNvIgeOIKKliLv+L4jUQXpKRca7rtLg7BjUb9G0V3PBX7FgOC/NXP/sdd2MpF+K6d6MtHdRf84FF4Eif4kkk3Po6e+jb2SE0YlJntn9FpZlkc5kaKmt5Zv33cMdm7soKYlDdgh57hlk7z7ks/8roqod2m5GbHgUmrvyPv8rw8zMDKlUCiklyWSSZDJ51fzySriwqEs2EQ8niYUSnBk5TEfleuIhFZQVDyUBiZvfvzx+JZuYXD9rQ686hlJ97O17nbJoFbe3PjKf4AN8aghmNMBnFyPdyKMvwInfIM/vVdq7nVOKvYggPnoZOr6UD6izADHnm9eIcqEGDfPf5KYG76dhWygS1mFm6vLwCy+4rrdXaMvW6ta+C8G063B+oJ/+0VFcKZnObxQjpOTmzZu49447qK6qRDgutNwNY2eRA3tg/Dxy6iKc3Y3c89+wHv630PU1sAtzsjTomrtlWWq52lXU5KWUVCfqKY9UM2z3c3xkP4PpXqVNhitoKe+gs2ozDSUtuK5zZX0NCH5RCATD6QHe6P4VHw68CwjKo1VUx+qJh0uudvc+cwhIPsBnC6kxOLkbDj+JvPA2cqxb7d4WDkMkApRBshmr6Xao7wI3xZw/WydmmE/wXibxAgpmeQf1J5VTdcqc+i4K5fPn562TN9ONmkvszGu6AFGoz4zsn19+OjVN/+DIbArXQgpbgNf37KX1ySf5o8cepb2xgXD5SsQX/hQGD0LvB8iRj0CMQrweajqvmOBhzlzvui6xWGw2293VgkBQGavlzuVf5OzBo4SsMMPpHgZTDq7rcnRkLzNOmraydqbdFAvHKzVxL2D1K4GULgOpXnadf5oPB9/BEoK1NTeoZXChz08Wut8lApIP8NmB60LvUeQbf4HsflsthwuFECXLoHQloqITajdBRSdES5U53s0xR7jFotyLJTjRtfs8AbsO7D8MleWwYnmeyxeSxdzRm6AXnvOKrPfqV17wkJLh0WFOdnd7LvjuGxnhb55+lsnLKf75179CZ2srVrIBkVgGTXciJk7D8EdQfzOUrfhY5mjHccjlcgCUlZVRXl7+qSXZ+ThQq0Vsbmq8j/JoLQcH3mIk3cfEzBjj08M4MkdrWSchO0pIOrj5fQQkEsd1GJ8ZYcZJE7Gj2CJENBTHtubcD1beamMLy983LzVBwTNGQT1j76V91yckksFUL29dfI5jw3uwhc26mht4pOM7tFduwP4cZaH7XSIg+QDXB/TUsrKwLrywzMmFbBYuX4YUYJVCog4Rr4eaLkRdF5Q0q93ZrHyKT+nMLTNbsP7cb2kbFGc47b7jJ+Evvw+RMHz1K3DbDihJqO3+Zl/ofhq433nPiTE+624GF0dC7/AwRy9cyC/nn0tAI4QgEY3S1tBA27J6EtGYalE6qq5wBKrWquBDIWCwH8rK5vzy0oVsGqxQPh++d5+z2SwzMzMqXWk+qv5aWNIUsaNsrL2JdTVfIJ1LMZ2b4nJmgomZEVrKOyiPVJKLZMm4M8zk0mScGVLZId7reZmPht4nFoojsAhb0Xyud4lthSiJVFARrWVz/a3UJpYtiAKXSPpTFxlK9WEJi0S4hGS4dHZJmBA2IRFGCIt4KE7Uji34Faogv/xSsutEEBhJD/L2xRc4NPAOGWeadTU38mD7t1hVuYmQdfWEvs86ApIPcO2iEEDn5sDJwswUTPQrYqlaDvEKldhlYgKGhyA1Ba6DaH0M0fooVLWrXdhkPpWsdPMmdD3IzTTHF+AVHFeAW+S6hMtp+MnP4PQptVzvL74PZ8/DV38PyivV/r7C1tr0Ey5064EZF6D32TwWloEJstksfUOj9AwOKXK1LMKhEIlYlIaaGu7bto3vPPIQ69tXEBJowpTQms6nCr08AZOTUFqm5vLyEOz/KSQrYM39kKxS+fw1UpNSMjU1xcTEBFJK4vE4sVjs6i2hMyCEICTClEbKKY2UU5tonHfdJkTUjlMarsCVDulcionMCMOpXkJWBCnduV+GKPznUhVfRmf1ZkIijCWEFh7pgpTs6Xmd17t/iZUPjpSFFSBALJSkMlpPPJxkR8uDdC3bQdbNzFkFJFhCkM5eZjIzTjJcStSO5aPRxbWxuYwGieRydoK9/W+wp28XrnRYXr6Gh1Z9iw1124KlcL9lBCQf4BpD/mXn5NQWrelxGD2P7DsC3Xvgwnsqy9yNf4Ko7VKbwsxMq1uFUKRaty5flQNuljkCLAS/6T53WBg0B3jrTloZk5CFMsfLHOzaDR/szVftqmV5P/4xnDgODz8MWzdBeTmz2wX6RtSbL2szWl+/z+N+CVOpNGcudmNZFolYlIqSUjpamrlzaxcPb7+F9atWEQ2HlXtBFtr0cE1I1AqE7vNQWa1OjF9A7vsxcuQY4tTjiJv+CFq61KY4GoEX1sgLIWbXyF+tlLafDIKScBnrq2+iJFTOjDOtTPnAtJMilZ3ERc1jZbyO+kQzNYmG/DjVWJ28+b822UBlrA6rMAcSsm4WV6pkOmOZATKyBBeHRLiMnJvBEmoraFe6OG6Oj4b28u6ll6iIVdNc1k5DSRtVsToSoSQRK45te68v/91CMpW5zL7+3Xxw6WUsYdFesZ4H259gXc0N10D/PvsISD7AtQMpITsDqSEYOQ8XDyB7DyF7DsHoWZgZB0CULoeek2A1Ko3YJIuCuXmexo52zgyeM5fHeb14vJbDFcoXTks4fQGefBJGR4xxZWHPXrjUA3ffCXfshJXLIRLyqFOvu5gpVif6hfnxJTA2OcmJ7ou01NWypbOD27q62L55E6vbWilLxFVJ1zHqMgP8tGj91CRMp9SYLvflBZsM8sgvYWoQcev3oGNnfl298sen02lmZmYACIVChEKh65DgwRIW1fF67mh7jIxzHzk3O7uPedbNkHVncPPfbStEXaKJaCiO+WyllGyqvYWott2plJLJ7BiZfOpkVzrYVpiWUrX3ObjKNE9eM86MM5TuZWS6j57J05wcOUhppJy6ZAuNpStoLFlOQ7KVsmjlVdXsJeDkN5QJ2xHqk83cvfzLbKy7xTPffIBPHwHJB7g2ICVk0nD6LeSRZ+DiHhg6g8xOqlR7dgwSjYjSNqjvQlSs0gjeJGY/n7eXJu5levftpEc5TWAYGYcf/AOcObMwyE1KlVGvpweefBpOdsO3vwVdqyHnLBRUFozFbM+8bpK9Iums41BVXs6fPfE17r7pJtoaGojZFpYQWPPq8gs4NJEPKgSIVSLav6TiCYcPIc++CpkphLCh43ZkKIbjOExPT5PJZLAsi9LS0k9t45urgZAVIhkuIRFOzjsvtf+BvNncO5BMCEFH1SZW5BPwFG51cTT/ujLhh60oISuEmYwnHkqyoXYbQgpOjx1mYmaEycw4YzPDHB/eR1m0mvbKTdzcdA8NyZarRvQCQUWsmlubH6Q23khJuJwty27PL5W7/gS96xEByQe4NuDmYGIA+e7/i/zwZ2rJW6wMyloQ0Xqo7ETUbITylRCrUH5iqa8VL8CPiAtHL40Vn+umn362s8yLyJcSZjLw0ivwztuQ8dl7vED0MzOQTUHEVpqwT2T1/L7DQvO9rmkv7KsAljcs43//R39IdXk5kVAY6eSwBB6atDkfevS+HpjI3NGOQePNWIla5JG/RQ7tQ176AN7+T2qpXf06pBUnm83MZruLRCLXxAY1Hx9idi+HTwJL2ISNZyCZH3wmhFBZ+VSr867FQglubryPTbW30DfVzdmxoxwZ+oDR6QHGpocZmR5gb++rZHJpHu74A8ojlQsEhd8FVPBgkrpEM+0V60BCJBQlIPjfHQKSD/BbhqYtSqnI3LLzJJ0nvcyMyjo3MQ2RGihrQ5Q3Q1k7VHQiytogUQeh/GYws5HxZjuwULP10tKLRc+bwW1eAXHGC0oAZ87B7rcU2QuxUJMvwLahuRkeegDWrMwv4fOpd0mR/JLZzHx6Gt88OcSjURrjcXAchHSLbDhjujaABcIRHtcllC1HdH4NrBCy/33k+d2Qm4Lmm8nWb2ViuI9UKo1t20Sj0euc5D8dFJbxfRKozVzKaA+vZ0X5arY13kXf5QucHT/Gh4PvcmxoLzNOiplcGhGtyrsWfhfkmv8dCZUauCRSQTQU0wSVgOB/lwhIPsBvDwWikw5MT8LASZjogbYb1A5u6bRa9jY1CakUZHOI2psh2oCoWAHRKggn5zaUQeb97fnPRf3kOmnp13Tt16ueQl1+xLtgkKo+V0IiNqeV+xF9sgS2b4dbbzH6vRSfvDFGKSGThZ4+aGqEeBgcI+5ASsg5+Q1TljIWfdyGxWLB+fzYLaBqNaLjK0rg6H0TeXY38sJB3M7HyU2pzHEh2yYej1+1Heg+ixAIEGCLMOXRasoiVayoWMe66i/wzqUXaK/cQH2yBXd2VYkSMH5by+6EsHBlDrW0MEJZtJJofqlhgKuD4K8twKcImeel/LK3mctqb/bhc9CzH3nyDZjsR9z2v0DdVphMqc1hZJ48hISKlYiKlZpW6kWWfoF0Xp/1e7wC2bwSynhp+H5af/64rhO++Q2IJ+GjwzA4qILtpFYuHIE1q2HnbVCWVKZ6XxOqH+nnj4WPBw/D08/Cthtg21aorlZr8zXz+tJj3MygxPn+/flL9dz5160wVK1FdH4dwmUwfhqZy+JaZcxMzpCdmUZYFpFwGNs25zzQ7D4tCCGI2FFayztpKluBwGIiM8b49BAgcdwc006asBUhbEc+teh2F5eMM83Y9AjD6V6Wl6+hOV5HIlT6qdQf4OMjIPkAnx5cV61ln+yD4bPIvo+g9xD0fQTDp5C5NMRqEOePgFwGIpLnY404pGThPuxeZFAs0M5Pa9XJ38w3X4ApGPjVY/TBsmDrFqith3ffgdd3w/HjMDGZL2pBTY0y069q18i/WAyBV8BggVQF9PbCT34B770DHx6Cjz6EO++AtWtUpj0p87easQd+MOMA/I6ux3mhxlixCtZ9BzF5ATE9imPXMT16iGx6mmgoRHk4RNRx1BLJgjUiFOaTbGUbwBu2UD7+qB0jHk6Sc7OMpofY37+b8lg1reUdVEZrCFkRyAf6LYX0C779wp7u07k0g6leuidOcmbsCCPpfm5vfYy28tUszRoW4LeJgOQDfDrITMHACeS59+DSARg8jhw7qxKmuC7EqxHVG6G8U6VHFbbxt29q5eZ5tOv4fL8SLOXlY/bDFCIK1/Nas+NCUx08cB+sWAnvvgsvvwp9vZBIwF074ZabIBzSur1U8tXGKoCJNPz0GTiwV0W7Dw/BK7vgwkXVxp13QluL1u9P+qItFi8g5n+MVUC0HJws7lSKjLOfnOsQJ0Q8nSI80KesC2MnQWagZSskKj6FPgbwQsSOURGtIe2kGErv5c3u31Aeq6J5vJ32ig20lndSEa0iZIVmlwAWgy1sJDA5M8ZA6iLnx09xfvwoA1MXmciMErUTTM6MknNzAcVfAwhIPsCnAAnpCeRHzyP3/QCmeiGXATuKKGlTueKr1yIqO1QAXTipSH6BebiAYr52/dximrtHP+dp8nBlS+i82jXOSyAeg83rYUUrtLTCc89DMgFffhzKSw2C9xpDkfmQqGDFd9+Hl1+B6WmlDUupYhyOHFEa/tkLcN9d0LUZ4ley8YefW8J8Jl7mfJ3sBVghchKmpqeZyWQpjSeIWwJ7Ygw5eARO/gzcFGLnv4BVd0Lo+l1ady3DFja2rYg5Fk4SC8UZSfczOj3IhfGTNJetoq28k/pkC5WxGhKhJLYV8tTqs06G4XQ/PZfP0TN5lu7J0wyn+5nJTWFbIZYl29hcv4MbG3YSDyU/NXdAgI+PgOQDfDK4roqOn5qG1LTysUerENVtUN6BqOyE8uUq0M4KMV+z9Ar0Wkyb/yS6ga59+5nJP4m1QAI2iHxwYGUFPHCPCooTEpqWaRvi+BG83q4HLKES7rz4PIwPz49XkBJyORgagtdeg0sXYfBReOAuWNLadL+x63NmptAtXp8LZBwHx3UJh8PEkwnlk+87jLy0B2aG4N1yREUL1K1WKy8C/FYQtiKsqe7iK2u/x+HB9zgzeoThdB9D6V5OjR6iKr6M6ng9TSXLWVPdRWWsdkEdk5kx3r70AidG9pPKTJJ1s5REymmtWM3K8vWsr7mRzurNlEerfPMEBPjdIiD5AIsgr53q0eJCqOC66WmYGFdpW6cuI0o6oOPLEE6qZW/JZXNau2AuwG4BwRWOSyFvr6A6k4xMItfLeAkZxngX3OvlI/cj5sIc5Zf6hW2l1UuY2xDHrx2zPcNPLYTS1l95A44cVUl0vJLuSKkEr/MXlEbvLEVI8dPevY5+/V7YXSebJZOexpUSYQmElU9gVL0WUbMJ2fsG8uRLUNuBuOPPIFl9JZGCAa4AhYx9tzTdz8qKdZwZO8LJkUOcHDnEYKqHC5ljdI+fYKx8kNay1dQllGBY2FDIFjYZZ4bLmXEuZyaoitWzvGI1KyvW0VLeQVPJSqpidYTscKDBX0MISD5AcRSIOT0JJ19TW7S2bYOxMZW6dToF2YxSwpONiLYaRep2JB9MJVEBdbAw6M3vRaCTmx/JmPDSyAv1FAL59Hq8CLuYy0D3yQsWEr2XQGErYi+sTZ8tYvZBv0dvW28zf37Pftj9utqUxy3iP7VtaGyAbV0Qixjteo3TT2Ap9NN0a5h1meMBhEUukyWdSiFdl+qyMsoSynUgylph+QOQuoQcOYI8+FNE2y2w+h4Ix/zHFeATQSCIheK0lK2iLtnMupobGEj10Hf5POfGj9M9cZqqWC0VsWoqY7X59fwChMjvmFfGrc0PcGPjXSxLtlAdX0ZFrIZ4ERN/gKuLgOQDLERh+ZqUMDUCPYeQHz0Hp16BmvWI6TDkbLVETN0ACLWMasGWkYuRR4HI/KLd/eopBpPwF9OeTV+9aV3wMu37afXF3A76vVemFSOEMsVfuKS0eS+Dhl42noRb74DNG7UEOIvFHng9Fz/3iZ8FQpUtRGAX9pKXqMQ80XBBy7OgcjVi2a3IVE9+s5v/jqjrhJqVeddOgN8OVMrdeCipstElm+ms3MSW+h1MzIxiCYvaZCOx8EKfesiKsK3xbiJ2lIgVuy73IPi8IfhLCjAfBYLPTMPFvciPnoWzu5FDJ2FmEiFD0HMCqjpUWW2HrSVUjr8WWExj/zh+eC8in7/X+kJC9roPvNnUTxBYal8X833DvHoKLpMdN6k+v/IqnDoNueyciZ58mUgEtmyGB+9We9jrOQd8x2SSuxfBF45+c6jVKwHLYiqTYXzqMq7rEguHicxmuxNKY2+8BTF8GDn0PvLMa4jjL0LlP8Zz46EAvxUIBNFQnNpQnJpEw+w5v7KlkYrfZfcCfEIEJB9gDgUyGDyDPPAjOPo8cvQ0pMfAAbHsBkTrfVCyTCN48Nby/DRY/ViMeM16zToKn/1M0CbpegkSZh1eGvZiROOlxfslkSlWt1872lxZFjQ3wUP3w+pOeO4F2LVLafYFWDa0rIRvPAEtDQt99vP6rUOPFyi06yUEeFkpvM0KUsBMLkt6ZgYBlCbixCP5/eZFvp6SZsTyR2D8BDI1iNz7D4iVO6Fhbb7qgOh/lwjM7Z89BCQfQEFKlaHuo+eQ+36I7H4PshPgWojSVdC8E9F0q1oCNxslb/qOl2oO1s3ixfzgxerQoWuSS+2L3g9TuFisD3pZ3byvE6BO5l5uCC/iN/uGdsz3xRJQVgabNkBbG7SvgGeehe5u9QxLSuDhe6FrLXPJcPwSzXgJKF7lC+UKW9L6+QnypSWzaVOlFEhXfbZtG8uy5lsWrJDaVbDpLuT5XyN7D8Lb/w/i0X8D0aRvGwECBFgaApIPoCAd5K6/RO77IUx0g8wg4o2IpjuhaQeUd0BIZcbK33DlbQhh3OalAXvvqGZUhL9f2I80PfZGB/w108WSgpimdT//tV88gJ9QotfvI2RYQmnsNRXw+GOwqkPtYX/gIHTdAHfdmSd4M2ugVxte4/Kbe9Nis1BQyWQzDIxOkM7OUFZayuDYKMMTk0igLJEgEY0gLAFS248gnIDljyDGT8PlSyDC+aWGAQIE+KQISP7zDN3k7krEjEBO9YNlIxoeRLTdBRVrIJIAEWK+Gb2I/3iugfnnhZXnT5eFpGhqv37w89fr53UrgZc7wGFRn/KifnqzT+a9Zl9N0i7mk/eDXsZS44jFoGsjtDXDnn3Q2go11UZdfm4Vv3GY7elCEqpdbBbMnxCMTaX56Ysv8fwH71OaKGF0YoIzvT24rssHR4/zH3/2C+qqqkhEIty5tYuO1hZCloCyBsTqJ1QSpU33QKw0MNUHCPApICD5zw0KwVli7uUphNo9bWoSei9B/Q5E81FE/Rao3wx2lLnMdDA/Sxz4k71GRtJVy7kGB+HAEVjbAc2NKmBs1uxfqNvUDmGhMFAgFpMYzQA6/X6zbr+jH9maQojpv9bJzuxHAeaYTA3fy0Qujeu6hUHMnQuFoLYG7t+phDGrcL1gXseoq5iwoc+BTu56YhNzZzr1WUpIxKOUlyU5du4CA6NjOK6L47pIKTlw8iRHz53Dti26Vq1i86r2ub6IMNRuUZ8nMioHQzwREH2AAJ8QAcl/1iFd9c/Nb/dqWRArU+SeSsHIsMp7np0BEUJs/V7+RpNYdRO6SQYmeWhHYcHlNPzqBXjmV1BXD1/+Mmy/ARL5HO7Ci8i91spjnPcyixfKm5/1ugtWCa+xeVkJ/MZn9sNcqqbX4eWK8OqnV73k79WFg8K5fH1CgB026tfL+sUAmH01LStelhOJIn3dUiIRSGKRKKvbV9He3EzP0DCu687enctnvqssKeHRnXeyuqMD2xbMBgdaeUtPZhp6umF5u9q8JkCAAB8bAcl/ZiEVuWdmYOwi8uIHcOI1RHkLrH8c3DiMjyqNaZ5GXjBlm+QI/hqqn6lZKOHi0CF4800YGoSBfujrgUO3wWNfhI5WlZHNNn3yRcblq3F79cXsu2WM0Wb+rnfmvaalwqsf5nzp/dDX/5u5AEzNvBi5FrOieGnrfi4GLyFGb0O/37Sq6FYU3WQ/V84S0FpXy41r13DgxEkm8olwALUNaijEnVu7uO+mbVQkYnN++cJ4paUElrExGB+DqppAmw8Q4BMgIPnPJKQi19FLcODnyA+fRA6ehNwkxCsQKQnNO1kY4FYwCRde4iHmAtS8CH4RCAH9g/Diy3D2rDLRgyL7p59WgWLf+QO4/y6YyUHo03iZmyStB9p5Bd7BQqFiTjtVMMftJUSY1033gkn6pkDi56PXiV8nXi+3hU76fkv3dBQT4PzcCYU+6ASv7V0PVJWV0rV2NfW732R8aiqfMEX1f1l1FffuuJXG2mqEK/P8ba5QsJVvfqAPyioglHcZBWQfIMAVI9jE+TMHqci09wi8/K+Rr/wrZM/7IKcgFIfIMiACbiFbnZachBzzCb7wHa2MT5teGmIuC2+/A/sPKNdAoZjjqp3Uzp2Gf/3v4M//I8yktTStfuZwv3PFNFhT6/ciRb2OwvjRypjtO8Z3VzsWBCMLNX+6Wdthznpg1uvVjjkmU/PX+13QrPV7XKNMsXn1slQ4LLynMC7z/rkzyUiUrR0d3Lh2LZZl5UleEA1HuG3zZm5fv5bKeBxLWHjPQb4vE+Mw1AtTw2p5Z4AAAa4YgSb/WYKUal/3s+8g3/wPauMPQCRboHojou4LULMhvyNcgRC8zL9mbnlzW1Yvrc/QRKUL7++FXz8H/QML++q64ApwpuDXP4HMGPzLP1XrvOeZz8HfHeAF04Sua7W6Fl/M5G9q1yYBFuubrkHrEei6P91rvflStG2vvhXztS/FnaHDdBfo5XRLiNeyQG0+LUF9bQ1fWLeGF959j6GJcUDQ3tTEgztupbWxSW1Us6BvRv3pUXj3deTYAei4B7Ht2ypLXqDRBwiwZAQk/1mBdFVg3bGXkG/938gL74IdQVRvRqz4ItRuVOuRhUnIsNC3axKgSQxeZCTmX+6+BM/+Bk6eUn3z7rR6YYeiahvWeIzFffJe8NJQ/QLrvLTTpcI0oXu1B/PnT2/fy3+Px+dCHSZMs79uwfB7dl7994MuOJgJhrzOebkVAOlSGo+zbeMGtnSu4tW9+4lHozx0y83c2bWFZCyiYi0XCBS6yR5IDSIP/lfkdC/CycKae6GqFbWcM0CAAEtBYK7/TECq5CH9x5Gv/wXywtsQiiHqbkSs/RY03QKRUuYvhzM1SDNbmzu//nmaqLmDnGYWllKZ5t9+F44cASfnr3kJoSKqb9oG/+iP1FK7eSZyk7iKmeVNWNpRJxJdg/Qzx3v5uPVrxfriFrluBvf5ka5fe/q1wnI9/ZxuofAKovMKLtTb0fuum9L1o2n5WVhOYGEhWNfWyr3bbqS6rIztmzbwpXt20lBbjZiXatcM7tOsR+WtyGQ9ODlk7yG4sFcJqb5CY4AAAUwEJP+ZgQArBmXLIdmMaNqJWPMtqMrnAJ9H3vrL2SQPrb5568hhIVn5kFchveqyRigrV+TtRfRCQEsLfOsPIJLfltWXRHVS8eqv3m/9XozvXsKLl5nbPK9f0z+ba8a91uAXruvjg+Javf5c9IBIPM6b2n3B/6+7WxYTkAr364Kc13PQ2zR9/lo56VKWSHDD+vXc2bWFR3bcyoblbRx6AnMAACAASURBVAjXtBB5PYP851AMa8WXwApDegB5+jWYSeH/7AMECGAisHt9FiAlZLLgRBGtDyFKOqFyDZQ24e3rNUltMa3Yy5fro4UKASVJlVp12TJ44w147wPo61P7zutaXEkJPPQgrOlQ26iKpcicSzE5C+NomppnO7tIW0shE3MuC0e9fS+Tut+9xeo3hR7TGqNf86vDPO/nhtEFK9Md4ZeQaO4oXAf6+lmbSvPde+6ifkUb8VhMK+d1n0f/ajcgKtYiRw/D+feg7ygsv4H5GyQFCBDADwHJX/eQMJOB/l4YGoZkCySbmfO9my/yxczDRt1Ffbw6iRnlEjH4wiZoa4Xl7fDyy3DyuDLlu656QXdtgXt2QsjK+1nNdLMfF8XM4SYBF8Ni477S/iy1fv0eP1eC3z1eFoiPg8XaWETIGBlBPPscdR9+xG137MBatxZbuiiXkfl78VruJxWRR0sRLfcgR48hx87D6V2I5s35xD8BAgRYDAHJX+/IZGCoHwb75/zfEoq/pL1SwJqfvV7muna32I5t+e+1VfDY/bCiVUXaHzoI/f1QXw9ffhzq6/ICiddGMV51XwnJ+RGkHwleiabvN196hLhXjvdiWfH8vhfrg5e1wjSJL2Vevdr2es6F86Zwp11LT8PBw/D2O4gzp4n09kD/ENx1B7S1QCKuaeFevzG9OhtqNiJKmpBTl+D4q7Dlq1DV5jcpAQIE0BCQ/HUHqRKFuDmwYzA8mCd4zQcrvF7qfn5YL1I3/cteZmbTOuDhEij0IxSCrZsVsb/9Frz7Ltx8C2za5GFy1dvVz+n+ZT943aPXt1jgm5dbw08o8NPwdT91MbP0UsnXg0QXmNK9+mGa2BcTGhYj/AIWJsCZf9mFixfh9TfgQrfywff2wpPPwLnzsPN22LoF6mrB9lqKaMy1dCFZC1XrYeoicuAo9B5GVLbkhcPAZB8gQDEEJH89obAP96UP4fw70HIXjE/BzIxW6EpIySQP88X9KZp9pQuNdfDQ/bBpPTQ0QLRgctXNtl7tfhKt10uI8apXh06iXueXeo8fiev3mGWLlTHP62lyzbYXs3iYGrrp2llszs1+5IW6iUl4+z3YdwBmppmNwZiehPffhQvdcPI03L0TOldpvwG9Xe15ScCOIarWInt3g5OGs+9D+x0QKwk4PkCARRCQ/HUFCVMjyPf/Fg78d1ixF9H+RYjX4O0nXaSuBd8XM28vtslJMXLO35NIwOrVgJMv7mcx+DgChjn+YsRZrK1i5FisXS8Tvl8bZj/Muvyu+9VnmruvVEAp1rfFrAH5+2dm4MCH8PwLMDrKvCBLKSGbhYvn4VeDiuy/+XXYvD6ftla33mjtifyxYhWUrgDhKPnEyXhYgQIECGAiIPnrBVJCJgUHfwFHnkJmxxGDH0LbQ/kCV/rCW0zj9PqsE0kxEvbSnDVNURbq9LgGeFsUlkK8pobp1TVpVOVF8CbJmqRq9tfsR+G73/i8ynv5pM069KNpMvcSLLzM9V6CoJ8gYfbPFPi0+h0HzpyF556Hc+c86itUIyGdgrOnYGQon8pY3xXQQ4gUFpQ0IlY+BvEEYsNdEC3xbyNAgACzCEj+uoBUG86cfgP51n9CTg0gEo2IVV9W/spPUq/vjnNe300sRrw6QRUj49+GRuZRp2WBzJPfJ/ZELKXPXlHji5nwvbBYZ5dan5f1xcsqs5T2tDqkhNExeP1NOHiw+K1CqKWTO++CDesh7GWuN9sSEE4gmm6FaBIqV0A4ukgfAwQIAEEynOsDEhg+i3zrr5EjxxGhBKL1QWi8KZ+DvlDI68alwktb9SKoQllTK/XyYZvl9etewVtXSoB+bgLzev7zuW547gUYz292Ihebn6X2o1j7fuNZzBJSgMvSnqOf+0UT4KRfP5ZiofEjf6HmMeeoqHrH8TejC6GCMNevg7vv1FZWFOrXj0a7wlaBphJlCXC9ov4DBAhgItDkrwfMXEZ++EvkhbfUC7W6C1rvBTtCcQJYil92Mf+vfs3L71uMGJYqZCxG1n7wMoMXzmsWCuHCZAqe/hXsfhOOnIR77oDVHSpfvmvmZNfrWcocFrNo+C1BM+sqpkEv5jrxM9GjiDXnqmREk1PQ2gzJeJGpLiaUmLET+fPCgqoKuP8eReK734b+HiMgNI9ly+COO9RSOuEV46EfPQRBYUEoHPjjAwRYIgKSvx5w8SAc/iVkJxGRWsSKhyFZj/+L18RSyMPLZ+xHeCZ5FRMevPzSXvUuVYM3feSF717+aZRQZIfgvT2w6zW1Rv83z8KFM7DjdrjnTqgsW0S++Li2fS9/vx+ZX4mwpddXOJoCT8EtIWBwGJ76FVy4ADd+AbbfolY3CK96/ODjLy9cikSV0FRdBStXwiuvwf59MD01V288ATfcoJbQJRJGc3rdXi6k/PlECbK0LL99bYAAARZDQPLXOnIzyL0/RA58BI6D6HwI6rfmX5B64pViflW/F6LpM9a/e0W8m+RarG4vQvMz95vtmGMwy2J8190BGilI1Frsnl548ikYGFBae2oK9u2HC5fgyGH4/S/D2tVak3qdel+8SBvjmk5U5ppyc76XAtPFYbalz4lpwbAglYZ33oUXXoDJSTh9Gk6cggfvh43rlE98NkXsUrR4nXSNflgC6mrgzu1KU3+pCV5+CUZGVP3r1sHdd0FDvYqPWCCceAkw+XJWCOwQsroGojECBAiwNAQkf63j2C44uQsyKUT1Rmi7X23NKvWXI8wnFlgakejEWLi/cF6vw8uk6nXuSl0Bep8L+7zrY9DLFRMmvEy9eeKamIT/72/zO+I5+ctSLefq64FdwzA8Cg89ALfeBGUlzPmuzTEWI/2ljN0vuZDfOP3I3Mvcr9+TL5d14MhRePoZGB5W4+7thV27oKcH7r8Ptt8MVZU+delterWP8T3/e0okYG2n8rmvbIdfPw8TI2pt/IY1+WA7/XdlCqrGdzcD4xchWYEINRPkrQ8QYOkISP5aR7IK0bAVCCNWfgmSdXO532dhat5LMf3qKPZy9zPR+73o9ftNUjS12mLnrxTGuCWQmYFXXlfb3nr5h6WE6Wk4sB9GR2A6DY8/Cq7Md8HLqoDx2RyrXt48mhaXpYxJb0OihCHTVeHRvuvAwCC8+DKcPctskKGUMDUFhw/D8AicOAE774C1ayAe9zGhe302yxlHy4KaKrj7NmhpVFaEtZ0Qixq368TuY66fGUce/wkwA9MPILZ/F2JlAdEHCLAEBCR/raOqHdZ8E1F3HsrbURqqaabXX/rmDmFXApOY/MzDfv7ZpWjcXqSka3QfF1o/ZJ5kzpyDl1+FiQmKRtLncjCVglhC3efkPMbhReJ63/36tBS3hscYFoVueTFN3hKyOdizT5nqM9mFt2cyKv3sxLjS6r/2FdiyWfnWhV6/aa3Qn5X5OzPHKtVGRRvWKMEpHPIZolfe/fx3YcH0KAwfQuZSiOaNqE1uAgQIsBQES+iuZUgJI6MQKoPqNRCOM/+FWCAj/TF6+Yk9K88f/XKtSxZq7uZ5P/OtV1tC+6fvj+4nROhYisYm5w7Cgqk0vPQqnDqpTPPFEIvBthvglhsVOXrm0/eDl7ugADOAzCTmpT4rv3Ydo878b8N1YXAIfpk30/vV7TpKABofB6fwTPU0uX4CZMGtov+G9LLaPUIoco9GlM9+we/O/OyBy5cgPQAyBPWdEIkXLx8gQIBZBCR/LWNyHMbGlI/YirAwOKpguvXSKk1iNaFf8zIpe/nn/TRTnQi8iN8kDFOAMJdK+ZmDi8HSmpWKUMoroaS0uFnXtmH5cnjwASgtYf7uaH4wSdmck8K8emWcM+8tJiiZZnlzTgvPSNv1TqKI+7/+Nzh5QmnQvsOQyn/+hRugY1Vei9efu58bwit/gt6/xT6bY7VYuHtfvh+uC+NnkTKHKKlA1K7X+hggQIDFEPy1XGuQUv3LZmB4SB1nsZjJ20srJq9BQXHi8vK96i91v7SjpqbqVSdIKZG4IPKmdGEjkXkO0rdktVQ5SyxNgfdsT0A0Cl98GL73T2DFinybYj7hC6FI7uGHlL9Y6HUU3+FMAm4h+FGI2fqllEjpNRf6nX6C15XCXMaYx/SMSpJk2fmmfNqybdjaBffsVP5z4SegmW15lTGFGVO7N+FnLdFWJAjAzcLoKUXspQ1Q0fLpTF2AAJ8TBCR/raHwApuYgPGRfKIWXYv2InPzH4CroskvXFBLppx8BPvsO9d8ARe2qnU9vpsmYf1e3fSutz+nrUspVUR1KML0TJbRsXEup1LkHBcRieLK+Zq8dAWTl6fIOiYhepmE9fnQiEgAFWVwx3b467+Cxx9X67RhjuwjEdh5t9oZLxJmfmS/V6Y51Y5y71uIcJicC5dTU4yOj5FOp5AhG0IhpNTdErr/2ktQ0jttWmW8yhVQ8E0XyuUFmfpa+Kf/BP7gm0qIKYzZREMr3P8QdLbnr3sRdGFeC0JYwVyvj8ssX+iTuUyuABf/JEG6sGCDMwOjH4EIQ3kjVDX5jydAgAALEATeXUtwcnB5SGnyo+OaL1l/+epkWzjnodFLAZf64Ic/hcMfwn33wYP3qH28pakl6yRrkrnezpy27e1bLWDuRS0RTEuX48eO8+r7H7D7wEFOdF+iuqyElQ2N3HvzjdyzYwe1JSoLW07CT3/zPH/z6+f41oP388TDDxK1rHzyEy+N0SRO/RpgC0jE4c/+KaxeBT/6OVzqVgJQcwv84TchmcgLQaa7okBwcyZsmd/gZnBigrf27+fFt9/jyPnzDE9M0FhdzY7Nm3jwtpvZ0LmGWH4GFpq3vdace82hbvbHKCuZT7T6rUJloPvON2BNJ/zDj+HYUfV7KliKysrhkXvhpi0+7ehzrS9vlKjXhv5dt3p4+fBNy5Ap8OiChKPVLyA9iJsZhXAJlDepxEauq6VzDhAgQDEEJH+tQEoYu4h87T/A2EVE1Wao3gKRUuZejF4JVkyCzxPS1GV47z147x0VfPXjH8GJ4/DFR2DzJohF8vfoL/di0AleJwP9qEOdS2VmeGb3m/ynn/2CfcdPkM05lMbjnO/r453DR/jlm2/x2Hsf8Od//F1a6muZyrl8/8mn+OjMOdqamvji/fcTDgtsMVevMv2rObE8NTo55x5QpRC2gN97FDZsVIlxDhyC73wb2dSAzGZAWJpl28vfnrdICMGxs+f4q188xVOv72ZgdJRIKETYtjlxoZtd+w/w01d38Wff/AZPPHgf8VkXgW75cLXPxeC1nFAnyQIxmsJC/p5wBG69GZqb4TfPwxu7obdHmem7uuCmm1Ra39l69fEuFgfh0+aCo8S/Tg8T/TyBQsDYWeVGCEehotVjPgIECFAMAclfC5ASnAzywnvIs6/C8Amo7UckW5UGM/te89JW9XOahn36HPzmZRjKb+c5OQlvvQWnz8A9d8HDD6hkJZZtkJDelv7C1c/r7esw6hHwzsFD/NVPfs4HR49RWVrKY7dtZ/umjUxns/zqjbd448ABfvLKLhzH4d//iz8jlIgzNnlZa0nOTZFUpCctW4kz0kW6LgKBZamxSwmu6yCFhbSUYCScLGARki60NcM/+xPkmQs4TfWIXBbHDiGkRLgSIR0sK1RwHMwfniU43z/IX/74Z/zk5VfI5HLs3NrF/bfcRHVpKR8cPc7PXn2VY+cv8Of/9W/YsGIFN61bw0Ji9jJhe81jMauFGZOh9zcfvCYs9bGtBb79BKxdC089BZMTsPM2aF/O/PzxuoXGFB7N72ZflwJzTKbgo+cAyJefGlR9jJYhAn98gABXjIDkrwUIAZMDcOoNmLgIMgr1N0OinvnR3gVTaY45fyzMf/FL6OmH3zwHxw/PFXFdZa7tvgA/+jF0X4QnvgYrlyt/ubC0egsEX1iip5us9fbMN+58zXN6JsPTu99k38mTRKMR/tlXv8wff+PrVJWXI0IW9998M//83/0Fr+7fzwvv7+FYby8bOjsWLGmXUpKRkvF0mku9fRw/e46JqSnqKipYvXIFTfV1lEQjWEKQc13Gp2c4d/4CJ85fIOc4bOpop6GlmYpIlGgoBNJlZlUbI1Mpuo+c4NCpEyRiMTas6qCxsYHyiCRiF4QfMdeHnMub+/az++BB0pkM9914A3/+vT9m0/p12LbFNzJZOlsa+Vf/7e/pGRrmyVdeZdvWLchUGssy4wlMd4uHy2XBOnWv8+bRFLTyrpnSBNx9u3JZ9PXD6k4t85zuVzf7p9etW5LMlR1eMK+Zbh5TeNGRn/fJSxAqR8RqoLTeo1yAAAGKISD5awGugzz3DvLcG5AeQzTsQNRsADvKQr+r/gKeH5UODkxMwStvwEuv4MGW6jg9Da++CufOwfe+Bzd2QUgPlCq0o2uO8ypi4Qt67pyUEiybD44cZd/R42QyWW67YSO/d+89VEQjyNQUEklLQx1/8vtf4sLgILYQlMaieLkOUpkMHxw9xl8/+UvePvQhjuMoepGSuspKvnHfPXz74Qepr6ri/Y+O8J+fepq3D35IJpfDlRJXSm5au5Y//dpX2N61GWmFeG3PB/zlD3/ER2fPqUfgSqKRMLdt2cw/+cqXuGH1asKWmDXfSyQDk+PsOXmSgZFRasrLePT2HbQ3NWBl0khXELLgf/raV9l/4hS7D35IQ001wgUpTD+0GUwJ/qZ5HXpZ03VjkrL53QbpQnMjtDTll9aZgXJ6PzG+69f1WAU/q4QpBJq/I7/sf1obEsSqRxArboG6eqhdSZDSNkCAK0NA8tcCRi7Akd/AyBlEvAbRdAeUNPi8zPQXqpGrfiYLBw/D8y+qPbeLIv8ytW2DW7xMwcV874V7tDpR2uOZvj76x8aIhEJsXtVBZUmJMgpbArCR0uX2ri7+4p//z1hAR2MjM/PWdSvfev/YGD954WVefPd9VjY1cveNN1CWTPLuh4d589AhnnrtDW5ct4aQZfOzV1/jN2+/Q9uyZXz7wQfIOA4/euFFXvrgA5LRCJvWroWQ4G+f/hW7D35IV+cq/uiRR+geHOLHL77Ey+/voammlo6mJmrKStAFn6nJFMMj42RzOZpqa+loaaEkFsNCmcVlPtPe//GP/pDT3T1sXd0J2Zl83ICXe8Vrjs3vXhYT3bqyWDyFIUQUAu+WBC8hz08Q0O8pZl0oZvo3IaF6NSxrhtZWZW0KCD5AgCtCQPJXG9lpOPwsnHoV3BzU3Qh1m/NavJd2p0e3a5q368LYOOx+Ay6dVy/DYi/zsgoVcb+uUxH9AvLxiugu+E1NeJwX0D00xMjEJJFwmJbaOhIhGz3aXGARj4S5rWsLCLCkYGZeXoD8FDkuM9kMm1a188dffpwHbrsNB0lLwzLOXuqhZ2iI3sFh2hoaGRgdY3omw8rmJm7ctJHWtlZWNjfy1z9/ksZltVghi6nxy1zoG0QAW1d1sL1rM5FEgpbaan704stUlpVi2/bsfEhACIGTzZLNzOC4LuUlJZQmE2oztXy5QmjDyqZGWhubsAtbvc7OoZlvwCRpL1L1Si3sJyiY9XgFSBZb72762vVz81cZzO+Lfs3P+lC4ZloEvCwFgtlYEMtCliTBsgNDfYAAHwMByV9NuA70HUWefAF5uQdR2oZo3A6RMrw1H8HCl7sRyGXZUFWlIuoLS6ZMRKPwhRthxy1qedm8rUZ1869u0hX4m1jNjHWqf4lIlEjIJpXLkXNy+Tvnm3fTmQzHBxThttfWGpqaMpc3VJTzxP33c3FokPraal568016BgY5fOo0k6kUl9PTjE9NEY/FWd3WyrLqKl567336h4bYuno1G9vb+dOv/j7rOjtJhkNQXsrGVSs5fekSf/f8CxzrvsBN69fR2dLKv3zi66xvX0lFMj6vKxKJZQts20YIgStdHEcipUAIqXeZ3tFxeiYmaSkvo76iIj9UfX7142Imev2cl1ZtHoVR3uu6+RwK57ziLtCu6YSv12+uEjC1fb+2/QSM/O9PApZAJII0tgECfFwEJH+1ICWkR5Gnd6m94u0oVG+CsuVgFXssPuZRy4LqGnji68q0+eZbcOqU2nHMnSNVAJavhAfugoY68qqoVnehfp3ovfzyZp8Wjm/FsmXUVVZysvsi5/r6mJrJUJZMaMUlh8+c5d/83Q9wXIf/83/8Lq2trQuqyjoOw5cn2PXBHi49O4CLJGSHQEocKWfppLw0yRdv34HjOLx96BAX+gf40Uuv8KOXXmZNWysPb9/Od7/0RUqScf7w0UeIx2LsPXaMUxcvcfDkaWLRKBvbV/D7d9/FY7ftoKqsdG6GJcQSCcrKSgmHQgyOjjEwOkI2lyMSCs3OmSNsfvCrZ3np/b18/e6d/OPf/woyM5Nf57/InM3Cz7xdeD6msOVFnjrRFhMczHN+goQpBJpL94q5HorBqx/a/eEoxJJXUF+AAAF0BCR/1SBhchB6D0NqGJKNUH8DxKtYmD/cS1PO16G/YEO2Cqr6vUdV9PSLL8MHe2BwQCV/kUB5Oey8HdavVxr9PJiaX+GzqYUWhACTXPLf8qzYtaqdzpYWjp2/wLsffcTJixepLCsjaltIYHJ6mp+/uotde/cjhGBwbCxP8jLfssRxXE5cuMh/+cVT7D9+km3r1/HVe++hs7WFi/39fP/HP+NE9wUQglwui5SS7Zs3c9vWrfSOjHD89Gmee+dd3j96jO6BQe7bdgPr2lfg5hwe3n4rX7zzDk5fusTBY8d5Zc9e3jhwENeVdC5fzi2bN0I2O0vQ5ckkKxoaKE3EGZ6YYO+JE2xZt4bGyorZGdl/5Ch/++vnOX3xEpvbVyJtYcSKLeYPX0yg0n8Dep53M/jO6/kVq2sp7RUrYwoYXlYKr34V+225UFqOtERgqg8Q4GMiIPmrBgHxSmjYiug/B4lWROXqIhH1heNiQU6oBCdf2AJNDdDUCLteh+5u5bffsR3uuh0qy/K3+Gl+OoGY2qPXC9zQLqVkeVMjt3VtYc+x4xw+c5a/+9WvSWWytNVUk3VzfHD8JE+/8Sap6Wm2ru6kpaEBk4yyrktPXz/nenqJx6Ls2LKJL969k0wux77jxxkaG8NxXLLZHP3Do/z1U89w6vwF/uSbX+eeW2/m7m03EI2EOXXxImOTlxmfvMzIxCT/9u9/iIvL//bdf8zj997Dji2biMWi/Psf/ZSBsTGGJyeRlg1k1awIKE/EuWndGp5vaeHtQx/y9GtvUFNTwy1r1xANhRicGOf7//0nnL7UQ2VZKbdu2IjIFXa18/LJe1GXaQovBj8CL2YKXwr0352Xhu61vM78bPa/2HiMMQgBM1OAC4kYAcUHCPDxEZD81USsAtF6N+SqwLUgXo1/YJWXKdbjpaq/D5fVw2OPqIxnb70NMxm4/z5obDQIHqM+r7Z1eBGWN2ndt+1Gjp87z1Ovv8EvXtnFkdNnWNnURHp6mgMnT9E7PMyq5ib+5Mtfoq2ujrR0ScRis61aQlBakqSytJQzvX28/9ERSp/9NcOjY7x98BCX0ymyuRwDo6Okp2fI5nLsO3mC7//9Dzly602Ul1dw5Nw5pJSsaGxgWV090gVXurx+4ADOf/4v3L/9FhwBpy5eIh6NsrKxkebaGoST06ZVZdfb2NnB791xG6MTE5zo7uYv//YHvLxyBbFohDM9vXx05ixlyQSP3347t9/Qhcw5eS3e77nqc2r6sc1r5nPXNV+Y//xMM79fvX598uufqW17mfev1EJgaO8iBL3vwMw4lExB1cMQSSyhzgABApgISP6qQcJ0GqZzUDJnovb2gfoFW3m9UI2XbkUZ3HYLrFoJ6bRaJ23ng5oWNad6nTNNs3q7ZnFJe3Mj/8OjD1NdXsbr+w5w6tIlTl66hOu6VJWW8sj2W3js9tt59I4dRGybnAPbN25gZGKCppoaEiGbtStX8Ht33sHPX93FnqPHON/bR0N1NZvXrGb1iuW8sW8/FlBVVsrv372TTCbD+0eP8nfP/Abbssg4WbatW8cT991L67I6bEvwh488RCQcYv+Jk5y+dAnLUmlt79t2I1+79x7aGxvBceZpkQKo/P/bO/Pguq77vn/OfRvwsDzsAEmAGwiC4k5KIrXQkkhJ1hJZthw7ihq3SZy408XpNNN2pn/l386krTv9pzOZtE3TOk3cJpZi2U5UWVYkS5YVLTRlSeZmihJJcQUIYl/eu6d/nHeBg4Nz73uULBCAfp8ZzsO799yzPIDve37LOaeujl+79yBN9fU8/eJLHD5xkpd+9jZhWCKTybB1/XoevOM2nvjs/bQWGp1PJc6lbv/efL8T24KOc7vHxfHd303cRM6+Vwn37yBuguK2lUQ0mwpgfBB96jsw8gFMnkBtuV9EXhA+IiLyNwqtYWrKbEzjL+C8Qry4+gTf+tLPZGBtN7PB4djv8jiBqebL3y9Q2XSGvVs2s3HNag7t28e7Z84wOjmBDjVdzU3s39LPxjVryGbMCXk1qYB//MXH2LZlM/u33ERdJku+rZWvPvoIWzf1curCBXKZLJtWr2b35k2MTkxyYM9ueletoqu1hdXtbfR0dvL68RNcvHq1vNytjt0b1rO7bxP5bAaN5pEDB+hft45Xjh5lcGSUQCnaGhvY3dtL/7oe8rlceTROvgGarpYWvnTvIXb3b+bIqfe4cPUqpVJIPpelb/Vqbt++jca6PMEC0U2y3pNc7nECHlnA7oqIpAnDx8G24uO2wHX76HsfYf/tlsuERfjghzB8Al2aQjVvhNrGX+YgBOFThYj8jSLUZolbaYaFX/C+L8jIqse5Z5dxrzllF2zK4ou1u1/ecdZhFZZ8uVxKKVoLjdxzyx7uvnUvURaa0iEq1GYpYfm42bQK2N2/id039aPCsHzUboqejna6u7rK+9GDCkNzH0X/um4Izd7zoNm2cT1bN21ER9luGlRYmi2vgJpshh19vWzr73P6g+mP9zOcG2c+m2Hnpl52bDbPm+iHLu+BH4J217/bZBdneQAAIABJREFUr9XEzN37PqFMCt/EEf97Sr5vu9Qr1RkXknAnpM7fqg5h4Ofo97+HLk2imnpRN/86c4mogiBcLyLyNwKtzbGyM1NlMUiK1SaJgc9yS46R++uJrrlfvL7NW3xikOQOji6HUDIiOK9v8/bmL7+Wyv9m158H5vliOFfr7HMhzGDFvTETg1Jpfg/nxcXL/0KFKpWYx/UISnmiocvL+OY3Fie+SWJayfKOm2j5rPfrteKrbTtuQpHkQXCf8YUXAhg9C+99Dz12BtJ51PbHYM3OmDoFQagGmSLfCLSGYhFmilZs3HZbzivMQretxwqaVz7Joktqww0NuNaom+Bl37Ov+4RGodDmvBQVlF99kwdzfU6U58Ycndqq1Px863kC79QxV5e9LHFuz/W5cnZ/3HElEdWhZscWL7rViFWcEPrc/T58ov9Rwi1J3oYkaz+pT2575XsqgOH30SefRF96FcIiatVeuPkJyNYl1CsIQiXEkl9sipNw/ij6/cOosWnIdJTXxid9kVWy4GDhF2mSByDpy9wu44v/+sSmkqs3rm13cuMKZDWi6LvvejXikhfdOpIE8aP0xR5HXDtxYY+kz9Qen12fb4JRrRXs+/tJ+izixnQ9bQIzY3DpCPrMM+jLh6E4gerchbrrX0LnTdfnWREEYQEi8ouKhqlR9Mm/Q7/6p+aM7PWfg5pm5sfLbdztRN0kK5tqvmBd6zCuLVcofeVxyrrX7Hs+MfNNXnzl3clGJevU146vb/M9BcmWbzXWa9KEyaVaIbTLxcXEfW3YY4nLyr8e7L9Pd62/b+2/Lr8tu0kWNF8uW5xAn3seffEnEJZQa+9EHfg96L8P0pmP2WdBEETkFxONicNfOwfXTqEb16FQzI/hRlQSRleEoy9zuzHftrSuUMRZb84Jd7P3fSQJWyVLz+13JZH0WeS20Lht+axmtw17aVuSkCZNZqJ2S077br9sb0icBR83qXGvRZsV+YjbGz9pTK4Xxd661m3L13fF7AoOFUCgTBJjWDT3lH0/ZXZcbNmEGtiKHj6K6nsAtfcJWHsL5PJV9F0QhEqIyC8aGnQIk8Mwdhl0EdK1kKljzlXvswqTXKZxmfDu+6R4ajW7sEWiEpeE5/a1knXrq6+a8frqcX+Os+KTwgBxP7vEeRbcMnETHBffhMUVXd8zcV4Q39GzPi+Gb+Lg9tf97HyThvJ9e99epaA0CZNDMHbRTGZ1CbVqH7T2QTYL+TxhfSOqNg/ZHCr3BMGmO6F7NzR1QzrrGbcgCB8FEfnFRGuYGoGJQUBDut6I/PxCzBcK98vbtbCV9T7uyxkWCkqcFflxXLtJVrhPIJKE1hXkShMHX7u2h8P+rDxHvEZZ/7Fnv/vGFNdu9Cyen+1rSVsFx7XrCy24kyac974JWKVJh1suLl+iLOozIzB+BUbOooffMxvZjF9AT11F1XXCmn7o7kbnG1CZDEE6Uz7iGFizA1Ztg3TOOTBJEISPi4j8YqEBXYKJIRgbBALINEK2gfilaa6I2/F4V+ijn23ihNxjjc3W73Mzu/gs5Eq4fXHzC7Da9J1dHtdWkgciDk/5dDnjvhi5lmG+lyPu2aS2I5e3fYiMK9DuJMb9XSZ5I3zCG10LnWfj+udrz3ff87kXx9GX34LBd+Hae+iJS1AchplxKE5AcQaVzkO+Cd3UgioUUNl8uSqrvnSO6/8dCoJQDSLyi4VSoEP05Ah6agRUgMrWQ7qGuS9omC8G0VIvey23XTbORR6VixPrOPe6e6KZfUCN3V414hdHJbe8PalJEplKbn1bPO1xpcqv1uc9Ngo/eAVK4/C5hyGbMpsVqaSJTlLb9ljctkvWvSRXuj1Gd4LmtuOLzV+vaNoTBbdNu43ob6MIE9fg2JPoobcgKJn9CYohqBpo24zaeAesPwBd21Gt68zWtLGrSETgBeGTQER+MdEhTI8bSyeVg1yTdXa870vOtsii9z4LF+a+hKt11/rq8B1xG72360vaQtW1UN3xuKIdvdqWve+scjckEdUXV6+Nsv6V5pcrzcCx4/Dtb8HgALz1Ljz2CNzUD7mMZy7hjted8CSFF3xLEOM+j6jhSpMp93cWkfL02TeWmH7oEkyPmucy9aBSZtKTSkMqhc7Woxrz8OF6GHob1dwLTetRa2427vfOfnRDB2TrUKkMBCkEQVh8ROQXDW12uZsaMa7MVK4cj3cTmnxf4pVcroFTLsklH+cuju65yXW2VZ9ivtBHz7hifJ3Wb5AyO9xRMmISmynvjs1+dcdlj8EVTOvzmJyCv/gunPqFsURffB4+eA8efAgeuNccyRtWyriPI+kZ6zkV7eg3aYQ1lYVMgxOf1qbczChcOW5OaNPafF65sggHKcg1G4s5GwlzJQtfMZv1HoYweRmunUYPHoWRU6i6tbDlS1BYDQ316LoGVLYGXZtHqRKq5p+g+g/Bql1QWAW1TSZxTgVmY6BKEQNBED5RROQXC41ZTlScMmIf5CFVWxY18B/6URa+WXFNsVBsbWF1z363v8xda9NtJ7JyfYLtxsg98dkFP/uEN5o0hER71fOT16G1Cbb2m+N2S6ElTEnxb1c53KVp9pg8fQ9DU+Spv4FXXizH4jEn9R07Bu9/AEcOw2/9I+jvMyKofR4Lt18poGi9ppn7ndnhD2W8OGFoVltceBV99nn02DlU932oTY9BbXNZqNWcoM9Mod97Gj3wJoQzpskgVW5egUqbculago7b4KavGMGnXGY2wbB8EmFxEiauwJV30OdfQg+fMEl04YT5XRS2EH7mN0mt3QS5OlQQgFJzwYENd8D62+f66UM88YJwwxCRX0zCEkqHUNOEzrVDXXvZWvO506PXNPMnAHGWv3vNPdbU5+Z3RThyk2O9j4QpEiys+z4zzWe22XWW+xGEcOp9+G9/Ah98AF/+B/Crj0BrgyOmtrfBZ8H7xm33K/p8Lc9DtOTrtTfgT/8EitPzuxuGMD4GP3oJrgzAr30Jbr8V8nmrHfv3ZYdJ7DCHK+zlckqbkM3gCbj4OvrDl9Cjp00fUznIKfTqbmhaDZl0WTzL45zogtNr4OIRCKdB2wcchXPjz+TRxTFUfTPoFBRn5h+8M/ohnH/VTC6u/hw9PVT+iJUpTxYa2qC9m1RNHmryZmLgCrlKISIuCEsXEfnFQinIN8HOL6Eat6KGrkFNS/mm7fp2xTNONF2B9VnXcYlaccT5VTWQsfrpizv7+uHWZ4UIpkvw5F/DiePGs/HN/w7H3obPPwr7b4ZsutyM24b2/OybCNjtqfn3tIaLl+Av/g+Mjsa7lGdm4O23zWtTE+y7xVj83j75Pmd74qRNmGb4LAy8A5cPo4eOo6cGTPw7Uwf1XaiWPlh/K3StgsZOqy3TQdXQAHf8BmzeZy4PnStPUjRMDJtw0OgAOiyiNt0GfVvNnKk4g56eQk1PoSbGYeTn6HM/QA++C6RNfkhtCzSuRa3aCqtvQnXuhraNUN9m5Y4IgrCckP+5i0kqY2KbXQr0GeMOBea7mGGhyPsEPHJFp6xyNtUIu8+V7nsmspDjYt3upMMVWsv1r0MjXH/9XfjBD42Aam0s0r9/FU6egofuh0cegtWryla32xe7jUqTGDvsoI01m8rA3/wtHDlSrjIhaJytgc39sGaVmYwoe7wV2prtb9nVf+ktwp/9MUxeBD1tymUbUW190Hs3qvcgtPeZyWCuzplMlH9OZ6DvEGrTPcaynplk9ljb0ozZXa44iQqLJmGurqF88E65L2GInpmC8RNQ34nK1UDHFli1G9W9B92yFpVvKbcfzP0TBGFZIiK/2KQCdG0NKpM1S7a826m67m03Xm+LTNxudXHWZujct5+3rM55/9yJhM9ajxNZ27VddpMfOwl/9W0YGpoT2FCDLsLABfjmn8Gb78Dv/Bbs3VZew26PK8lbYJdzwhu6BNkc/PzE/AlGHKkU9G2Cg3dBR7tTd9w4o3wJ5t4rINBQ6AHGzXavqQ5Ysxu16wuoTQehpYdomaWJ18cJa/meLvchEy3BBHRt+TU0IYEgO2+ioFCm7WwONtwKrf8O8m3Q2AWZnIkkRC79IErmFARhOSMiv9ioAJXNQSYLE+MevagklnZSmhvPj6srTvyticHkhHHJZrNWuSje7Fv65V6rxpOg4fKgcdNfvOQZooaiNk2+81P44z+Cf/HPYfd2KJaIP8THnrxE7z1eCqVMvL25ALfealzvH54H90z5iJZWOHAnbN1SXgLmhlDiQiTlMioFmRTk66CxCV1/E0Hx6+iZMVTfQbPULN9q+qXKz1dlNas58U501nj+LpQClTbbxxbWWL++8uclbnlBWFHI/+jFRikj8NkcC930Eb74smvV+9asJ8XUwStKWhuB/8Hzpk97d0Nbq1W00gQiSfCssWhthPqVV+H112FqMt6KDkMTk8/XQn2dsfKrIm4yY3lJQg1tzcZLsGM7fPtJOHESxseZzaBXykx2du6Auw5AQz0LP4cYaz6yxNMZaGxAt7RDQyMqm0Oh4a5/ataNZ2oS+vvLoto6rUmDIAgrChH5G0EqDTU1xh0cRsvWfLgC6iZ4JYlEnJVpewMwovSzd+HbTxmr9tAheOxRWNcDOVuIXOs47tU3DA3pFJz+AH74dyZjPclNrhS0d8BDD8LaNeYzUklb//rG647dKV8owL33GCH/i/8LL7wAV64Yqz4IYMsW+MLnYH2Pp52YtiauwLX3oHUrdG1Gr+k2YRlbQGsLCf1cZETYBWHFIyK/6JRjz+EkzAxDqMxpdMqNOzvPAPEnxiUl6bn12QKv4cog/L/n4P0zxqJ/+mmzpO3zj8Itu6ChEdJpK+HMbid6dTfscQVRm/EVZ6C1xXgKLl+EmZJf7GtqYP8+uH1f+RAT37p/d2zu/bhkQDU3dgW0t8Hv/CZsWGvi9Kfeg5pauOse2LWT2TXqC3IinM91ZgxOP4v+xV+htj2B3rbLhGUEQRBuICLyi02pCIOn4cTfwNmj0NgHHbvLe9i7JCWZ+Sxn17J3s+UdkZyagud+CG++Mec+D0P46RE4fwHuvhPuOQh9vVBXN5fFHTvJiOmbUmaZ1+Y++O3fgh//GJ55Fk6fNhOL2Y1mMBOKvn54+EFjbceGIZIy6t3x2jF7R/gVUJeHhx6A3l54+RXj0r/rdrOtrXe3O+e9DuHSTwnP/RCmh+DyG6ipIWB1hf4JgiB8sojILyrlmO2V99BvP4m+cpxg3YPQshkytQku7KS4txuTj7NsHcIQXn8TnvkBXL5SFjPKfQjh4kV4+vtw7D0jgHffCY31TttJHgT3fWDqXtMJjzwIPRvguWfh738Cg1dN+0pBWxv8+pfNDnix+QBxn0W1eCz+VAq29EH3apichpbmci5A3EQmqiqAsQvoM8/B2DlQadT2x6C5+zr6IwiC8MkgIr+oKAgy0NgOtQ0wNYSeuIiaGYfa1phn4uLdPgGKSQZbkAQHnDsPf/ssvP/+wuxyrc1ys4kJeOtNuHoFetbAnh3WRKQaS9omctsr4w4/eBv09pi18C/+CD5432Sw33MQPnM78zeBiVs+mJAHMFvW994TX1flzPaGemistn7M2vRzP0ZfOQzhDKr3ftjzONQ0JD8nCIKwCIjILzZKmWVThR5AwfhFmBoC3WMXYqGouZn4yvOqnfIx7vzRUfjRy3D0WPJa8TA0WeJdq6Cr07lZTca73Verb4GCiSnoaofHv2zWoj//PExPwyMPQzbjZNTHTSwq9SHps8L62XHfe6133+QihIF30GefNwfHtPSh7vp9s+78E8mWFwRBuD5E5G8E+RZUey/U1MPEAEwOMl/IfJncvkx7rGtVLjMLFFy8AG+8AZcvzbnpvWUD6OqCLz4GXR3OZMCX5Ob2M8GlHq1Zr6uFA7fBhh4YHStn0yedQue256PKkEXsc3H3nAnB6Hn0+3+LHj0FmTrUzi9Bzx45VlUQhCWDbGm12CjMlqEt66C2FT05gB49a04DS1qe5bXu414T0BrqG6BvM6xabdaDK7VwOVUQmCV0n70Pbt3L/M1moj7YfXH7WgnreaWgpwe29JsDWeZZ/nZ91Qq2m59QTVnfe/d5q89TQ3DmefTl100y5boDqO2fM2EYQRCEJYKI/I0gSEHzemjtBT0NV4/BuLsDnM8adYU8zoL3ZaSruVudnfCFR+ErT8Att5id3VLOUaFKwY6d8OBnoSZLPB8nAc7qrzdkEDfO6xX9SlxnPUrBtVPoi6/B5BC09qP2PgHtmzFHvYqrXhCEpYGI/I1AKWjuga7tkM6jh07AyGmT7GYKWIXdZDH7epwLW5EohAoTDz90N/zDr8DnPwdr15vla+XzwmnvhCe+bA5m8Q+impF6ylUSaJ8VHWeVVwpRfNQ+2vXHtJErQEsvqmMbav9Xoe8eyOVF4AVBWFJITH7RUcZqrSmgOrag6zpg5Bx6+AyqfRyyDcxf3x63EYwbA487Rc7NzrdENJ+Hbf1m2VhvH3znafjpm0bsH3sMbtlrVRdlubvb6ia5xStNTJLi7r7y7liuN/Yel11fTQKfVb8OYfU2WLcRSqOo7t1Q346c1iYIwlJDRP5Gkc6auHzzOpgYgqlhc9541o7pusvH4lBVlvWIbCpl9nK/+w5Y3QnffwYmJ+Hh+yAVWJapK+z25OM6cgK8YQQ33u/WZa8YsMvElbfbcj0c7rMQP/nw/Kw05BtgdTeq0GQ+n8AJdQiCICwRRORvBEqZ077aNxHsfhy674RsN2SjzWbixMiXfOdautUKltUXjTnOdctmaCrA1DS0tCTUVa3lG2eF++qpJs6eZHVXI7KVkhqTPBLle/k6dNdqVKHZeDwEQRCWMPItdaNQCgqrYNcXzdauFy7DyAjzhbrSa4m5M+CrcXnHLbtTc4lv0VK52WNdq7HU4yxln2vdnTS41nrSCoK4cbljqhQS8LUVOOWtfquU+UxyOWjrLAu8LJMTBGHpIyJ/I0lloa4VXVuCSY2amDKHuCwgTsx8B8P44u/uc67wORML5Yqqu6zMbTsu49/uT1xCne/5OJF2r9m4k6OkUIIdalDO83YfNEyPmuVy9W3o1m5UcytkMjF9EARBWFpIptASQAUpaCyYQ2CCAL8Quu+riSvbIuYTS1dc3Zi7K7xxoumKpdsvn/vexp0YuJOUSuEBu56ka1E9ofM+5vniOJx/Bf3Wf0Gf/h7oYWPBS/xdEIRlgoj8EkHV5qHQbLaR1ZTd5z6r2CbO/Vwpthwnyj4L3nc9uucr66NSLL9Swl41f6Y+b0e1z3gmIroEg8fRp79nNrz58CUYPAFhkeonHYIgCDcWEfmlQioFLW3Q0FBO6HJdzlF2e4o5cfJtSeta8647PiReoONi6kmWb3Q/zuNQqX92PXFlq6m7mmtxZWyvRfmzGT6DPvkd9MDbkKqF3vtQ62+DdI7qJhCCIAg3HhH5pYJSkMuh2ztg4KfoN74B51+FcIaF1nrkVo+SvyLxjiYCET43uU+gIpErMV9w7eftyYU9yVDl590/JVe4o3p8/UtymyeJv1uP75rbB/d5Tw7D2GX0qe+hL74MqQxqy6+gbv0NkygZyH8ZQRCWD5J4t1TQGsIS6tyr6Hf+B/rSWzB0FFWcgtV3QCpTznqPHrDPkYf4zXCq7gBzk4Y4i9dn8dsegiSXuS8Zzm7LFeA4F76d9OfWFYdP3GOYGYOLr8H5l0CB6tmHuuUr0NUvAi8IwrJDvrWWEiqAtj5o2wAqjb52gvDN/4A++r9gagRSadB2chwsdMfPq5D54uy61l13vmbOmvc9H5fIF1nzCwbkvLrL1Oz8ADskEJetj1XWDiP42vNNRHwJfVbdWpvdB99/Bj1xAeq7YdcTsOkusxJCEARhmSEiv1RQyhwD29mH+sJ/Rt3625DvgNIY+vj/hjf+IwycYE7c7F+dT6xtEbRFz40/u8LoW3fvxuajZ32Z8C72xMIVcvu6HXpICjHYk4roM0hKCvR5GuzJhjXBmBqE08/A0LuQrUFtOYTa9RhkamPGJgiCsLQRd/2Soiymje1w779FFdai3/yfMHiS8MKLMPIBQc+90H0A6teYXfNmn3Pj8R/VbR9NIKKNduxDc2x3vh0qcEMHWOVcl73P2na3zHXxxdd98X5PlvwCS94W/KiOFJSm4MKb6HMvoFM5VO/9qDt+D+rbPP0RBEFYHoglv+RQoAJUYRXqzq8RPPLvUZs+a049mzhDeOKb6MP/CQbfLetYJJBuxrxLUiKaXQb89fhc/0nPJFn2cX2rRJx1Hzf2uDo9MXodQqYe2rZB1x7Y/WvQuQX/EbiCIAjLA7HklypKQU0D3HQ/as0uePmP0K/9GRQvoycuoMIZczBKqUh8Ypkd67bv2Zn4thXtE0VX3OPu+65Xwmdtu/d8iXZJ2fhuQp+N68K3XtO1sPE+1J6HIBhHdfSbHAhBEIRljHyLLWVUYCzMxg7Uvf8atekzRujru9C7H0UNXzMnxpVK5YQ814Vuu7FnKyXehe6+d93frrtcOWXjlqbBwjaiVzfM4Hs2GotvMhI3yXDbiitb7ncANNZBzwZUOpNQnyAIwvJBRH6powLjMs7moe8gatV2CEvohg6YmEAPDaKuXoWJUSP284TMzSh3Lea4JWhJgu4ueYsmAr599HHe+9p261vwASSUcScL7lihcry/PK6aPLR2oDNZ1OwBPYIgCMsbEfnlgC04DR3mEkBdPdTWogvNqMsX4eoVGLlsDlTJdxkX9FwlzqtPGKP7vgS1JGu5kjUd1e/2Ic4TkOSO912vlGvgXNfabE+rgFTOrH9vKKDrG0TgBUFYUYjIL3NUkIL6BnQuC8EMnPxrOPMj1NrPQtetkMkTf4yqL9vdtszdJXgl5pbg+Ta/8Vn59vN2OZ+XwS0besrHxd+T3PLln3UIxUmYGIShX5ich54D0FCHbm1FpeTwGUEQVhYi8isEFQTodAmuHUVfPmzWfIczqFW3m6zxBdoVF0u3cRdf2OvS45L0kt67cXy7XFL2v88LYT9TYQKgUjA1CmPn0AM/h8uH4eoxKKxH3XQPuns95GpE4AVBWHGIyK8UVIDKF9Ddu+D8a+jh91CnvwepGujaB+ka4uPvET6XfVw2e1JG/fUuO/P1K856990npgxQmoGRM3DpMPrSm+hrJ2H6KqgMKh1AagpqaqtaCyAIgrDcEJFfKQQpKKxC7XkcRi6i3/pL9NBR+MWTqNIUtO+EmmYIosxxXzzbjYvbS9fcci4fR9iTxLwa+XWfDWFmEiYuwcDP0Weeh6Fj6OIoZOuhpRfVvR+17VfQ7RtE4AVBWLGIyK8kgjS09aJu+xpohT72XfTgOzB5Ba7eiuq4BZr7jdgrn9Xts6ar2agmydq263WEeMEWur6ybgKgz91vo6A4A+dfRX/4Igz8DD05ANkGWLUHtWYvbLwLtfEOKKxGpWS5nCAIKxcR+ZVGOgtrdqA+88+goQ39zpPogePwwTMweBS1+h5Yewjy0XatrkXtO6P+o+76FrcUD/yeBPu5MKas2x/FfE+DhiBAD59EX3wDdBHVuRP67oX1d6K6d0PTmvJGN2LDC4KwshGRX4mkMtC1BXXb70LbJnj7SfQHP0EPn4LWbSjls6zBvzFOUjk3dl8pRu4rV83SO09S3WwVViZ+kELX1KIKTSh9EGYGoHMzqu8QrL0F6lrNJEgQBOFTgoj8SiVIQ3MPatevQsdNcOwZuHICeh9At9+EGh+HyQkoRfvel63naJe9WV2Ni9H7rPJKiX1J12x8a+bL13QJZsZh+hqk66C2BdJpdE2tWUrYUICGRlTTQ6iuzeiWtVBYZR3mIwiC8OlBvvlWMkqZnfJ69qCa1sD4INR3QLYBPT4GI8OokWEYH4OwBNOjZh15TRMEWSOoUT3e2H211vi8TuHfIc/GtfYDCKdh4jJ6+DRc/QWMfYjquhlu+hy6uRPq66E2j8pkjaeisRMKneWeilteEIRPJyLyKx2lIJWCQpfZLS8wm9moTBZdVw+FZhgZgpFx9Bt/BYNHobkP1boXmjdBOmN2h9MaVNKGM9G12I6wwCr3br5jbUMbpEwS3bWT6Cs/hYF30SNnYWYIpicgCFG77ke1d5h+Bta6flnzLgiCICL/6UCVxd4SwVQKFQSQzaLzeVR4Ei6+jL78ttkspv4VaNmCatkKTb3l5Xc5I7yxS+h8u9q5793d9Dz1hCWYuALXTqEH3oar76JHzsD0kHk814hq2wLrb4GmdshkRdQFQRA8iMh/mlHGmlaZLNTmYO0tqHAKPXgKPXAErh2DCz+GulXQ2At1XahCL9T3QE2B+WetWyKrXTe+a8XrcnGP215rGLuMfve/wvB76PHLUJqAVA2qpQ9W74Q1e1Crd0PHZuOWF4EXBEHwIiIvGJFs7kYd/Fcw+CXU2cPo48+iP3gRPfYhjJyDgXchUwv161AbfxV6PmPi5KrsJdAwa60H6fK1KKnPTdIrC7sOQYWglbHelTJL2+oKMHwWPfw+5OpQPQdQfZ+F7r3Qug7q2iFXb1YRiMALgiDEIiIvGDI10NYLLeug52bU7i+izr+DPvos+vQLMHIRxq5B5ho0tqJzOdRUCcLQ/AMj2mMXYeqqWaqWypsEviBtsvYji31qCHKNkCuATpmlb/kaqGtANbegUxp1+VG4dha1/fOwdi/kW8xudamoLkEQBKESIvLCHCqAVBbyWagtQKEHtf521PAFuHAcfe4wBBq9+yDUtprz7KenYXoaNTMN48Nw5m308b9EhxOoTL0R+nRteQmbBq3RYxcIVt0Jt/4uurENavPmmNdsFtIZFBoO/j4qDI24Z3LOcj5BEAShGkTkBT8qMNZ4fZsR2rZeVP895sCXulZzslttHUprtA7RpRJq5Ar8YgY9fB6Ko+gACKwd6QIADcUQHYbw8L+B9rWoIGWWvdnZ8Q2d5X6IsAuCIHxUROSFCpSXsmUqsNg+AAAEGElEQVTzkK0pL6WLzpSPSujyErZW2PUwqrkVRi7AxBCMXDLr7wnMca/FSWjdgNpwAAptkMngtdBF3AVBED42IvLCdRDEeMzL28xm87DxTtT6/WYyEIYwM2GsfwUUp6FUgtoGqKmHVA5xwQuCIHxyiMgLv1yCAJRlnWdrrZvlxLsoG1+sdUEQhE8UEXnhl4yqQryVGPCCIAiLgIi8sIiIsguCICwmsuBYEARBEFYoIvKCIAiCsEIRkRcEQRCEFYqIvCAIgiCsUETkBUEQBGGFIiIvCIIgCCsUEXlBEARBWKGIyAuCIAjCCkVEXhAEQRBWKCLygiAIgrBCEZEXBEEQhBWKiLwgCIIgrFBE5AVBEARhhSKn0AmCIAhCmTAMUdZx2ari0dlLG7HkBUEQhE89WmuKxSIXLlxgamoKrTVaa8IwRGt9o7v3kRFLXhAEQRCAUqnECy+8wPnz59mzZw979+6loaEBYFbol5tlLyIvCIIgCEAmk6G/v5+nn36aP//zP2fHjh3s3r2bO++8k+7ubgqFArlcblkJvYi8IAiC8KlHKYVSiu3bt/P1r3+dP/zDP+Spp57i2Wef5Vvf+hZ9fX3cfPPNbN++nf7+fjo6Okinl76ELv0eVsGHH37IkSNHqK+vv9FdEQRBEJY5QRDw+OOPc/bsWQ4fPsz58+c5cuQIzz33HJ2dnWzcuJE9e/Zw9913s23bNhoaGgiCpZnipvQyyyiIEiGeeuop/uAP/oCjR4/S1NREY2Pjkv2QBUEQhOWF1ppLly4xNjY2e00pRRAEZLNZ8vk8zc3NbN26lYcffpj77ruPDRs2LDkdWraWfBQTUUoxPDzM8PDwDe6RIAiCsFKwE+2in6OM+6mpKWZmZhgdHWV4eJiBgQGy2Sxr1qyhpqbmRnZ7ActW5IMgmJ1R7dixg76+PrLZ7I3uliAIgrDM0VoTBAEvv/wyx48fn7Xgo3u1tbWsXbuWnTt3sm/fPnbu3MnWrVuXpAYtS3c9wJkzZ3jttdcYHR1ly5YtrF+/nkwmc4N7JwiCIKwE3njjDb761a9y/vz52WstLS3s37+fBx54gH379rFu3Trq6upIp9NkMhlSqdQN7LGfZSfyEVFsPvp5mQ5DEARBWEIUi0WeeeYZvva1rzE2NkZLSwubN2/mvvvu49ChQ/T19VEoFGbd+JGVv1SX1S1rkY+6vtQSHQRBEITlRbTj3fe//32+8Y1vUCgU2L9/P3fccQc7d+6kUCgsEPOlKuw2y1bkBUEQBOGXidaaiYkJZmZmqKmpIZPJLHsjUkReEARBEFYoy3uKIgiCIAhCLCLygiAIgrBCEZEXBEEQhBWKiLwgCIIgrFBE5AVBEARhhSIiLwiCIAgrFBF5QRAEQVihiMgLgiAIwgrl/wOME9ZTKtNhOgAAAABJRU5ErkJggg==;" parent="1" vertex="1">
          <mxGeometry x="180" y="346.14" width="157" height="137.72" as="geometry" />
        </mxCell>
        <mxCell id="CpoI9WbztWodDHfbnmbO-7" value="" style="endArrow=classic;startArrow=classic;html=1;rounded=0;exitX=1;exitY=0.5;exitDx=0;exitDy=0;exitPerimeter=0;entryX=0.06;entryY=0.5;entryDx=0;entryDy=0;entryPerimeter=0;" parent="1" target="bbrWeT0IVexDpQA-mVMb-3" edge="1">
          <mxGeometry width="50" height="50" relative="1" as="geometry">
            <mxPoint x="449" y="400" as="sourcePoint" />
            <mxPoint x="590" y="370" as="targetPoint" />
          </mxGeometry>
        </mxCell>
        <mxCell id="CpoI9WbztWodDHfbnmbO-10" value="&lt;font style=&quot;font-size: 15px;&quot;&gt;Returns the HTTP response&lt;/font&gt;" style="text;html=1;align=center;verticalAlign=middle;resizable=0;points=[];autosize=1;strokeColor=none;fillColor=none;rotation=-45;" parent="1" vertex="1">
          <mxGeometry x="380" y="640" width="210" height="30" as="geometry" />
        </mxCell>
        <mxCell id="5e27pBd1AOn1u-PcZyDl-1" value="" style="outlineConnect=0;dashed=0;verticalLabelPosition=bottom;verticalAlign=top;align=center;html=1;shape=mxgraph.aws3.instance_with_cloudwatch;fillColor=#F58534;gradientColor=none;" vertex="1" parent="1">
          <mxGeometry x="372.25" y="363.5" width="77.25" height="73" as="geometry" />
        </mxCell>
        <mxCell id="5e27pBd1AOn1u-PcZyDl-8" value="" style="endArrow=classic;html=1;rounded=0;curved=1;exitX=0.58;exitY=1.017;exitDx=0;exitDy=0;exitPerimeter=0;entryX=0.995;entryY=0.652;entryDx=0;entryDy=0;entryPerimeter=0;" edge="1" parent="1" source="bbrWeT0IVexDpQA-mVMb-8" target="bbrWeT0IVexDpQA-mVMb-5">
          <mxGeometry width="50" height="50" relative="1" as="geometry">
            <mxPoint x="400" y="670" as="sourcePoint" />
            <mxPoint x="450" y="620" as="targetPoint" />
            <Array as="points">
              <mxPoint x="560" y="660" />
            </Array>
          </mxGeometry>
        </mxCell>
        <mxCell id="5e27pBd1AOn1u-PcZyDl-10" value="" style="endArrow=classic;html=1;rounded=0;curved=1;entryX=0.123;entryY=0.95;entryDx=0;entryDy=0;entryPerimeter=0;" edge="1" parent="1" target="bbrWeT0IVexDpQA-mVMb-8">
          <mxGeometry width="50" height="50" relative="1" as="geometry">
            <mxPoint x="270" y="610" as="sourcePoint" />
            <mxPoint x="320" y="560" as="targetPoint" />
            <Array as="points">
              <mxPoint x="400" y="560" />
            </Array>
          </mxGeometry>
        </mxCell>
      </root>
    </mxGraphModel>
  </diagram>
</mxfile>
